<?xml version="1.0" encoding="UTF-8" standalone="no"?>
<svg xmlns="http://www.w3.org/2000/svg" version="1.1" viewBox="0 0 1261 767">
   <polyline fill="none" points="439,278 479,278" stroke="rgb(0, 0, 0)" stroke-linecap="square" stroke-width="4.0"/>
   <polyline fill="none" points="479,628 769,628" stroke="rgb(0, 210, 0)" stroke-linecap="square" stroke-width="3.0"/>
   <polyline fill="none" points="189,228 129,228 129,318 629,318" stroke="rgb(0, 0, 0)" stroke-linecap="square" stroke-width="4.0"/>
   <polyline fill="none" points="409,358 309,358 309,288 349,288" stroke="rgb(0, 0, 0)" stroke-linecap="square" stroke-width="4.0"/>
   <polyline fill="none" points="519,538 539,538" stroke="rgb(0, 210, 0)" stroke-linecap="square" stroke-width="3.0"/>
   <polyline fill="none" points="379,288 409,288" stroke="rgb(0, 0, 0)" stroke-linecap="square" stroke-width="4.0"/>
   <polyline fill="none" points="279,468 409,468" stroke="rgb(0, 0, 0)" stroke-linecap="square" stroke-width="4.0"/>
   <polyline fill="none" points="709,408 709,378 719,378" stroke="rgb(0, 0, 0)" stroke-linecap="square" stroke-width="4.0"/>
   <polyline fill="none" points="669,328 709,328 1109,328" stroke="rgb(0, 0, 0)" stroke-linecap="square" stroke-width="4.0"/>
   <polyline fill="none" points="569,248 569,258 569,288 629,288" stroke="rgb(0, 0, 0)" stroke-linecap="square" stroke-width="4.0"/>
   <polyline fill="none" points="569,288 569,298 569,328 629,328" stroke="rgb(0, 0, 0)" stroke-linecap="square" stroke-width="4.0"/>
   <polyline fill="none" points="459,448 579,448 579,358 629,358" stroke="rgb(0, 0, 0)" stroke-linecap="square" stroke-width="4.0"/>
   <polyline fill="none" points="599,138 649,138 649,288" stroke="rgb(0, 0, 0)" stroke-linecap="square" stroke-width="4.0"/>
   <polyline fill="none" points="89,198 149,198 149,208 189,208" stroke="rgb(0, 0, 0)" stroke-linecap="square" stroke-width="4.0"/>
   <polyline fill="none" points="459,98 509,98 509,128 509,198 509,228" stroke="rgb(0, 100, 0)" stroke-linecap="square" stroke-width="3.0"/>
   <polyline fill="none" points="569,298 629,298" stroke="rgb(0, 0, 0)" stroke-linecap="square" stroke-width="4.0"/>
   <polyline fill="none" points="569,328 569,338 629,338" stroke="rgb(0, 0, 0)" stroke-linecap="square" stroke-width="4.0"/>
   <polyline fill="none" points="769,538 539,538 539,608 769,608" stroke="rgb(0, 210, 0)" stroke-linecap="square" stroke-width="3.0"/>
   <polyline fill="none" points="629,348 569,348 569,378 459,378" stroke="rgb(0, 0, 0)" stroke-linecap="square" stroke-width="4.0"/>
   <polyline fill="none" points="769,648 539,648 539,728 489,728" stroke="rgb(0, 210, 0)" stroke-linecap="square" stroke-width="3.0"/>
   <polyline fill="none" points="309,288 309,268 409,268" stroke="rgb(0, 0, 0)" stroke-linecap="square" stroke-width="4.0"/>
   <polyline fill="none" points="309,358 309,428 409,428" stroke="rgb(0, 0, 0)" stroke-linecap="square" stroke-width="4.0"/>
   <polyline fill="none" points="149,208 149,308 629,308" stroke="rgb(0, 0, 0)" stroke-linecap="square" stroke-width="4.0"/>
   <polyline fill="none" points="469,538 489,538" stroke="rgb(0, 100, 0)" stroke-linecap="square" stroke-width="3.0"/>
   <polyline fill="none" points="219,218 279,218 279,238 279,398 279,468 279,648 329,648" stroke="rgb(0, 0, 0)" stroke-linecap="square" stroke-width="4.0"/>
   <polyline fill="none" points="539,258 569,258" stroke="rgb(0, 0, 0)" stroke-linecap="square" stroke-width="4.0"/>
   <polyline fill="none" points="1079,418 1109,418" stroke="rgb(0, 0, 0)" stroke-linecap="square" stroke-width="4.0"/>
   <polyline fill="none" points="309,428 309,728 319,728" stroke="rgb(0, 0, 0)" stroke-linecap="square" stroke-width="4.0"/>
   <polyline fill="none" points="509,288 509,498 769,498" stroke="rgb(0, 100, 0)" stroke-linecap="square" stroke-width="3.0"/>
   <polyline fill="none" points="279,398 409,398" stroke="rgb(0, 0, 0)" stroke-linecap="square" stroke-width="4.0"/>
   <polyline fill="none" points="279,238 479,238" stroke="rgb(0, 0, 0)" stroke-linecap="square" stroke-width="4.0"/>
   <polyline fill="none" points="709,328 709,378" stroke="rgb(0, 0, 0)" stroke-linecap="square" stroke-width="4.0"/>
   <ellipse cx="279.0" cy="238.0" fill="rgb(0, 0, 0)" rx="6.0" ry="6.0" stroke="none" stroke-width="4.0"/>
   <ellipse cx="349.0" cy="648.0" fill="rgb(0, 100, 0)" rx="5.0" ry="5.0" stroke="none" stroke-width="4.0"/>
   <ellipse cx="309.0" cy="358.0" fill="rgb(0, 0, 0)" rx="6.0" ry="6.0" stroke="none" stroke-width="4.0"/>
   <ellipse cx="149.0" cy="208.0" fill="rgb(0, 0, 0)" rx="6.0" ry="6.0" stroke="none" stroke-width="4.0"/>
   <ellipse cx="569.0" cy="258.0" fill="rgb(0, 0, 0)" rx="6.0" ry="6.0" stroke="none" stroke-width="4.0"/>
   <ellipse cx="569.0" cy="288.0" fill="rgb(0, 0, 0)" rx="6.0" ry="6.0" stroke="none" stroke-width="4.0"/>
   <ellipse cx="569.0" cy="298.0" fill="rgb(0, 0, 0)" rx="6.0" ry="6.0" stroke="none" stroke-width="4.0"/>
   <ellipse cx="309.0" cy="428.0" fill="rgb(0, 0, 0)" rx="6.0" ry="6.0" stroke="none" stroke-width="4.0"/>
   <ellipse cx="649.0" cy="138.0" fill="rgb(0, 0, 0)" rx="6.0" ry="6.0" stroke="none" stroke-width="4.0"/>
   <ellipse cx="509.0" cy="128.0" fill="rgb(0, 100, 0)" rx="5.0" ry="5.0" stroke="none" stroke-width="4.0"/>
   <ellipse cx="709.0" cy="328.0" fill="rgb(0, 0, 0)" rx="6.0" ry="6.0" stroke="none" stroke-width="4.0"/>
   <ellipse cx="569.0" cy="328.0" fill="rgb(0, 0, 0)" rx="6.0" ry="6.0" stroke="none" stroke-width="4.0"/>
   <ellipse cx="709.0" cy="378.0" fill="rgb(0, 0, 0)" rx="6.0" ry="6.0" stroke="none" stroke-width="4.0"/>
   <ellipse cx="279.0" cy="398.0" fill="rgb(0, 0, 0)" rx="6.0" ry="6.0" stroke="none" stroke-width="4.0"/>
   <ellipse cx="539.0" cy="538.0" fill="rgb(0, 210, 0)" rx="5.0" ry="5.0" stroke="none" stroke-width="4.0"/>
   <ellipse cx="509.0" cy="198.0" fill="rgb(0, 100, 0)" rx="5.0" ry="5.0" stroke="none" stroke-width="4.0"/>
   <ellipse cx="309.0" cy="268.0" fill="rgb(0, 0, 0)" rx="6.0" ry="6.0" stroke="none" stroke-width="4.0"/>
   <ellipse cx="129.0" cy="228.0" fill="rgb(0, 0, 0)" rx="6.0" ry="6.0" stroke="none" stroke-width="4.0"/>
   <ellipse cx="309.0" cy="288.0" fill="rgb(0, 0, 0)" rx="6.0" ry="6.0" stroke="none" stroke-width="4.0"/>
   <ellipse cx="279.0" cy="468.0" fill="rgb(0, 0, 0)" rx="6.0" ry="6.0" stroke="none" stroke-width="4.0"/>
   <polyline fill="none" points="929,408 1059,408 1073,408" stroke="rgb(0, 100, 0)" stroke-linecap="square" stroke-width="3.0"/>
   <polyline fill="none" points="819,518 929,518 929,418 1059,418 1073,418" stroke="rgb(0, 100, 0)" stroke-linecap="square" stroke-width="3.0"/>
   <polyline fill="none" points="819,628 959,628 959,428 1059,428 1073,428" stroke="rgb(0, 210, 0)" stroke-linecap="square" stroke-width="3.0"/>
   <polyline fill="none" points="1078,418 1073,418" stroke="rgb(0, 0, 0)" stroke-linecap="square" stroke-width="5.0"/>
   <polyline fill="none" points="1073,399 1073,427" stroke="rgb(0, 0, 0)" stroke-linecap="square" stroke-width="5.0"/>
   <text fill="rgb(0, 0, 0)" font-family="SansSerif" font-size="7" x="1066.0" y="395.0">3</text>
   <text fill="rgb(0, 0, 0)" font-family="SansSerif" font-size="7" x="1066.0" y="405.0">2</text>
   <text fill="rgb(0, 0, 0)" font-family="SansSerif" font-size="7" x="1066.0" y="415.0">1</text>
   <text fill="rgb(0, 0, 0)" font-family="SansSerif" font-size="7" x="1066.0" y="425.0">0</text>
   <ellipse cx="1079.0" cy="418.0" fill="rgb(0, 0, 0)" rx="2.0" ry="2.0" stroke="none" stroke-width="5.0"/>
   <ellipse cx="1059.0" cy="398.0" fill="rgb(0, 210, 0)" rx="2.0" ry="2.0" stroke="none" stroke-width="5.0"/>
   <ellipse cx="1059.0" cy="408.0" fill="rgb(0, 100, 0)" rx="2.0" ry="2.0" stroke="none" stroke-width="5.0"/>
   <ellipse cx="1059.0" cy="418.0" fill="rgb(0, 100, 0)" rx="2.0" ry="2.0" stroke="none" stroke-width="5.0"/>
   <ellipse cx="1059.0" cy="428.0" fill="rgb(0, 210, 0)" rx="2.0" ry="2.0" stroke="none" stroke-width="5.0"/>
   <polyline fill="none" points="1113,328 1112,328" stroke="rgb(0, 0, 0)" stroke-linecap="square" stroke-width="4.0"/>
   <polygon fill="none" points="1189,319 1199,328 1189,337 1115,337 1115,319" stroke="rgb(0, 0, 0)" stroke-linecap="square" stroke-width="2.0"/>
   <text fill="rgb(0, 0, 255)" font-family="Monospaced" font-size="12" x="1184.0" y="335.0">h</text>
   <text fill="rgb(0, 0, 0)" font-family="Monospaced" font-size="12" x="1177.0" y="333.0">0</text>
   <text fill="rgb(0, 0, 0)" font-family="Monospaced" font-size="12" x="1169.0" y="333.0">0</text>
   <text fill="rgb(0, 0, 0)" font-family="Monospaced" font-size="12" x="1161.0" y="333.0">0</text>
   <text fill="rgb(0, 0, 0)" font-family="Monospaced" font-size="12" x="1153.0" y="333.0">0</text>
   <text fill="rgb(0, 0, 0)" font-family="Monospaced" font-size="12" x="1145.0" y="333.0">0</text>
   <text fill="rgb(0, 0, 0)" font-family="Monospaced" font-size="12" x="1137.0" y="333.0">0</text>
   <text fill="rgb(0, 0, 0)" font-family="Monospaced" font-size="12" x="1129.0" y="333.0">0</text>
   <text fill="rgb(0, 0, 0)" font-family="Monospaced" font-size="12" x="1121.0" y="333.0">8</text>
   <text fill="rgb(0, 0, 255)" font-family="Monospaced" font-size="16" font-weight="bold" x="1201.0" y="336.0">Result</text>
   <ellipse cx="1109.0" cy="328.0" fill="rgb(0, 0, 0)" rx="2.0" ry="2.0" stroke="none" stroke-width="2.0"/>
   <polyline fill="none" points="1113,418 1112,418" stroke="rgb(0, 0, 0)" stroke-linecap="square" stroke-width="4.0"/>
   <polygon fill="none" points="1169,409 1179,418 1169,427 1115,427 1115,409" stroke="rgb(0, 0, 0)" stroke-linecap="square" stroke-width="2.0"/>
   <text fill="rgb(0, 0, 255)" font-family="Monospaced" font-size="12" x="1164.0" y="425.0">b</text>
   <text fill="rgb(0, 0, 0)" font-family="Monospaced" font-size="12" x="1156.0" y="422.0">1</text>
   <text fill="rgb(0, 0, 0)" font-family="Monospaced" font-size="12" x="1146.0" y="422.0">0</text>
   <text fill="rgb(0, 0, 0)" font-family="Monospaced" font-size="12" x="1136.0" y="422.0">0</text>
   <text fill="rgb(0, 0, 0)" font-family="Monospaced" font-size="12" x="1126.0" y="422.0">1</text>
   <text fill="rgb(0, 0, 255)" font-family="Monospaced" font-size="16" font-weight="bold" x="1181.0" y="426.0">ALUFlags</text>
   <ellipse cx="1109.0" cy="418.0" fill="rgb(0, 0, 0)" rx="2.0" ry="2.0" stroke="none" stroke-width="2.0"/>
   <rect fill="rgb(230, 230, 230)" height="16" stroke="none" stroke-linecap="square" stroke-width="1.0" width="63" x="26" y="190"/>
   <text fill="rgb(0, 0, 0)" font-family="Monospaced" font-size="12" x="29.0" y="203.0">00000000</text>
   <ellipse cx="89.0" cy="198.0" fill="rgb(0, 0, 0)" rx="2.0" ry="2.0" stroke="none" stroke-width="1.0"/>
   <polyline fill="none" points="106,228 109,228 129,228" stroke="rgb(0, 0, 0)" stroke-linecap="square" stroke-width="4.0"/>
   <polygon fill="none" points="94,237 104,228 94,219 20,219 20,237" stroke="rgb(0, 0, 0)" stroke-linecap="square" stroke-width="2.0"/>
   <text fill="rgb(0, 0, 255)" font-family="Monospaced" font-size="12" x="89.0" y="235.0">h</text>
   <text fill="rgb(0, 0, 0)" font-family="Monospaced" font-size="12" x="82.0" y="233.0">0</text>
   <text fill="rgb(0, 0, 0)" font-family="Monospaced" font-size="12" x="74.0" y="233.0">0</text>
   <text fill="rgb(0, 0, 0)" font-family="Monospaced" font-size="12" x="66.0" y="233.0">0</text>
   <text fill="rgb(0, 0, 0)" font-family="Monospaced" font-size="12" x="58.0" y="233.0">0</text>
   <text fill="rgb(0, 0, 0)" font-family="Monospaced" font-size="12" x="50.0" y="233.0">0</text>
   <text fill="rgb(0, 0, 0)" font-family="Monospaced" font-size="12" x="42.0" y="233.0">0</text>
   <text fill="rgb(0, 0, 0)" font-family="Monospaced" font-size="12" x="34.0" y="233.0">0</text>
   <text fill="rgb(0, 0, 0)" font-family="Monospaced" font-size="12" x="26.0" y="233.0">3</text>
   <text fill="rgb(0, 0, 255)" font-family="Monospaced" font-size="16" font-weight="bold" x="5.0" y="236.0">A</text>
   <ellipse cx="109.0" cy="228.0" fill="rgb(0, 0, 0)" rx="2.0" ry="2.0" stroke="none" stroke-width="2.0"/>
   <polyline fill="none" points="106,268 109,268 309,268" stroke="rgb(0, 0, 0)" stroke-linecap="square" stroke-width="4.0"/>
   <polygon fill="none" points="94,277 104,268 94,259 20,259 20,277" stroke="rgb(0, 0, 0)" stroke-linecap="square" stroke-width="2.0"/>
   <text fill="rgb(0, 0, 255)" font-family="Monospaced" font-size="12" x="89.0" y="275.0">h</text>
   <text fill="rgb(0, 0, 0)" font-family="Monospaced" font-size="12" x="82.0" y="273.0">0</text>
   <text fill="rgb(0, 0, 0)" font-family="Monospaced" font-size="12" x="74.0" y="273.0">0</text>
   <text fill="rgb(0, 0, 0)" font-family="Monospaced" font-size="12" x="66.0" y="273.0">0</text>
   <text fill="rgb(0, 0, 0)" font-family="Monospaced" font-size="12" x="58.0" y="273.0">0</text>
   <text fill="rgb(0, 0, 0)" font-family="Monospaced" font-size="12" x="50.0" y="273.0">0</text>
   <text fill="rgb(0, 0, 0)" font-family="Monospaced" font-size="12" x="42.0" y="273.0">0</text>
   <text fill="rgb(0, 0, 0)" font-family="Monospaced" font-size="12" x="34.0" y="273.0">0</text>
   <text fill="rgb(0, 0, 0)" font-family="Monospaced" font-size="12" x="26.0" y="273.0">5</text>
   <text fill="rgb(0, 0, 255)" font-family="Monospaced" font-size="16" font-weight="bold" x="6.0" y="276.0">B</text>
   <ellipse cx="109.0" cy="268.0" fill="rgb(0, 0, 0)" rx="2.0" ry="2.0" stroke="none" stroke-width="2.0"/>
   <text fill="rgb(0, 0, 0)" font-family="SansSerif" font-size="16" font-weight="bold" x="195.0" y="754.0">ALUControl0</text>
   <polygon fill="none" points="192,735 296,735 296,738 300,748 296,758 296,762 192,762" stroke="rgb(0, 0, 0)" stroke-linecap="square" stroke-width="2.0"/>
   <ellipse cx="299.0" cy="748.0" fill="rgb(0, 100, 0)" rx="2.0" ry="2.0" stroke="none" stroke-width="2.0"/>
   <polyline fill="none" points="320,728 325,728" stroke="rgb(0, 0, 0)" stroke-linecap="square" stroke-width="5.0"/>
   <ellipse cx="325.0" cy="727.0" fill="rgb(0, 0, 0)" rx="3.5" ry="3.5" stroke="none" stroke-width="5.0"/>
   <text fill="rgb(0, 0, 0)" font-family="SansSerif" font-size="7" x="328.0" y="725.0">31</text>
   <ellipse cx="319.0" cy="728.0" fill="rgb(0, 0, 0)" rx="2.0" ry="2.0" stroke="none" stroke-width="5.0"/>
   <ellipse cx="339.0" cy="728.0" fill="rgb(0, 100, 0)" rx="2.0" ry="2.0" stroke="none" stroke-width="5.0"/>
   <polyline fill="none" points="349,648 335,648" stroke="rgb(0, 100, 0)" stroke-linecap="square" stroke-width="3.0"/>
   <polyline fill="none" points="330,648 335,648" stroke="rgb(0, 0, 0)" stroke-linecap="square" stroke-width="5.0"/>
   <ellipse cx="335.0" cy="647.0" fill="rgb(0, 0, 0)" rx="3.5" ry="3.5" stroke="none" stroke-width="5.0"/>
   <text fill="rgb(0, 0, 0)" font-family="SansSerif" font-size="7" x="338.0" y="645.0">31</text>
   <ellipse cx="329.0" cy="648.0" fill="rgb(0, 0, 0)" rx="2.0" ry="2.0" stroke="none" stroke-width="5.0"/>
   <ellipse cx="349.0" cy="648.0" fill="rgb(0, 100, 0)" rx="2.0" ry="2.0" stroke="none" stroke-width="5.0"/>
   <text fill="rgb(0, 0, 0)" font-family="SansSerif" font-size="16" font-weight="bold" x="342.0" y="614.0">Sum31</text>
   <polygon fill="none" points="339,595 396,595 396,598 400,608 396,618 396,622 339,622" stroke="rgb(0, 0, 0)" stroke-linecap="square" stroke-width="2.0"/>
   <ellipse cx="399.0" cy="608.0" fill="rgb(0, 210, 0)" rx="2.0" ry="2.0" stroke="none" stroke-width="2.0"/>
   <text fill="rgb(0, 0, 0)" font-family="SansSerif" font-size="16" font-weight="bold" x="355.0" y="104.0">ALUControl0</text>
   <polygon fill="none" points="352,85 456,85 456,88 460,98 456,108 456,112 352,112" stroke="rgb(0, 0, 0)" stroke-linecap="square" stroke-width="2.0"/>
   <ellipse cx="459.0" cy="98.0" fill="rgb(0, 100, 0)" rx="2.0" ry="2.0" stroke="none" stroke-width="2.0"/>
   <text fill="rgb(0, 0, 0)" font-family="SansSerif" font-size="16" font-weight="bold" x="355.0" y="144.0">ALUControl1</text>
   <polygon fill="none" points="352,125 456,125 456,128 460,138 456,148 456,152 352,152" stroke="rgb(0, 0, 0)" stroke-linecap="square" stroke-width="2.0"/>
   <ellipse cx="459.0" cy="138.0" fill="rgb(0, 100, 0)" rx="2.0" ry="2.0" stroke="none" stroke-width="2.0"/>
   <text fill="rgb(0, 0, 0)" font-family="SansSerif" font-size="16" font-weight="bold" x="365.0" y="544.0">ALUControl1</text>
   <polygon fill="none" points="362,525 466,525 466,528 470,538 466,548 466,552 362,552" stroke="rgb(0, 0, 0)" stroke-linecap="square" stroke-width="2.0"/>
   <ellipse cx="469.0" cy="538.0" fill="rgb(0, 100, 0)" rx="2.0" ry="2.0" stroke="none" stroke-width="2.0"/>
   <text fill="rgb(0, 0, 0)" font-family="SansSerif" font-size="16" font-weight="bold" x="543.0" y="208.0">Sum31</text>
   <polygon fill="none" points="540,189 598,189 598,215 579,215 569,219 559,215 540,215" stroke="rgb(0, 0, 0)" stroke-linecap="square" stroke-width="2.0"/>
   <ellipse cx="569.0" cy="218.0" fill="rgb(0, 210, 0)" rx="2.0" ry="2.0" stroke="none" stroke-width="2.0"/>
   <polyline fill="none" points="569,218 569,228 569,242" stroke="rgb(0, 210, 0)" stroke-linecap="square" stroke-width="3.0"/>
   <polyline fill="none" points="569,247 569,242" stroke="rgb(0, 0, 0)" stroke-linecap="square" stroke-width="5.0"/>
   <ellipse cx="568.0" cy="242.0" fill="rgb(0, 0, 0)" rx="3.5" ry="3.5" stroke="none" stroke-width="5.0"/>
   <text fill="rgb(0, 0, 0)" font-family="SansSerif" font-size="7" transform="rotate(90.0,572.0,231.0)" x="572.0" y="231.0">31</text>
   <ellipse cx="569.0" cy="248.0" fill="rgb(0, 0, 0)" rx="2.0" ry="2.0" stroke="none" stroke-width="5.0"/>
   <ellipse cx="569.0" cy="228.0" fill="rgb(0, 210, 0)" rx="2.0" ry="2.0" stroke="none" stroke-width="5.0"/>
   <polyline fill="none" points="509,128 579,128 593,128" stroke="rgb(0, 100, 0)" stroke-linecap="square" stroke-width="3.0"/>
   <polyline fill="none" points="459,138 579,138 593,138" stroke="rgb(0, 100, 0)" stroke-linecap="square" stroke-width="3.0"/>
   <polyline fill="none" points="598,138 593,138" stroke="rgb(0, 0, 0)" stroke-linecap="square" stroke-width="5.0"/>
   <polyline fill="none" points="593,129 593,147" stroke="rgb(0, 0, 0)" stroke-linecap="square" stroke-width="5.0"/>
   <text fill="rgb(0, 0, 0)" font-family="SansSerif" font-size="7" x="586.0" y="125.0">0</text>
   <text fill="rgb(0, 0, 0)" font-family="SansSerif" font-size="7" x="586.0" y="135.0">1</text>
   <text fill="rgb(0, 0, 0)" font-family="SansSerif" font-size="7" x="586.0" y="145.0">2</text>
   <ellipse cx="599.0" cy="138.0" fill="rgb(0, 0, 0)" rx="2.0" ry="2.0" stroke="none" stroke-width="5.0"/>
   <ellipse cx="579.0" cy="128.0" fill="rgb(0, 100, 0)" rx="2.0" ry="2.0" stroke="none" stroke-width="5.0"/>
   <ellipse cx="579.0" cy="138.0" fill="rgb(0, 100, 0)" rx="2.0" ry="2.0" stroke="none" stroke-width="5.0"/>
   <ellipse cx="579.0" cy="148.0" fill="rgb(0, 210, 0)" rx="2.0" ry="2.0" stroke="none" stroke-width="5.0"/>
   <polyline fill="none" points="649,85 649,88 649,138" stroke="rgb(0, 0, 0)" stroke-linecap="square" stroke-width="4.0"/>
   <polygon fill="none" points="640,73 649,83 658,73 658,29 640,29" stroke="rgb(0, 0, 0)" stroke-linecap="square" stroke-width="2.0"/>
   <text fill="rgb(0, 0, 255)" font-family="Monospaced" font-size="12" transform="rotate(90.0,642.0,68.0)" x="642.0" y="68.0">b</text>
   <ellipse fill="rgb(0, 100, 0)" rx="4.5" ry="7.0" stroke="none" stroke-width="2.0" transform="translate(650.0 63.0) rotate(90)"/>
   <text fill="rgb(255, 255, 255)" font-family="Monospaced" font-size="12" transform="rotate(90.0,645.0,60.0)" x="645.0" y="60.0">0</text>
   <ellipse fill="rgb(0, 100, 0)" rx="4.5" ry="7.0" stroke="none" stroke-width="2.0" transform="translate(650.0 53.0) rotate(90)"/>
   <text fill="rgb(255, 255, 255)" font-family="Monospaced" font-size="12" transform="rotate(90.0,645.0,50.0)" x="645.0" y="50.0">0</text>
   <ellipse fill="rgb(0, 210, 0)" rx="4.5" ry="7.0" stroke="none" stroke-width="2.0" transform="translate(650.0 43.0) rotate(90)"/>
   <text fill="rgb(255, 255, 255)" font-family="Monospaced" font-size="12" transform="rotate(90.0,645.0,40.0)" x="645.0" y="40.0">1</text>
   <text fill="rgb(0, 0, 255)" font-family="Monospaced" font-size="16" font-weight="bold" x="604.0" y="22.0">ALUControl</text>
   <ellipse cx="649.0" cy="88.0" fill="rgb(0, 0, 0)" rx="2.0" ry="2.0" stroke="none" stroke-width="2.0"/>
   <polyline fill="none" points="1073,398 1059,398 1059,378 739,378 725,378" stroke="rgb(0, 210, 0)" stroke-linecap="square" stroke-width="3.0"/>
   <polyline fill="none" points="720,378 725,378" stroke="rgb(0, 0, 0)" stroke-linecap="square" stroke-width="5.0"/>
   <ellipse cx="725.0" cy="377.0" fill="rgb(0, 0, 0)" rx="3.5" ry="3.5" stroke="none" stroke-width="5.0"/>
   <text fill="rgb(0, 0, 0)" font-family="SansSerif" font-size="7" x="728.0" y="375.0">31</text>
   <ellipse cx="719.0" cy="378.0" fill="rgb(0, 0, 0)" rx="2.0" ry="2.0" stroke="none" stroke-width="5.0"/>
   <ellipse cx="739.0" cy="378.0" fill="rgb(0, 210, 0)" rx="2.0" ry="2.0" stroke="none" stroke-width="5.0"/>
   <polygon fill="none" points="369,288 350,281 350,295" stroke="rgb(0, 0, 0)" stroke-linecap="square" stroke-width="2.0"/>
   <ellipse cx="374.0" cy="288.0" fill="none" rx="4.5" ry="4.5" stroke="rgb(0, 0, 0)" stroke-width="2.0"/>
   <ellipse cx="379.0" cy="288.0" fill="rgb(0, 0, 0)" rx="2.0" ry="2.0" stroke="none" stroke-width="2.0"/>
   <ellipse cx="349.0" cy="288.0" fill="rgb(0, 0, 0)" rx="2.0" ry="2.0" stroke="none" stroke-width="2.0"/>
   <path d="M434.0,403.0 A25.0,25.0 90.0 0,0 434.0,353.0" fill="none" stroke="rgb(0, 0, 0)" stroke-width="2.0"/>
   <polyline fill="none" points="434,353 410,353 410,403 434,403" stroke="rgb(0, 0, 0)" stroke-linecap="square" stroke-width="2.0"/>
   <ellipse cx="459.0" cy="378.0" fill="rgb(0, 0, 0)" rx="2.0" ry="2.0" stroke="none" stroke-width="2.0"/>
   <ellipse cx="409.0" cy="358.0" fill="rgb(0, 0, 0)" rx="2.0" ry="2.0" stroke="none" stroke-width="2.0"/>
   <ellipse cx="409.0" cy="398.0" fill="rgb(0, 0, 0)" rx="2.0" ry="2.0" stroke="none" stroke-width="2.0"/>
   <polyline fill="none" points="409,428 409,428" stroke="rgb(0, 0, 0)" stroke-linecap="square" stroke-width="3.0"/>
   <polyline fill="none" points="409,468 409,468" stroke="rgb(0, 0, 0)" stroke-linecap="square" stroke-width="3.0"/>
   <path d=" M459.0,448.0 C439.0,423.0 439.0,423.0 409.0,423.0 C422.0,448.0 422.0,448.0 409.0,473.0 C439.0,473.0 439.0,473.0 459.0,448.0 Z" fill="none" stroke="rgb(0, 0, 0)" stroke-linecap="square" stroke-width="2.0"/>
   <ellipse cx="459.0" cy="448.0" fill="rgb(0, 0, 0)" rx="2.0" ry="2.0" stroke="none" stroke-width="2.0"/>
   <ellipse cx="409.0" cy="428.0" fill="rgb(0, 0, 0)" rx="2.0" ry="2.0" stroke="none" stroke-width="2.0"/>
   <ellipse cx="409.0" cy="468.0" fill="rgb(0, 0, 0)" rx="2.0" ry="2.0" stroke="none" stroke-width="2.0"/>
   <polyline fill="none" points="399,608 419,608 419,608" stroke="rgb(0, 210, 0)" stroke-linecap="square" stroke-width="3.0"/>
   <path d=" M479.0,628.0 C459.0,603.0 459.0,603.0 429.0,603.0 C442.0,628.0 442.0,628.0 429.0,653.0 C459.0,653.0 459.0,653.0 479.0,628.0 Z" fill="none" stroke="rgb(0, 0, 0)" stroke-linecap="square" stroke-width="2.0"/>
   <path d=" M419.0,603.0 C432.0,628.0 432.0,628.0 419.0,653.0" fill="none" stroke="rgb(0, 0, 0)" stroke-linecap="square" stroke-width="2.0"/>
   <ellipse cx="479.0" cy="628.0" fill="rgb(0, 210, 0)" rx="2.0" ry="2.0" stroke="none" stroke-width="2.0"/>
   <ellipse cx="419.0" cy="608.0" fill="rgb(0, 210, 0)" rx="2.0" ry="2.0" stroke="none" stroke-width="2.0"/>
   <ellipse cx="419.0" cy="648.0" fill="rgb(0, 100, 0)" rx="2.0" ry="2.0" stroke="none" stroke-width="2.0"/>
   <polyline fill="none" points="419,648 419,648 349,648 349,708 419,708 419,708" stroke="rgb(0, 100, 0)" stroke-linecap="square" stroke-width="3.0"/>
   <polyline fill="none" points="325,728 339,728 419,728 424,728" stroke="rgb(0, 100, 0)" stroke-linecap="square" stroke-width="3.0"/>
   <polyline fill="none" points="299,748 419,748 419,748" stroke="rgb(0, 100, 0)" stroke-linecap="square" stroke-width="3.0"/>
   <path d=" M479.0,728.0 C459.0,703.0 459.0,703.0 429.0,703.0 C442.0,728.0 442.0,728.0 429.0,753.0 C459.0,753.0 459.0,753.0 479.0,728.0 Z" fill="none" stroke="rgb(0, 0, 0)" stroke-linecap="square" stroke-width="2.0"/>
   <path d=" M419.0,703.0 C432.0,728.0 432.0,728.0 419.0,753.0" fill="none" stroke="rgb(0, 0, 0)" stroke-linecap="square" stroke-width="2.0"/>
   <ellipse cx="484.0" cy="728.0" fill="none" rx="4.5" ry="4.5" stroke="rgb(0, 0, 0)" stroke-width="2.0"/>
   <ellipse cx="489.0" cy="728.0" fill="rgb(0, 210, 0)" rx="2.0" ry="2.0" stroke="none" stroke-width="2.0"/>
   <ellipse cx="419.0" cy="708.0" fill="rgb(0, 100, 0)" rx="2.0" ry="2.0" stroke="none" stroke-width="2.0"/>
   <ellipse cx="419.0" cy="728.0" fill="rgb(0, 100, 0)" rx="2.0" ry="2.0" stroke="none" stroke-width="2.0"/>
   <ellipse cx="419.0" cy="748.0" fill="rgb(0, 100, 0)" rx="2.0" ry="2.0" stroke="none" stroke-width="2.0"/>
   <polygon fill="none" points="509,538 490,531 490,545" stroke="rgb(0, 0, 0)" stroke-linecap="square" stroke-width="2.0"/>
   <ellipse cx="514.0" cy="538.0" fill="none" rx="4.5" ry="4.5" stroke="rgb(0, 0, 0)" stroke-width="2.0"/>
   <ellipse cx="519.0" cy="538.0" fill="rgb(0, 210, 0)" rx="2.0" ry="2.0" stroke="none" stroke-width="2.0"/>
   <ellipse cx="489.0" cy="538.0" fill="rgb(0, 100, 0)" rx="2.0" ry="2.0" stroke="none" stroke-width="2.0"/>
   <path d="M794.0,543.0 A25.0,25.0 90.0 0,0 794.0,493.0" fill="none" stroke="rgb(0, 0, 0)" stroke-width="2.0"/>
   <polyline fill="none" points="794,493 770,493 770,543 794,543" stroke="rgb(0, 0, 0)" stroke-linecap="square" stroke-width="2.0"/>
   <ellipse cx="819.0" cy="518.0" fill="rgb(0, 100, 0)" rx="2.0" ry="2.0" stroke="none" stroke-width="2.0"/>
   <ellipse cx="769.0" cy="498.0" fill="rgb(0, 100, 0)" rx="2.0" ry="2.0" stroke="none" stroke-width="2.0"/>
   <ellipse cx="769.0" cy="538.0" fill="rgb(0, 210, 0)" rx="2.0" ry="2.0" stroke="none" stroke-width="2.0"/>
   <path d="M794.0,653.0 A25.0,25.0 90.0 0,0 794.0,603.0" fill="none" stroke="rgb(0, 0, 0)" stroke-width="2.0"/>
   <polyline fill="none" points="794,603 770,603 770,653 794,653" stroke="rgb(0, 0, 0)" stroke-linecap="square" stroke-width="2.0"/>
   <ellipse cx="819.0" cy="628.0" fill="rgb(0, 210, 0)" rx="2.0" ry="2.0" stroke="none" stroke-width="2.0"/>
   <ellipse cx="769.0" cy="608.0" fill="rgb(0, 210, 0)" rx="2.0" ry="2.0" stroke="none" stroke-width="2.0"/>
   <ellipse cx="769.0" cy="628.0" fill="rgb(0, 210, 0)" rx="2.0" ry="2.0" stroke="none" stroke-width="2.0"/>
   <ellipse cx="769.0" cy="648.0" fill="rgb(0, 210, 0)" rx="2.0" ry="2.0" stroke="none" stroke-width="2.0"/>
   <polyline fill="none" points="199,202 199,198 199,178 579,178 579,148 593,148" stroke="rgb(0, 210, 0)" stroke-linecap="square" stroke-width="3.0"/>
   <ellipse cx="199.0" cy="203.0" fill="rgb(192, 192, 192)" rx="3.0" ry="3.0" stroke="none" stroke-width="1.0"/>
   <text fill="rgb(128, 128, 128)" font-family="SansSerif" font-size="12" x="192.0" y="213.0">0</text>
   <polygon fill="none" points="189,198 219,208 219,228 189,238" stroke="rgb(0, 0, 0)" stroke-linecap="square" stroke-width="2.0"/>
   <text fill="rgb(0, 0, 0)" font-family="SansSerif" font-size="12" x="192.0" y="225.0">MUX</text>
   <ellipse cx="189.0" cy="208.0" fill="rgb(0, 0, 0)" rx="2.0" ry="2.0" stroke="none" stroke-width="2.0"/>
   <ellipse cx="189.0" cy="228.0" fill="rgb(0, 0, 0)" rx="2.0" ry="2.0" stroke="none" stroke-width="2.0"/>
   <ellipse cx="199.0" cy="198.0" fill="rgb(0, 210, 0)" rx="2.0" ry="2.0" stroke="none" stroke-width="2.0"/>
   <ellipse cx="219.0" cy="218.0" fill="rgb(0, 0, 0)" rx="2.0" ry="2.0" stroke="none" stroke-width="2.0"/>
   <polyline fill="none" points="419,262 419,258 419,198 509,198" stroke="rgb(0, 100, 0)" stroke-linecap="square" stroke-width="3.0"/>
   <ellipse cx="419.0" cy="263.0" fill="rgb(192, 192, 192)" rx="3.0" ry="3.0" stroke="none" stroke-width="1.0"/>
   <text fill="rgb(128, 128, 128)" font-family="SansSerif" font-size="12" x="412.0" y="273.0">0</text>
   <polygon fill="none" points="409,258 439,268 439,288 409,298" stroke="rgb(0, 0, 0)" stroke-linecap="square" stroke-width="2.0"/>
   <text fill="rgb(0, 0, 0)" font-family="SansSerif" font-size="12" x="412.0" y="285.0">MUX</text>
   <ellipse cx="409.0" cy="268.0" fill="rgb(0, 0, 0)" rx="2.0" ry="2.0" stroke="none" stroke-width="2.0"/>
   <ellipse cx="409.0" cy="288.0" fill="rgb(0, 0, 0)" rx="2.0" ry="2.0" stroke="none" stroke-width="2.0"/>
   <ellipse cx="419.0" cy="258.0" fill="rgb(0, 100, 0)" rx="2.0" ry="2.0" stroke="none" stroke-width="2.0"/>
   <ellipse cx="439.0" cy="278.0" fill="rgb(0, 0, 0)" rx="2.0" ry="2.0" stroke="none" stroke-width="2.0"/>
   <ellipse cx="649.0" cy="293.0" fill="rgb(192, 192, 192)" rx="3.0" ry="3.0" stroke="none" stroke-width="1.0"/>
   <text fill="rgb(128, 128, 128)" font-family="SansSerif" font-size="12" x="632.0" y="293.0">0</text>
   <polygon fill="none" points="629,278 669,298 669,358 629,378" stroke="rgb(0, 0, 0)" stroke-linecap="square" stroke-width="2.0"/>
   <text fill="rgb(0, 0, 0)" font-family="SansSerif" font-size="12" x="637.0" y="335.0">MUX</text>
   <ellipse cx="629.0" cy="288.0" fill="rgb(0, 0, 0)" rx="2.0" ry="2.0" stroke="none" stroke-width="2.0"/>
   <ellipse cx="629.0" cy="298.0" fill="rgb(0, 0, 0)" rx="2.0" ry="2.0" stroke="none" stroke-width="2.0"/>
   <ellipse cx="629.0" cy="308.0" fill="rgb(0, 0, 0)" rx="2.0" ry="2.0" stroke="none" stroke-width="2.0"/>
   <ellipse cx="629.0" cy="318.0" fill="rgb(0, 0, 0)" rx="2.0" ry="2.0" stroke="none" stroke-width="2.0"/>
   <ellipse cx="629.0" cy="328.0" fill="rgb(0, 0, 0)" rx="2.0" ry="2.0" stroke="none" stroke-width="2.0"/>
   <ellipse cx="629.0" cy="338.0" fill="rgb(0, 0, 0)" rx="2.0" ry="2.0" stroke="none" stroke-width="2.0"/>
   <ellipse cx="629.0" cy="348.0" fill="rgb(0, 0, 0)" rx="2.0" ry="2.0" stroke="none" stroke-width="2.0"/>
   <ellipse cx="629.0" cy="358.0" fill="rgb(0, 0, 0)" rx="2.0" ry="2.0" stroke="none" stroke-width="2.0"/>
   <ellipse cx="649.0" cy="288.0" fill="rgb(0, 0, 0)" rx="2.0" ry="2.0" stroke="none" stroke-width="2.0"/>
   <ellipse cx="669.0" cy="328.0" fill="rgb(0, 0, 0)" rx="2.0" ry="2.0" stroke="none" stroke-width="2.0"/>
   <text fill="rgb(0, 0, 0)" font-family="SansSerif" font-size="16" font-weight="bold" x="843.0" y="508.0">Carry</text>
   <text fill="rgb(0, 0, 0)" font-family="SansSerif" font-size="16" font-weight="bold" x="836.0" y="368.0">Negative</text>
   <text fill="rgb(0, 0, 0)" font-family="SansSerif" font-size="16" font-weight="bold" x="835.0" y="608.0">oVerflow</text>
   <text fill="rgb(0, 0, 0)" font-family="SansSerif" font-size="16" font-weight="bold" x="848.0" y="53.0">100 A + B</text>
   <text fill="rgb(0, 0, 0)" font-family="SansSerif" font-size="16" font-weight="bold" x="850.0" y="73.0">101 A - B</text>
   <text fill="rgb(0, 0, 0)" font-family="SansSerif" font-size="16" font-weight="bold" x="851.0" y="113.0">111 A | B</text>
   <text fill="rgb(0, 0, 0)" font-family="SansSerif" font-size="16" font-weight="bold" x="852.0" y="93.0">110 A &amp; B</text>
   <text fill="rgb(0, 0, 0)" font-family="SansSerif" font-size="16" font-weight="bold" x="982.0" y="403.0">Zero</text>
   <text fill="rgb(0, 0, 0)" font-family="SansSerif" font-size="16" font-weight="bold" x="1118.0" y="398.0">NZCV</text>
   <text fill="rgb(0, 0, 0)" font-family="SansSerif" font-size="16" font-weight="bold" x="758.0" y="113.0">011 A</text>
   <text fill="rgb(0, 0, 0)" font-family="SansSerif" font-size="16" font-weight="bold" x="763.0" y="53.0">000 B</text>
   <text fill="rgb(0, 0, 0)" font-family="SansSerif" font-size="16" font-weight="bold" x="760.0" y="73.0">001 -B</text>
   <text fill="rgb(0, 0, 0)" font-family="SansSerif" font-size="16" font-weight="bold" x="764.0" y="93.0">010 0</text>
   <rect fill="rgb(0, 0, 0)" height="4" stroke="none" stroke-linecap="square" stroke-width="1.0" width="10" x="709" y="406"/>
   <text fill="rgb(64, 64, 64)" font-family="Dialog" font-size="12" x="724.0" y="412.0">A</text>
   <rect fill="rgb(0, 0, 0)" height="3" stroke="none" stroke-linecap="square" stroke-width="1.0" width="10" x="919" y="407"/>
   <text fill="rgb(64, 64, 64)" font-family="Dialog" font-size="12" x="906.0" y="412.0">B</text>
   <rect fill="rgb(0, 0, 0)" height="20" stroke="none" stroke-linecap="square" stroke-width="1.0" width="200" x="719" y="418"/>
   <polyline fill="none" points="719,398 918,398" stroke="rgb(0, 0, 0)" stroke-linecap="square" stroke-width="2.0"/>
   <polyline fill="none" points="919,398 919,437" stroke="rgb(0, 0, 0)" stroke-linecap="square" stroke-width="2.0"/>
   <polyline fill="none" points="919,438 720,438" stroke="rgb(0, 0, 0)" stroke-linecap="square" stroke-width="2.0"/>
   <polyline fill="none" points="719,438 719,399" stroke="rgb(0, 0, 0)" stroke-linecap="square" stroke-width="2.0"/>
   <text fill="rgb(255, 255, 255)" font-family="Dialog" font-size="14" font-weight="bold" x="754.0" y="432.0">Zero_Detect_32_bit</text>
   <ellipse cx="709.0" cy="408.0" fill="rgb(0, 0, 0)" rx="2.0" ry="2.0" stroke="none" stroke-width="1.0"/>
   <ellipse cx="929.0" cy="408.0" fill="rgb(0, 100, 0)" rx="2.0" ry="2.0" stroke="none" stroke-width="1.0"/>
   <polyline fill="none" points="479,228 538,228" stroke="rgb(0, 0, 0)" stroke-linecap="square" stroke-width="1.0"/>
   <polyline fill="none" points="539,228 539,287" stroke="rgb(0, 0, 0)" stroke-linecap="square" stroke-width="1.0"/>
   <polyline fill="none" points="539,288 480,288" stroke="rgb(0, 0, 0)" stroke-linecap="square" stroke-width="1.0"/>
   <polyline fill="none" points="479,288 479,229" stroke="rgb(0, 0, 0)" stroke-linecap="square" stroke-width="1.0"/>
   <text fill="rgb(0, 0, 0)" font-family="SansSerif" font-size="12" x="505.0" y="262.0">+</text>
   <text fill="rgb(0, 0, 0)" font-family="SansSerif" font-size="12" x="501.0" y="243.0">cin</text>
   <text fill="rgb(0, 0, 0)" font-family="SansSerif" font-size="12" x="497.0" y="281.0">cout</text>
   <text fill="rgb(0, 0, 0)" font-family="SansSerif" font-size="12" x="524.0" y="262.0">S</text>
   <text fill="rgb(0, 0, 0)" font-family="SansSerif" font-size="12" x="484.0" y="247.0">A</text>
   <text fill="rgb(0, 0, 0)" font-family="SansSerif" font-size="12" x="484.0" y="278.0">B</text>
   <ellipse cx="479.0" cy="238.0" fill="rgb(0, 0, 0)" rx="2.0" ry="2.0" stroke="none" stroke-width="1.0"/>
   <ellipse cx="479.0" cy="278.0" fill="rgb(0, 0, 0)" rx="2.0" ry="2.0" stroke="none" stroke-width="1.0"/>
   <ellipse cx="509.0" cy="228.0" fill="rgb(0, 100, 0)" rx="2.0" ry="2.0" stroke="none" stroke-width="1.0"/>
   <ellipse cx="509.0" cy="288.0" fill="rgb(0, 100, 0)" rx="2.0" ry="2.0" stroke="none" stroke-width="1.0"/>
   <ellipse cx="539.0" cy="258.0" fill="rgb(0, 0, 0)" rx="2.0" ry="2.0" stroke="none" stroke-width="1.0"/>
</svg>
