<?xml version="1.0" encoding="UTF-8" standalone="no"?>
<svg xmlns="http://www.w3.org/2000/svg" version="1.1" viewBox="0 0 1028 462">
   <polyline fill="none" points="209,326 259,326" stroke="rgb(0, 0, 1)" stroke-linecap="square" stroke-width="4.0"/>
   <polyline fill="none" points="209,346 259,346" stroke="rgb(0, 0, 1)" stroke-linecap="square" stroke-width="4.0"/>
   <polyline fill="none" points="599,266 619,266 619,256" stroke="rgb(0, 0, 1)" stroke-linecap="square" stroke-width="4.0"/>
   <polyline fill="none" points="289,336 309,336 309,326" stroke="rgb(0, 0, 1)" stroke-linecap="square" stroke-width="4.0"/>
   <polyline fill="none" points="179,216 189,216" stroke="rgb(0, 0, 1)" stroke-linecap="square" stroke-width="4.0"/>
   <polyline fill="none" points="189,196 179,196 179,216 179,256 179,276 189,276" stroke="rgb(0, 0, 1)" stroke-linecap="square" stroke-width="4.0"/>
   <polyline fill="none" points="619,196 619,206 689,206" stroke="rgb(0, 0, 1)" stroke-linecap="square" stroke-width="4.0"/>
   <polyline fill="none" points="619,266 689,266" stroke="rgb(0, 0, 1)" stroke-linecap="square" stroke-width="4.0"/>
   <polyline fill="none" points="709,126 719,126 719,196" stroke="rgb(0, 0, 1)" stroke-linecap="square" stroke-width="4.0"/>
   <polyline fill="none" points="339,156 419,156 419,216 429,216" stroke="rgb(0, 0, 1)" stroke-linecap="square" stroke-width="4.0"/>
   <polyline fill="none" points="349,86 399,86 399,356 429,356" stroke="rgb(0, 0, 1)" stroke-linecap="square" stroke-width="4.0"/>
   <polyline fill="none" points="619,446 619,456" stroke="rgb(0, 0, 1)" stroke-linecap="square" stroke-width="4.0"/>
   <polyline fill="none" points="209,196 259,196" stroke="rgb(0, 0, 1)" stroke-linecap="square" stroke-width="4.0"/>
   <polyline fill="none" points="209,216 259,216" stroke="rgb(0, 0, 1)" stroke-linecap="square" stroke-width="4.0"/>
   <polyline fill="none" points="209,256 259,256" stroke="rgb(0, 0, 1)" stroke-linecap="square" stroke-width="4.0"/>
   <polyline fill="none" points="209,276 259,276" stroke="rgb(0, 0, 1)" stroke-linecap="square" stroke-width="4.0"/>
   <polyline fill="none" points="309,336 359,336 359,246 429,246" stroke="rgb(0, 0, 1)" stroke-linecap="square" stroke-width="4.0"/>
   <polyline fill="none" points="219,46 179,46 179,196" stroke="rgb(0, 0, 1)" stroke-linecap="square" stroke-width="4.0"/>
   <polyline fill="none" points="179,276 179,326 179,346 179,366 429,366" stroke="rgb(0, 0, 1)" stroke-linecap="square" stroke-width="4.0"/>
   <polyline fill="none" points="569,276 559,276 559,356 559,386" stroke="rgb(0, 0, 1)" stroke-linecap="square" stroke-width="4.0"/>
   <polyline fill="none" points="309,196 309,206 359,206 359,226 429,226" stroke="rgb(0, 0, 1)" stroke-linecap="square" stroke-width="4.0"/>
   <polyline fill="none" points="529,226 549,226 549,256 569,256" stroke="rgb(0, 0, 1)" stroke-linecap="square" stroke-width="4.0"/>
   <polyline fill="none" points="869,176 809,176 809,226 749,226" stroke="rgb(0, 0, 1)" stroke-linecap="square" stroke-width="4.0"/>
   <polyline fill="none" points="289,206 309,206" stroke="rgb(0, 0, 1)" stroke-linecap="square" stroke-width="4.0"/>
   <polyline fill="none" points="289,266 309,266" stroke="rgb(0, 0, 1)" stroke-linecap="square" stroke-width="4.0"/>
   <polyline fill="none" points="349,106 369,106 369,136 339,136" stroke="rgb(0, 0, 1)" stroke-linecap="square" stroke-width="4.0"/>
   <polyline fill="none" points="849,246 769,246 769,456 619,456 409,456 409,266 429,266" stroke="rgb(0, 0, 1)" stroke-linecap="square" stroke-width="4.0"/>
   <polyline fill="none" points="349,96 389,96 389,256 429,256" stroke="rgb(0, 211, 0)" stroke-linecap="square" stroke-width="3.0"/>
   <polyline fill="none" points="529,356 559,356" stroke="rgb(0, 0, 1)" stroke-linecap="square" stroke-width="4.0"/>
   <polyline fill="none" points="179,326 189,326" stroke="rgb(0, 0, 1)" stroke-linecap="square" stroke-width="4.0"/>
   <polyline fill="none" points="179,346 189,346" stroke="rgb(0, 0, 1)" stroke-linecap="square" stroke-width="4.0"/>
   <polyline fill="none" points="349,66 719,66 719,126" stroke="rgb(0, 0, 1)" stroke-linecap="square" stroke-width="4.0"/>
   <polyline fill="none" points="529,216 549,216 549,206 619,206" stroke="rgb(0, 0, 1)" stroke-linecap="square" stroke-width="4.0"/>
   <polyline fill="none" points="309,256 309,266 349,266 349,236 429,236" stroke="rgb(0, 0, 1)" stroke-linecap="square" stroke-width="4.0"/>
   <polyline fill="none" points="749,246 769,246" stroke="rgb(0, 0, 1)" stroke-linecap="square" stroke-width="4.0"/>
   <ellipse cx="619.0" cy="266.0" fill="rgb(0, 0, 1)" rx="6.0" ry="6.0" stroke="none" stroke-width="4.0"/>
   <ellipse cx="179.0" cy="346.0" fill="rgb(0, 0, 1)" rx="6.0" ry="6.0" stroke="none" stroke-width="4.0"/>
   <ellipse cx="769.0" cy="246.0" fill="rgb(0, 0, 1)" rx="6.0" ry="6.0" stroke="none" stroke-width="4.0"/>
   <ellipse cx="559.0" cy="356.0" fill="rgb(0, 0, 1)" rx="6.0" ry="6.0" stroke="none" stroke-width="4.0"/>
   <ellipse cx="269.0" cy="156.0" fill="rgb(0, 211, 0)" rx="5.0" ry="5.0" stroke="none" stroke-width="4.0"/>
   <ellipse cx="309.0" cy="206.0" fill="rgb(0, 0, 1)" rx="6.0" ry="6.0" stroke="none" stroke-width="4.0"/>
   <ellipse cx="179.0" cy="196.0" fill="rgb(0, 0, 1)" rx="6.0" ry="6.0" stroke="none" stroke-width="4.0"/>
   <ellipse cx="309.0" cy="266.0" fill="rgb(0, 0, 1)" rx="6.0" ry="6.0" stroke="none" stroke-width="4.0"/>
   <ellipse cx="179.0" cy="216.0" fill="rgb(0, 0, 1)" rx="6.0" ry="6.0" stroke="none" stroke-width="4.0"/>
   <ellipse cx="719.0" cy="126.0" fill="rgb(0, 0, 1)" rx="6.0" ry="6.0" stroke="none" stroke-width="4.0"/>
   <ellipse cx="229.0" cy="236.0" fill="rgb(0, 211, 0)" rx="5.0" ry="5.0" stroke="none" stroke-width="4.0"/>
   <ellipse cx="179.0" cy="256.0" fill="rgb(0, 0, 1)" rx="6.0" ry="6.0" stroke="none" stroke-width="4.0"/>
   <ellipse cx="309.0" cy="336.0" fill="rgb(0, 0, 1)" rx="6.0" ry="6.0" stroke="none" stroke-width="4.0"/>
   <ellipse cx="619.0" cy="456.0" fill="rgb(0, 0, 1)" rx="6.0" ry="6.0" stroke="none" stroke-width="4.0"/>
   <ellipse cx="179.0" cy="276.0" fill="rgb(0, 0, 1)" rx="6.0" ry="6.0" stroke="none" stroke-width="4.0"/>
   <ellipse cx="619.0" cy="206.0" fill="rgb(0, 0, 1)" rx="6.0" ry="6.0" stroke="none" stroke-width="4.0"/>
   <ellipse cx="179.0" cy="326.0" fill="rgb(0, 0, 1)" rx="6.0" ry="6.0" stroke="none" stroke-width="4.0"/>
   <polyline fill="none" points="853,246 852,246" stroke="rgb(0, 0, 1)" stroke-linecap="square" stroke-width="4.0"/>
   <polygon fill="none" points="929,237 939,246 929,255 855,255 855,237" stroke="rgb(0, 0, 0)" stroke-linecap="square" stroke-width="2.0"/>
   <text fill="rgb(0, 0, 255)" font-family="Monospaced" font-size="12" x="924.0" y="253.0">h</text>
   <text fill="rgb(0, 0, 0)" font-family="Monospaced" font-size="12" x="917.0" y="251.0">b</text>
   <text fill="rgb(0, 0, 0)" font-family="Monospaced" font-size="12" x="909.0" y="251.0">f</text>
   <text fill="rgb(0, 0, 0)" font-family="Monospaced" font-size="12" x="901.0" y="251.0">0</text>
   <text fill="rgb(0, 0, 0)" font-family="Monospaced" font-size="12" x="893.0" y="251.0">0</text>
   <text fill="rgb(0, 0, 0)" font-family="Monospaced" font-size="12" x="885.0" y="251.0">0</text>
   <text fill="rgb(0, 0, 0)" font-family="Monospaced" font-size="12" x="877.0" y="251.0">0</text>
   <text fill="rgb(0, 0, 0)" font-family="Monospaced" font-size="12" x="869.0" y="251.0">0</text>
   <text fill="rgb(0, 0, 0)" font-family="Monospaced" font-size="12" x="861.0" y="251.0">0</text>
   <text fill="rgb(0, 0, 255)" font-family="Monospaced" font-size="16" font-weight="bold" x="941.0" y="254.0">ALUResult</text>
   <ellipse cx="849.0" cy="246.0" fill="rgb(0, 0, 1)" rx="2.0" ry="2.0" stroke="none" stroke-width="2.0"/>
   <polyline fill="none" points="873,176 872,176" stroke="rgb(0, 0, 1)" stroke-linecap="square" stroke-width="4.0"/>
   <polygon fill="none" points="929,167 939,176 929,185 875,185 875,167" stroke="rgb(0, 0, 0)" stroke-linecap="square" stroke-width="2.0"/>
   <text fill="rgb(0, 0, 255)" font-family="Monospaced" font-size="12" x="924.0" y="183.0">b</text>
   <text fill="rgb(0, 0, 0)" font-family="Monospaced" font-size="12" x="916.0" y="180.0">0</text>
   <text fill="rgb(0, 0, 0)" font-family="Monospaced" font-size="12" x="906.0" y="180.0">0</text>
   <text fill="rgb(0, 0, 0)" font-family="Monospaced" font-size="12" x="896.0" y="180.0">0</text>
   <text fill="rgb(0, 0, 0)" font-family="Monospaced" font-size="12" x="886.0" y="180.0">0</text>
   <text fill="rgb(0, 0, 255)" font-family="Monospaced" font-size="16" font-weight="bold" x="941.0" y="184.0">ALUFlags</text>
   <ellipse cx="869.0" cy="176.0" fill="rgb(0, 0, 1)" rx="2.0" ry="2.0" stroke="none" stroke-width="2.0"/>
   <polyline fill="none" points="146,256 149,256 179,256 189,256" stroke="rgb(0, 0, 1)" stroke-linecap="square" stroke-width="4.0"/>
   <polygon fill="none" points="134,265 144,256 134,247 90,247 90,265" stroke="rgb(0, 0, 0)" stroke-linecap="square" stroke-width="2.0"/>
   <text fill="rgb(0, 0, 255)" font-family="Monospaced" font-size="12" x="129.0" y="263.0">h</text>
   <text fill="rgb(0, 0, 0)" font-family="Monospaced" font-size="12" x="122.0" y="261.0">b</text>
   <text fill="rgb(0, 0, 0)" font-family="Monospaced" font-size="12" x="114.0" y="261.0">f</text>
   <text fill="rgb(0, 0, 0)" font-family="Monospaced" font-size="12" x="106.0" y="261.0">4</text>
   <text fill="rgb(0, 0, 0)" font-family="Monospaced" font-size="12" x="98.0" y="261.0">2</text>
   <text fill="rgb(0, 0, 255)" font-family="Monospaced" font-size="16" font-weight="bold" x="5.0" y="264.0">Instruction</text>
   <ellipse cx="149.0" cy="256.0" fill="rgb(0, 0, 1)" rx="2.0" ry="2.0" stroke="none" stroke-width="2.0"/>
   <polyline fill="none" points="209,196 195,196" stroke="rgb(0, 0, 1)" stroke-linecap="square" stroke-width="3.0"/>
   <polyline fill="none" points="190,196 195,196" stroke="rgb(0, 0, 1)" stroke-linecap="square" stroke-width="5.0"/>
   <ellipse cx="195.0" cy="195.0" fill="rgb(0, 0, 1)" rx="3.5" ry="3.5" stroke="none" stroke-width="5.0"/>
   <text fill="rgb(0, 0, 0)" font-family="SansSerif" font-size="7" x="198.0" y="193.0">5-3</text>
   <ellipse cx="189.0" cy="196.0" fill="rgb(0, 0, 1)" rx="2.0" ry="2.0" stroke="none" stroke-width="5.0"/>
   <ellipse cx="209.0" cy="196.0" fill="rgb(0, 0, 1)" rx="2.0" ry="2.0" stroke="none" stroke-width="5.0"/>
   <polyline fill="none" points="209,216 195,216" stroke="rgb(0, 0, 1)" stroke-linecap="square" stroke-width="3.0"/>
   <polyline fill="none" points="190,216 195,216" stroke="rgb(0, 0, 1)" stroke-linecap="square" stroke-width="5.0"/>
   <ellipse cx="195.0" cy="215.0" fill="rgb(0, 0, 1)" rx="3.5" ry="3.5" stroke="none" stroke-width="5.0"/>
   <text fill="rgb(0, 0, 0)" font-family="SansSerif" font-size="7" x="198.0" y="213.0">10-8</text>
   <ellipse cx="189.0" cy="216.0" fill="rgb(0, 0, 1)" rx="2.0" ry="2.0" stroke="none" stroke-width="5.0"/>
   <ellipse cx="209.0" cy="216.0" fill="rgb(0, 0, 1)" rx="2.0" ry="2.0" stroke="none" stroke-width="5.0"/>
   <polyline fill="none" points="209,256 195,256" stroke="rgb(0, 0, 1)" stroke-linecap="square" stroke-width="3.0"/>
   <polyline fill="none" points="190,256 195,256" stroke="rgb(0, 0, 1)" stroke-linecap="square" stroke-width="5.0"/>
   <ellipse cx="195.0" cy="255.0" fill="rgb(0, 0, 1)" rx="3.5" ry="3.5" stroke="none" stroke-width="5.0"/>
   <text fill="rgb(0, 0, 0)" font-family="SansSerif" font-size="7" x="198.0" y="253.0">8-6</text>
   <ellipse cx="189.0" cy="256.0" fill="rgb(0, 0, 1)" rx="2.0" ry="2.0" stroke="none" stroke-width="5.0"/>
   <ellipse cx="209.0" cy="256.0" fill="rgb(0, 0, 1)" rx="2.0" ry="2.0" stroke="none" stroke-width="5.0"/>
   <polyline fill="none" points="209,276 195,276" stroke="rgb(0, 0, 1)" stroke-linecap="square" stroke-width="3.0"/>
   <polyline fill="none" points="190,276 195,276" stroke="rgb(0, 0, 1)" stroke-linecap="square" stroke-width="5.0"/>
   <ellipse cx="195.0" cy="275.0" fill="rgb(0, 0, 1)" rx="3.5" ry="3.5" stroke="none" stroke-width="5.0"/>
   <text fill="rgb(0, 0, 0)" font-family="SansSerif" font-size="7" x="198.0" y="273.0">10-8</text>
   <ellipse cx="189.0" cy="276.0" fill="rgb(0, 0, 1)" rx="2.0" ry="2.0" stroke="none" stroke-width="5.0"/>
   <ellipse cx="209.0" cy="276.0" fill="rgb(0, 0, 1)" rx="2.0" ry="2.0" stroke="none" stroke-width="5.0"/>
   <polyline fill="none" points="209,326 195,326" stroke="rgb(0, 0, 1)" stroke-linecap="square" stroke-width="3.0"/>
   <polyline fill="none" points="190,326 195,326" stroke="rgb(0, 0, 1)" stroke-linecap="square" stroke-width="5.0"/>
   <ellipse cx="195.0" cy="325.0" fill="rgb(0, 0, 1)" rx="3.5" ry="3.5" stroke="none" stroke-width="5.0"/>
   <text fill="rgb(0, 0, 0)" font-family="SansSerif" font-size="7" x="198.0" y="323.0">2-0</text>
   <ellipse cx="189.0" cy="326.0" fill="rgb(0, 0, 1)" rx="2.0" ry="2.0" stroke="none" stroke-width="5.0"/>
   <ellipse cx="209.0" cy="326.0" fill="rgb(0, 0, 1)" rx="2.0" ry="2.0" stroke="none" stroke-width="5.0"/>
   <polyline fill="none" points="209,346 195,346" stroke="rgb(0, 0, 1)" stroke-linecap="square" stroke-width="3.0"/>
   <polyline fill="none" points="190,346 195,346" stroke="rgb(0, 0, 1)" stroke-linecap="square" stroke-width="5.0"/>
   <ellipse cx="195.0" cy="345.0" fill="rgb(0, 0, 1)" rx="3.5" ry="3.5" stroke="none" stroke-width="5.0"/>
   <text fill="rgb(0, 0, 0)" font-family="SansSerif" font-size="7" x="198.0" y="343.0">10-8</text>
   <ellipse cx="189.0" cy="346.0" fill="rgb(0, 0, 1)" rx="2.0" ry="2.0" stroke="none" stroke-width="5.0"/>
   <ellipse cx="209.0" cy="346.0" fill="rgb(0, 0, 1)" rx="2.0" ry="2.0" stroke="none" stroke-width="5.0"/>
   <polyline fill="none" points="339,156 339,142" stroke="rgb(0, 0, 1)" stroke-linecap="square" stroke-width="3.0"/>
   <polyline fill="none" points="229,236 229,156 269,156 329,156 329,142" stroke="rgb(0, 211, 0)" stroke-linecap="square" stroke-width="3.0"/>
   <polyline fill="none" points="339,137 339,142" stroke="rgb(0, 0, 1)" stroke-linecap="square" stroke-width="5.0"/>
   <polyline fill="none" points="338,142 330,142" stroke="rgb(0, 0, 1)" stroke-linecap="square" stroke-width="5.0"/>
   <text fill="rgb(0, 0, 0)" font-family="SansSerif" font-size="7" transform="rotate(90.0,342.0,145.0)" x="342.0" y="145.0">1-0</text>
   <text fill="rgb(0, 0, 0)" font-family="SansSerif" font-size="7" transform="rotate(90.0,332.0,145.0)" x="332.0" y="145.0">2</text>
   <ellipse cx="339.0" cy="136.0" fill="rgb(0, 0, 1)" rx="2.0" ry="2.0" stroke="none" stroke-width="5.0"/>
   <ellipse cx="339.0" cy="156.0" fill="rgb(0, 0, 1)" rx="2.0" ry="2.0" stroke="none" stroke-width="5.0"/>
   <ellipse cx="329.0" cy="156.0" fill="rgb(0, 211, 0)" rx="2.0" ry="2.0" stroke="none" stroke-width="5.0"/>
   <polyline fill="none" points="269,190 269,186 269,156" stroke="rgb(0, 211, 0)" stroke-linecap="square" stroke-width="3.0"/>
   <ellipse cx="269.0" cy="191.0" fill="rgb(192, 192, 192)" rx="3.0" ry="3.0" stroke="none" stroke-width="1.0"/>
   <text fill="rgb(128, 128, 128)" font-family="SansSerif" font-size="12" x="262.0" y="201.0">0</text>
   <polygon fill="none" points="259,186 289,196 289,216 259,226" stroke="rgb(0, 0, 0)" stroke-linecap="square" stroke-width="2.0"/>
   <text fill="rgb(0, 0, 0)" font-family="SansSerif" font-size="12" x="262.0" y="213.0">MUX</text>
   <ellipse cx="259.0" cy="196.0" fill="rgb(0, 0, 1)" rx="2.0" ry="2.0" stroke="none" stroke-width="2.0"/>
   <ellipse cx="259.0" cy="216.0" fill="rgb(0, 0, 1)" rx="2.0" ry="2.0" stroke="none" stroke-width="2.0"/>
   <ellipse cx="269.0" cy="186.0" fill="rgb(0, 211, 0)" rx="2.0" ry="2.0" stroke="none" stroke-width="2.0"/>
   <ellipse cx="289.0" cy="206.0" fill="rgb(0, 0, 1)" rx="2.0" ry="2.0" stroke="none" stroke-width="2.0"/>
   <ellipse cx="269.0" cy="251.0" fill="rgb(192, 192, 192)" rx="3.0" ry="3.0" stroke="none" stroke-width="1.0"/>
   <text fill="rgb(128, 128, 128)" font-family="SansSerif" font-size="12" x="262.0" y="261.0">0</text>
   <polygon fill="none" points="259,246 289,256 289,276 259,286" stroke="rgb(0, 0, 0)" stroke-linecap="square" stroke-width="2.0"/>
   <text fill="rgb(0, 0, 0)" font-family="SansSerif" font-size="12" x="262.0" y="273.0">MUX</text>
   <ellipse cx="259.0" cy="256.0" fill="rgb(0, 0, 1)" rx="2.0" ry="2.0" stroke="none" stroke-width="2.0"/>
   <ellipse cx="259.0" cy="276.0" fill="rgb(0, 0, 1)" rx="2.0" ry="2.0" stroke="none" stroke-width="2.0"/>
   <ellipse cx="269.0" cy="246.0" fill="rgb(0, 211, 0)" rx="2.0" ry="2.0" stroke="none" stroke-width="2.0"/>
   <ellipse cx="289.0" cy="266.0" fill="rgb(0, 0, 1)" rx="2.0" ry="2.0" stroke="none" stroke-width="2.0"/>
   <polyline fill="none" points="269,320 269,316 269,306 229,306 229,236 269,236 269,246 269,250" stroke="rgb(0, 211, 0)" stroke-linecap="square" stroke-width="3.0"/>
   <ellipse cx="269.0" cy="321.0" fill="rgb(192, 192, 192)" rx="3.0" ry="3.0" stroke="none" stroke-width="1.0"/>
   <text fill="rgb(128, 128, 128)" font-family="SansSerif" font-size="12" x="262.0" y="331.0">0</text>
   <polygon fill="none" points="259,316 289,326 289,346 259,356" stroke="rgb(0, 0, 0)" stroke-linecap="square" stroke-width="2.0"/>
   <text fill="rgb(0, 0, 0)" font-family="SansSerif" font-size="12" x="262.0" y="343.0">MUX</text>
   <ellipse cx="259.0" cy="326.0" fill="rgb(0, 0, 1)" rx="2.0" ry="2.0" stroke="none" stroke-width="2.0"/>
   <ellipse cx="259.0" cy="346.0" fill="rgb(0, 0, 1)" rx="2.0" ry="2.0" stroke="none" stroke-width="2.0"/>
   <ellipse cx="269.0" cy="316.0" fill="rgb(0, 211, 0)" rx="2.0" ry="2.0" stroke="none" stroke-width="2.0"/>
   <ellipse cx="289.0" cy="336.0" fill="rgb(0, 0, 1)" rx="2.0" ry="2.0" stroke="none" stroke-width="2.0"/>
   <polyline fill="none" points="579,250 579,246 579,76 349,76" stroke="rgb(0, 211, 0)" stroke-linecap="square" stroke-width="3.0"/>
   <ellipse cx="579.0" cy="251.0" fill="rgb(192, 192, 192)" rx="3.0" ry="3.0" stroke="none" stroke-width="1.0"/>
   <text fill="rgb(128, 128, 128)" font-family="SansSerif" font-size="12" x="572.0" y="261.0">0</text>
   <polygon fill="none" points="569,246 599,256 599,276 569,286" stroke="rgb(0, 0, 0)" stroke-linecap="square" stroke-width="2.0"/>
   <text fill="rgb(0, 0, 0)" font-family="SansSerif" font-size="12" x="572.0" y="273.0">MUX</text>
   <ellipse cx="569.0" cy="256.0" fill="rgb(0, 0, 1)" rx="2.0" ry="2.0" stroke="none" stroke-width="2.0"/>
   <ellipse cx="569.0" cy="276.0" fill="rgb(0, 0, 1)" rx="2.0" ry="2.0" stroke="none" stroke-width="2.0"/>
   <ellipse cx="579.0" cy="246.0" fill="rgb(0, 211, 0)" rx="2.0" ry="2.0" stroke="none" stroke-width="2.0"/>
   <ellipse cx="599.0" cy="266.0" fill="rgb(0, 0, 1)" rx="2.0" ry="2.0" stroke="none" stroke-width="2.0"/>
   <text fill="rgb(0, 0, 0)" font-family="SansSerif" font-size="12" x="694.0" y="216.0">A</text>
   <text fill="rgb(0, 0, 0)" font-family="SansSerif" font-size="12" x="694.0" y="266.0">B</text>
   <text fill="rgb(0, 0, 0)" font-family="SansSerif" font-size="12" x="708.0" y="250.0">Result</text>
   <text fill="rgb(0, 0, 0)" font-family="SansSerif" font-size="12" x="712.0" y="229.0">Flags</text>
   <text fill="rgb(0, 0, 0)" font-family="SansSerif" font-size="12" x="711.0" y="210.0">ctrl</text>
   <polyline fill="none" points="689,187 689,226" stroke="rgb(0, 0, 0)" stroke-linecap="square" stroke-width="1.0"/>
   <polyline fill="none" points="690,226 699,236" stroke="rgb(0, 0, 0)" stroke-linecap="square" stroke-width="1.0"/>
   <polyline fill="none" points="689,186 749,205 749,266" stroke="rgb(0, 0, 0)" stroke-linecap="square" stroke-width="1.0"/>
   <polyline fill="none" points="700,236 689,246 689,286 749,267" stroke="rgb(0, 0, 0)" stroke-linecap="square" stroke-width="1.0"/>
   <ellipse cx="689.0" cy="206.0" fill="rgb(0, 0, 1)" rx="2.0" ry="2.0" stroke="none" stroke-width="1.0"/>
   <ellipse cx="689.0" cy="266.0" fill="rgb(0, 0, 1)" rx="2.0" ry="2.0" stroke="none" stroke-width="1.0"/>
   <ellipse cx="719.0" cy="196.0" fill="rgb(0, 0, 1)" rx="2.0" ry="2.0" stroke="none" stroke-width="1.0"/>
   <ellipse cx="749.0" cy="226.0" fill="rgb(0, 0, 1)" rx="2.0" ry="2.0" stroke="none" stroke-width="1.0"/>
   <ellipse cx="749.0" cy="246.0" fill="rgb(0, 0, 1)" rx="2.0" ry="2.0" stroke="none" stroke-width="1.0"/>
   <polyline fill="none" points="219,6 348,6" stroke="rgb(0, 0, 0)" stroke-linecap="square" stroke-width="2.0"/>
   <polyline fill="none" points="349,6 349,120" stroke="rgb(0, 0, 0)" stroke-linecap="square" stroke-width="2.0"/>
   <polyline fill="none" points="349,121 220,121" stroke="rgb(0, 0, 0)" stroke-linecap="square" stroke-width="2.0"/>
   <polyline fill="none" points="219,121 219,7" stroke="rgb(0, 0, 0)" stroke-linecap="square" stroke-width="2.0"/>
   <text fill="rgb(64, 64, 64)" font-family="SansSerif" font-size="10" x="224.0" y="40.0">ALUFlags</text>
   <text fill="rgb(64, 64, 64)" font-family="SansSerif" font-size="10" x="224.0" y="50.0">Instr</text>
   <text fill="rgb(64, 64, 64)" font-family="SansSerif" font-size="10" x="314.0" y="40.0">PCSrc</text>
   <text fill="rgb(64, 64, 64)" font-family="SansSerif" font-size="10" x="288.0" y="50.0">MemToReg</text>
   <text fill="rgb(64, 64, 64)" font-family="SansSerif" font-size="10" x="296.0" y="60.0">MemWrite</text>
   <text fill="rgb(64, 64, 64)" font-family="SansSerif" font-size="10" x="290.0" y="70.0">ALUControl</text>
   <text fill="rgb(64, 64, 64)" font-family="SansSerif" font-size="10" x="308.0" y="80.0">ALUSrc</text>
   <text fill="rgb(64, 64, 64)" font-family="SansSerif" font-size="10" x="307.0" y="90.0">ImmSrc</text>
   <text fill="rgb(64, 64, 64)" font-family="SansSerif" font-size="10" x="301.0" y="100.0">RegWrite</text>
   <text fill="rgb(64, 64, 64)" font-family="SansSerif" font-size="10" x="309.0" y="110.0">RegSrc</text>
   <text fill="rgb(0, 0, 0)" font-family="SansSerif" font-size="12" x="249.0" y="24.0">Control_Unit</text>
   <ellipse cx="219.0" cy="36.0" fill="rgb(0, 0, 1)" rx="2.0" ry="2.0" stroke="none" stroke-width="1.0"/>
   <ellipse cx="219.0" cy="46.0" fill="rgb(0, 0, 1)" rx="2.0" ry="2.0" stroke="none" stroke-width="1.0"/>
   <ellipse cx="349.0" cy="36.0" fill="rgb(0, 101, 0)" rx="2.0" ry="2.0" stroke="none" stroke-width="1.0"/>
   <ellipse cx="349.0" cy="46.0" fill="rgb(0, 101, 0)" rx="2.0" ry="2.0" stroke="none" stroke-width="1.0"/>
   <ellipse cx="349.0" cy="56.0" fill="rgb(0, 101, 0)" rx="2.0" ry="2.0" stroke="none" stroke-width="1.0"/>
   <ellipse cx="349.0" cy="66.0" fill="rgb(0, 0, 1)" rx="2.0" ry="2.0" stroke="none" stroke-width="1.0"/>
   <ellipse cx="349.0" cy="76.0" fill="rgb(0, 211, 0)" rx="2.0" ry="2.0" stroke="none" stroke-width="1.0"/>
   <ellipse cx="349.0" cy="86.0" fill="rgb(0, 0, 1)" rx="2.0" ry="2.0" stroke="none" stroke-width="1.0"/>
   <ellipse cx="349.0" cy="96.0" fill="rgb(0, 211, 0)" rx="2.0" ry="2.0" stroke="none" stroke-width="1.0"/>
   <ellipse cx="349.0" cy="106.0" fill="rgb(0, 0, 1)" rx="2.0" ry="2.0" stroke="none" stroke-width="1.0"/>
   <polyline fill="none" points="429,186 528,186" stroke="rgb(0, 0, 0)" stroke-linecap="square" stroke-width="2.0"/>
   <polyline fill="none" points="529,186 529,290" stroke="rgb(0, 0, 0)" stroke-linecap="square" stroke-width="2.0"/>
   <polyline fill="none" points="529,291 430,291" stroke="rgb(0, 0, 0)" stroke-linecap="square" stroke-width="2.0"/>
   <polyline fill="none" points="429,291 429,187" stroke="rgb(0, 0, 0)" stroke-linecap="square" stroke-width="2.0"/>
   <text fill="rgb(64, 64, 64)" font-family="SansSerif" font-size="10" x="434.0" y="220.0">SP_PC</text>
   <text fill="rgb(64, 64, 64)" font-family="SansSerif" font-size="10" x="434.0" y="230.0">A1</text>
   <text fill="rgb(64, 64, 64)" font-family="SansSerif" font-size="10" x="434.0" y="240.0">A2</text>
   <text fill="rgb(64, 64, 64)" font-family="SansSerif" font-size="10" x="434.0" y="250.0">A3</text>
   <text fill="rgb(64, 64, 64)" font-family="SansSerif" font-size="10" x="434.0" y="260.0">WE3</text>
   <text fill="rgb(64, 64, 64)" font-family="SansSerif" font-size="10" x="434.0" y="270.0">WD3</text>
   <text fill="rgb(64, 64, 64)" font-family="SansSerif" font-size="10" x="434.0" y="280.0">R15</text>
   <text fill="rgb(64, 64, 64)" font-family="SansSerif" font-size="10" x="504.0" y="220.0">RD1</text>
   <text fill="rgb(64, 64, 64)" font-family="SansSerif" font-size="10" x="504.0" y="230.0">RD2</text>
   <text fill="rgb(0, 0, 0)" font-family="SansSerif" font-size="12" x="445.0" y="204.0">RegisterFile</text>
   <ellipse cx="429.0" cy="216.0" fill="rgb(0, 0, 1)" rx="2.0" ry="2.0" stroke="none" stroke-width="1.0"/>
   <ellipse cx="429.0" cy="226.0" fill="rgb(0, 0, 1)" rx="2.0" ry="2.0" stroke="none" stroke-width="1.0"/>
   <ellipse cx="429.0" cy="236.0" fill="rgb(0, 0, 1)" rx="2.0" ry="2.0" stroke="none" stroke-width="1.0"/>
   <ellipse cx="429.0" cy="246.0" fill="rgb(0, 0, 1)" rx="2.0" ry="2.0" stroke="none" stroke-width="1.0"/>
   <ellipse cx="429.0" cy="256.0" fill="rgb(0, 211, 0)" rx="2.0" ry="2.0" stroke="none" stroke-width="1.0"/>
   <ellipse cx="429.0" cy="266.0" fill="rgb(0, 0, 1)" rx="2.0" ry="2.0" stroke="none" stroke-width="1.0"/>
   <ellipse cx="429.0" cy="276.0" fill="rgb(0, 0, 1)" rx="2.0" ry="2.0" stroke="none" stroke-width="1.0"/>
   <ellipse cx="529.0" cy="216.0" fill="rgb(0, 0, 1)" rx="2.0" ry="2.0" stroke="none" stroke-width="1.0"/>
   <ellipse cx="529.0" cy="226.0" fill="rgb(0, 0, 1)" rx="2.0" ry="2.0" stroke="none" stroke-width="1.0"/>
   <polyline fill="none" points="429,326 528,326" stroke="rgb(0, 0, 0)" stroke-linecap="square" stroke-width="2.0"/>
   <polyline fill="none" points="529,326 529,380" stroke="rgb(0, 0, 0)" stroke-linecap="square" stroke-width="2.0"/>
   <polyline fill="none" points="529,381 430,381" stroke="rgb(0, 0, 0)" stroke-linecap="square" stroke-width="2.0"/>
   <polyline fill="none" points="429,381 429,327" stroke="rgb(0, 0, 0)" stroke-linecap="square" stroke-width="2.0"/>
   <text fill="rgb(64, 64, 64)" font-family="SansSerif" font-size="10" x="434.0" y="360.0">ImmSrc</text>
   <text fill="rgb(64, 64, 64)" font-family="SansSerif" font-size="10" x="434.0" y="370.0">Instr</text>
   <text fill="rgb(64, 64, 64)" font-family="SansSerif" font-size="10" x="491.0" y="360.0">Imm32</text>
   <text fill="rgb(0, 0, 0)" font-family="SansSerif" font-size="12" x="449.0" y="344.0">Immediate</text>
   <ellipse cx="429.0" cy="356.0" fill="rgb(0, 0, 1)" rx="2.0" ry="2.0" stroke="none" stroke-width="1.0"/>
   <ellipse cx="429.0" cy="366.0" fill="rgb(0, 0, 1)" rx="2.0" ry="2.0" stroke="none" stroke-width="1.0"/>
   <ellipse cx="529.0" cy="356.0" fill="rgb(0, 0, 1)" rx="2.0" ry="2.0" stroke="none" stroke-width="1.0"/>
   <rect fill="rgb(255, 240, 153)" height="18" rx="10.0" ry="10.0" stroke="none" stroke-linecap="square" stroke-width="1.0" width="68" x="585" y="177"/>
   <rect fill="none" height="18" rx="10.0" ry="10.0" stroke="rgb(192, 192, 192)" stroke-linecap="square" stroke-width="1.0" width="68" x="585" y="177"/>
   <text fill="rgb(0, 0, 255)" font-family="SansSerif" font-size="12" x="607.0" y="171.0">SrcA</text>
   <text fill="rgb(64, 64, 64)" font-family="SansSerif" font-size="12" x="591.0" y="191.0">00000000</text>
   <ellipse cx="619.0" cy="196.0" fill="rgb(0, 0, 1)" rx="2.0" ry="2.0" stroke="none" stroke-width="1.0"/>
   <rect fill="rgb(255, 240, 153)" height="18" rx="10.0" ry="10.0" stroke="none" stroke-linecap="square" stroke-width="1.0" width="68" x="585" y="237"/>
   <rect fill="none" height="18" rx="10.0" ry="10.0" stroke="rgb(192, 192, 192)" stroke-linecap="square" stroke-width="1.0" width="68" x="585" y="237"/>
   <text fill="rgb(0, 0, 255)" font-family="SansSerif" font-size="12" x="606.0" y="231.0">SrcB</text>
   <text fill="rgb(64, 64, 64)" font-family="SansSerif" font-size="12" x="593.0" y="251.0">000000fb</text>
   <ellipse cx="619.0" cy="256.0" fill="rgb(0, 0, 1)" rx="2.0" ry="2.0" stroke="none" stroke-width="1.0"/>
   <rect fill="rgb(255, 240, 153)" height="18" rx="10.0" ry="10.0" stroke="none" stroke-linecap="square" stroke-width="1.0" width="18" x="300" y="307"/>
   <rect fill="none" height="18" rx="10.0" ry="10.0" stroke="rgb(192, 192, 192)" stroke-linecap="square" stroke-width="1.0" width="18" x="300" y="307"/>
   <text fill="rgb(0, 0, 255)" font-family="SansSerif" font-size="12" x="298.0" y="301.0">RA3</text>
   <text fill="rgb(64, 64, 64)" font-family="SansSerif" font-size="12" x="306.0" y="321.0">4</text>
   <ellipse cx="309.0" cy="326.0" fill="rgb(0, 0, 1)" rx="2.0" ry="2.0" stroke="none" stroke-width="1.0"/>
   <rect fill="rgb(255, 240, 153)" height="18" rx="10.0" ry="10.0" stroke="none" stroke-linecap="square" stroke-width="1.0" width="28" x="680" y="117"/>
   <rect fill="none" height="18" rx="10.0" ry="10.0" stroke="rgb(192, 192, 192)" stroke-linecap="square" stroke-width="1.0" width="28" x="680" y="117"/>
   <text fill="rgb(0, 0, 255)" font-family="SansSerif" font-size="12" x="614.0" y="132.0">ALUControl</text>
   <text fill="rgb(64, 64, 64)" font-family="SansSerif" font-size="12" x="701.0" y="133.0">0</text>
   <text fill="rgb(64, 64, 64)" font-family="SansSerif" font-size="12" x="691.0" y="133.0">0</text>
   <text fill="rgb(64, 64, 64)" font-family="SansSerif" font-size="12" x="681.0" y="133.0">0</text>
   <ellipse cx="709.0" cy="126.0" fill="rgb(0, 0, 1)" rx="2.0" ry="2.0" stroke="none" stroke-width="1.0"/>
   <rect fill="rgb(255, 240, 153)" height="18" rx="10.0" ry="10.0" stroke="none" stroke-linecap="square" stroke-width="1.0" width="18" x="300" y="177"/>
   <rect fill="none" height="18" rx="10.0" ry="10.0" stroke="rgb(192, 192, 192)" stroke-linecap="square" stroke-width="1.0" width="18" x="300" y="177"/>
   <text fill="rgb(0, 0, 255)" font-family="SansSerif" font-size="12" x="298.0" y="171.0">RA1</text>
   <text fill="rgb(64, 64, 64)" font-family="SansSerif" font-size="12" x="306.0" y="191.0">4</text>
   <ellipse cx="309.0" cy="196.0" fill="rgb(0, 0, 1)" rx="2.0" ry="2.0" stroke="none" stroke-width="1.0"/>
   <rect fill="rgb(255, 240, 153)" height="18" rx="10.0" ry="10.0" stroke="none" stroke-linecap="square" stroke-width="1.0" width="18" x="300" y="237"/>
   <rect fill="none" height="18" rx="10.0" ry="10.0" stroke="rgb(192, 192, 192)" stroke-linecap="square" stroke-width="1.0" width="18" x="300" y="237"/>
   <text fill="rgb(0, 0, 255)" font-family="SansSerif" font-size="12" x="298.0" y="231.0">RA2</text>
   <text fill="rgb(64, 64, 64)" font-family="SansSerif" font-size="12" x="306.0" y="251.0">4</text>
   <ellipse cx="309.0" cy="256.0" fill="rgb(0, 0, 1)" rx="2.0" ry="2.0" stroke="none" stroke-width="1.0"/>
   <rect fill="rgb(255, 240, 153)" height="18" rx="10.0" ry="10.0" stroke="none" stroke-linecap="square" stroke-width="1.0" width="68" x="585" y="427"/>
   <rect fill="none" height="18" rx="10.0" ry="10.0" stroke="rgb(192, 192, 192)" stroke-linecap="square" stroke-width="1.0" width="68" x="585" y="427"/>
   <text fill="rgb(0, 0, 255)" font-family="SansSerif" font-size="12" x="601.0" y="421.0">Result</text>
   <text fill="rgb(64, 64, 64)" font-family="SansSerif" font-size="12" x="593.0" y="441.0">000000fb</text>
   <ellipse cx="619.0" cy="446.0" fill="rgb(0, 0, 1)" rx="2.0" ry="2.0" stroke="none" stroke-width="1.0"/>
   <rect fill="rgb(255, 240, 153)" height="18" rx="10.0" ry="10.0" stroke="none" stroke-linecap="square" stroke-width="1.0" width="68" x="525" y="387"/>
   <rect fill="none" height="18" rx="10.0" ry="10.0" stroke="rgb(192, 192, 192)" stroke-linecap="square" stroke-width="1.0" width="68" x="525" y="387"/>
   <text fill="rgb(0, 0, 255)" font-family="SansSerif" font-size="12" x="539.0" y="421.0">ExtImm</text>
   <text fill="rgb(64, 64, 64)" font-family="SansSerif" font-size="12" x="533.0" y="401.0">000000fb</text>
   <ellipse cx="559.0" cy="386.0" fill="rgb(0, 0, 1)" rx="2.0" ry="2.0" stroke="none" stroke-width="1.0"/>
</svg>
