<?xml version="1.0" encoding="UTF-8" standalone="no"?>
<svg xmlns="http://www.w3.org/2000/svg" version="1.1" viewBox="0 0 856 291">
   <polyline fill="none" points="697,125 637,125 637,175 577,175" stroke="rgb(0, 0, 1)" stroke-linecap="square" stroke-width="4.0"/>
   <polyline fill="none" points="447,275 447,285 597,285 597,195 677,195" stroke="rgb(0, 0, 1)" stroke-linecap="square" stroke-width="4.0"/>
   <polyline fill="none" points="447,285 237,285 237,215 257,215" stroke="rgb(0, 0, 1)" stroke-linecap="square" stroke-width="4.0"/>
   <polyline fill="none" points="447,145 447,155 517,155" stroke="rgb(0, 0, 1)" stroke-linecap="square" stroke-width="4.0"/>
   <polyline fill="none" points="447,205 447,215 517,215" stroke="rgb(0, 0, 1)" stroke-linecap="square" stroke-width="4.0"/>
   <polyline fill="none" points="357,165 377,165 377,155 447,155" stroke="rgb(0, 0, 1)" stroke-linecap="square" stroke-width="4.0"/>
   <polyline fill="none" points="357,175 377,175 377,215 447,215" stroke="rgb(0, 0, 1)" stroke-linecap="square" stroke-width="4.0"/>
   <polyline fill="none" points="577,195 597,195" stroke="rgb(0, 0, 1)" stroke-linecap="square" stroke-width="4.0"/>
   <ellipse cx="447.0" cy="215.0" fill="rgb(0, 0, 1)" rx="6.0" ry="6.0" stroke="none" stroke-width="4.0"/>
   <ellipse cx="447.0" cy="155.0" fill="rgb(0, 0, 1)" rx="6.0" ry="6.0" stroke="none" stroke-width="4.0"/>
   <ellipse cx="447.0" cy="285.0" fill="rgb(0, 0, 1)" rx="6.0" ry="6.0" stroke="none" stroke-width="4.0"/>
   <ellipse cx="597.0" cy="195.0" fill="rgb(0, 0, 1)" rx="6.0" ry="6.0" stroke="none" stroke-width="4.0"/>
   <polyline fill="none" points="681,195 680,195" stroke="rgb(0, 0, 1)" stroke-linecap="square" stroke-width="4.0"/>
   <polygon fill="none" points="757,186 767,195 757,204 683,204 683,186" stroke="rgb(0, 0, 0)" stroke-linecap="square" stroke-width="2.0"/>
   <text fill="rgb(0, 0, 255)" font-family="Monospaced" font-size="12" x="752.0" y="202.0">h</text>
   <text fill="rgb(0, 0, 0)" font-family="Monospaced" font-size="12" x="745.0" y="200.0">0</text>
   <text fill="rgb(0, 0, 0)" font-family="Monospaced" font-size="12" x="737.0" y="200.0">0</text>
   <text fill="rgb(0, 0, 0)" font-family="Monospaced" font-size="12" x="729.0" y="200.0">0</text>
   <text fill="rgb(0, 0, 0)" font-family="Monospaced" font-size="12" x="721.0" y="200.0">0</text>
   <text fill="rgb(0, 0, 0)" font-family="Monospaced" font-size="12" x="713.0" y="200.0">0</text>
   <text fill="rgb(0, 0, 0)" font-family="Monospaced" font-size="12" x="705.0" y="200.0">0</text>
   <text fill="rgb(0, 0, 0)" font-family="Monospaced" font-size="12" x="697.0" y="200.0">0</text>
   <text fill="rgb(0, 0, 0)" font-family="Monospaced" font-size="12" x="689.0" y="200.0">0</text>
   <text fill="rgb(0, 0, 255)" font-family="Monospaced" font-size="16" font-weight="bold" x="769.0" y="203.0">ALUResult</text>
   <ellipse cx="677.0" cy="195.0" fill="rgb(0, 0, 1)" rx="2.0" ry="2.0" stroke="none" stroke-width="2.0"/>
   <polyline fill="none" points="701,125 700,125" stroke="rgb(0, 0, 1)" stroke-linecap="square" stroke-width="4.0"/>
   <polygon fill="none" points="757,116 767,125 757,134 703,134 703,116" stroke="rgb(0, 0, 0)" stroke-linecap="square" stroke-width="2.0"/>
   <text fill="rgb(0, 0, 255)" font-family="Monospaced" font-size="12" x="752.0" y="132.0">b</text>
   <text fill="rgb(0, 0, 0)" font-family="Monospaced" font-size="12" x="744.0" y="129.0">0</text>
   <text fill="rgb(0, 0, 0)" font-family="Monospaced" font-size="12" x="734.0" y="129.0">0</text>
   <text fill="rgb(0, 0, 0)" font-family="Monospaced" font-size="12" x="724.0" y="129.0">1</text>
   <text fill="rgb(0, 0, 0)" font-family="Monospaced" font-size="12" x="714.0" y="129.0">0</text>
   <text fill="rgb(0, 0, 255)" font-family="Monospaced" font-size="16" font-weight="bold" x="769.0" y="133.0">ALUFlags</text>
   <ellipse cx="697.0" cy="125.0" fill="rgb(0, 0, 1)" rx="2.0" ry="2.0" stroke="none" stroke-width="2.0"/>
   <polyline fill="none" points="132,265 137,265 197,265 197,205 257,205" stroke="rgb(0, 211, 0)" stroke-linecap="square" stroke-width="3.0"/>
   <polygon fill="none" points="122,274 132,265 122,256 98,256 98,274" stroke="rgb(0, 0, 0)" stroke-linecap="square" stroke-width="2.0"/>
   <text fill="rgb(0, 0, 255)" font-family="Monospaced" font-size="12" x="117.0" y="272.0">b</text>
   <ellipse cx="112.0" cy="264.0" fill="rgb(0, 211, 0)" rx="4.5" ry="7.0" stroke="none" stroke-width="2.0"/>
   <text fill="rgb(255, 255, 255)" font-family="Monospaced" font-size="12" x="109.0" y="269.0">1</text>
   <text fill="rgb(0, 0, 255)" font-family="Monospaced" font-size="16" font-weight="bold" x="25.0" y="273.0">RegWrite</text>
   <ellipse cx="137.0" cy="265.0" fill="rgb(0, 211, 0)" rx="2.0" ry="2.0" stroke="none" stroke-width="2.0"/>
   <polyline fill="none" points="154,15 157,15 547,15 547,145" stroke="rgb(0, 0, 1)" stroke-linecap="square" stroke-width="4.0"/>
   <polygon fill="none" points="142,24 152,15 142,6 98,6 98,24" stroke="rgb(0, 0, 0)" stroke-linecap="square" stroke-width="2.0"/>
   <text fill="rgb(0, 0, 255)" font-family="Monospaced" font-size="12" x="137.0" y="22.0">b</text>
   <ellipse cx="132.0" cy="14.0" fill="rgb(0, 101, 0)" rx="4.5" ry="7.0" stroke="none" stroke-width="2.0"/>
   <text fill="rgb(255, 255, 255)" font-family="Monospaced" font-size="12" x="129.0" y="19.0">0</text>
   <ellipse cx="122.0" cy="14.0" fill="rgb(0, 101, 0)" rx="4.5" ry="7.0" stroke="none" stroke-width="2.0"/>
   <text fill="rgb(255, 255, 255)" font-family="Monospaced" font-size="12" x="119.0" y="19.0">0</text>
   <ellipse cx="112.0" cy="14.0" fill="rgb(0, 211, 0)" rx="4.5" ry="7.0" stroke="none" stroke-width="2.0"/>
   <text fill="rgb(255, 255, 255)" font-family="Monospaced" font-size="12" x="109.0" y="19.0">1</text>
   <text fill="rgb(0, 0, 255)" font-family="Monospaced" font-size="16" font-weight="bold" x="5.0" y="23.0">ALUControl</text>
   <ellipse cx="157.0" cy="15.0" fill="rgb(0, 0, 1)" rx="2.0" ry="2.0" stroke="none" stroke-width="2.0"/>
   <polyline fill="none" points="154,145 157,145 177,145 177,175 257,175" stroke="rgb(0, 0, 1)" stroke-linecap="square" stroke-width="4.0"/>
   <polygon fill="none" points="142,154 152,145 142,136 98,136 98,154" stroke="rgb(0, 0, 0)" stroke-linecap="square" stroke-width="2.0"/>
   <text fill="rgb(0, 0, 255)" font-family="Monospaced" font-size="12" x="137.0" y="152.0">b</text>
   <ellipse cx="132.0" cy="144.0" fill="rgb(0, 101, 0)" rx="4.5" ry="7.0" stroke="none" stroke-width="2.0"/>
   <text fill="rgb(255, 255, 255)" font-family="Monospaced" font-size="12" x="129.0" y="149.0">0</text>
   <ellipse cx="122.0" cy="144.0" fill="rgb(0, 211, 0)" rx="4.5" ry="7.0" stroke="none" stroke-width="2.0"/>
   <text fill="rgb(255, 255, 255)" font-family="Monospaced" font-size="12" x="119.0" y="149.0">1</text>
   <ellipse cx="112.0" cy="144.0" fill="rgb(0, 211, 0)" rx="4.5" ry="7.0" stroke="none" stroke-width="2.0"/>
   <text fill="rgb(255, 255, 255)" font-family="Monospaced" font-size="12" x="109.0" y="149.0">1</text>
   <text fill="rgb(0, 0, 255)" font-family="Monospaced" font-size="16" font-weight="bold" x="63.0" y="153.0">RA1</text>
   <ellipse cx="157.0" cy="145.0" fill="rgb(0, 0, 1)" rx="2.0" ry="2.0" stroke="none" stroke-width="2.0"/>
   <polyline fill="none" points="154,185 157,185 257,185" stroke="rgb(0, 0, 1)" stroke-linecap="square" stroke-width="4.0"/>
   <polygon fill="none" points="142,194 152,185 142,176 98,176 98,194" stroke="rgb(0, 0, 0)" stroke-linecap="square" stroke-width="2.0"/>
   <text fill="rgb(0, 0, 255)" font-family="Monospaced" font-size="12" x="137.0" y="192.0">b</text>
   <ellipse cx="132.0" cy="184.0" fill="rgb(0, 211, 0)" rx="4.5" ry="7.0" stroke="none" stroke-width="2.0"/>
   <text fill="rgb(255, 255, 255)" font-family="Monospaced" font-size="12" x="129.0" y="189.0">1</text>
   <ellipse cx="122.0" cy="184.0" fill="rgb(0, 211, 0)" rx="4.5" ry="7.0" stroke="none" stroke-width="2.0"/>
   <text fill="rgb(255, 255, 255)" font-family="Monospaced" font-size="12" x="119.0" y="189.0">1</text>
   <ellipse cx="112.0" cy="184.0" fill="rgb(0, 101, 0)" rx="4.5" ry="7.0" stroke="none" stroke-width="2.0"/>
   <text fill="rgb(255, 255, 255)" font-family="Monospaced" font-size="12" x="109.0" y="189.0">0</text>
   <text fill="rgb(0, 0, 255)" font-family="Monospaced" font-size="16" font-weight="bold" x="63.0" y="193.0">RA2</text>
   <ellipse cx="157.0" cy="185.0" fill="rgb(0, 0, 1)" rx="2.0" ry="2.0" stroke="none" stroke-width="2.0"/>
   <polyline fill="none" points="154,225 157,225 167,225 167,195 257,195" stroke="rgb(0, 0, 1)" stroke-linecap="square" stroke-width="4.0"/>
   <polygon fill="none" points="142,234 152,225 142,216 98,216 98,234" stroke="rgb(0, 0, 0)" stroke-linecap="square" stroke-width="2.0"/>
   <text fill="rgb(0, 0, 255)" font-family="Monospaced" font-size="12" x="137.0" y="232.0">b</text>
   <ellipse cx="132.0" cy="224.0" fill="rgb(0, 101, 0)" rx="4.5" ry="7.0" stroke="none" stroke-width="2.0"/>
   <text fill="rgb(255, 255, 255)" font-family="Monospaced" font-size="12" x="129.0" y="229.0">0</text>
   <ellipse cx="122.0" cy="224.0" fill="rgb(0, 101, 0)" rx="4.5" ry="7.0" stroke="none" stroke-width="2.0"/>
   <text fill="rgb(255, 255, 255)" font-family="Monospaced" font-size="12" x="119.0" y="229.0">0</text>
   <ellipse cx="112.0" cy="224.0" fill="rgb(0, 211, 0)" rx="4.5" ry="7.0" stroke="none" stroke-width="2.0"/>
   <text fill="rgb(255, 255, 255)" font-family="Monospaced" font-size="12" x="109.0" y="229.0">1</text>
   <text fill="rgb(0, 0, 255)" font-family="Monospaced" font-size="16" font-weight="bold" x="63.0" y="233.0">RA3</text>
   <ellipse cx="157.0" cy="225.0" fill="rgb(0, 0, 1)" rx="2.0" ry="2.0" stroke="none" stroke-width="2.0"/>
   <rect fill="rgb(255, 240, 153)" height="18" rx="10.0" ry="10.0" stroke="none" stroke-linecap="square" stroke-width="1.0" width="68" x="413" y="126"/>
   <rect fill="none" height="18" rx="10.0" ry="10.0" stroke="rgb(192, 192, 192)" stroke-linecap="square" stroke-width="1.0" width="68" x="413" y="126"/>
   <text fill="rgb(0, 0, 255)" font-family="SansSerif" font-size="12" x="435.0" y="120.0">SrcA</text>
   <text fill="rgb(64, 64, 64)" font-family="SansSerif" font-size="12" x="419.0" y="140.0">00000000</text>
   <ellipse cx="447.0" cy="145.0" fill="rgb(0, 0, 1)" rx="2.0" ry="2.0" stroke="none" stroke-width="1.0"/>
   <rect fill="rgb(255, 240, 153)" height="18" rx="10.0" ry="10.0" stroke="none" stroke-linecap="square" stroke-width="1.0" width="68" x="413" y="186"/>
   <rect fill="none" height="18" rx="10.0" ry="10.0" stroke="rgb(192, 192, 192)" stroke-linecap="square" stroke-width="1.0" width="68" x="413" y="186"/>
   <text fill="rgb(0, 0, 255)" font-family="SansSerif" font-size="12" x="434.0" y="180.0">SrcB</text>
   <text fill="rgb(64, 64, 64)" font-family="SansSerif" font-size="12" x="419.0" y="200.0">00000000</text>
   <ellipse cx="447.0" cy="205.0" fill="rgb(0, 0, 1)" rx="2.0" ry="2.0" stroke="none" stroke-width="1.0"/>
   <text fill="rgb(0, 0, 0)" font-family="SansSerif" font-size="12" x="522.0" y="165.0">A</text>
   <text fill="rgb(0, 0, 0)" font-family="SansSerif" font-size="12" x="522.0" y="215.0">B</text>
   <text fill="rgb(0, 0, 0)" font-family="SansSerif" font-size="12" x="536.0" y="199.0">Result</text>
   <text fill="rgb(0, 0, 0)" font-family="SansSerif" font-size="12" x="540.0" y="178.0">Flags</text>
   <text fill="rgb(0, 0, 0)" font-family="SansSerif" font-size="12" x="539.0" y="159.0">ctrl</text>
   <polyline fill="none" points="517,136 517,175" stroke="rgb(0, 0, 0)" stroke-linecap="square" stroke-width="1.0"/>
   <polyline fill="none" points="518,175 527,185" stroke="rgb(0, 0, 0)" stroke-linecap="square" stroke-width="1.0"/>
   <polyline fill="none" points="517,135 577,154 577,215" stroke="rgb(0, 0, 0)" stroke-linecap="square" stroke-width="1.0"/>
   <polyline fill="none" points="528,185 517,195 517,235 577,216" stroke="rgb(0, 0, 0)" stroke-linecap="square" stroke-width="1.0"/>
   <ellipse cx="517.0" cy="155.0" fill="rgb(0, 0, 1)" rx="2.0" ry="2.0" stroke="none" stroke-width="1.0"/>
   <ellipse cx="517.0" cy="215.0" fill="rgb(0, 0, 1)" rx="2.0" ry="2.0" stroke="none" stroke-width="1.0"/>
   <ellipse cx="547.0" cy="145.0" fill="rgb(0, 0, 1)" rx="2.0" ry="2.0" stroke="none" stroke-width="1.0"/>
   <ellipse cx="577.0" cy="175.0" fill="rgb(0, 0, 1)" rx="2.0" ry="2.0" stroke="none" stroke-width="1.0"/>
   <ellipse cx="577.0" cy="195.0" fill="rgb(0, 0, 1)" rx="2.0" ry="2.0" stroke="none" stroke-width="1.0"/>
   <polyline fill="none" points="257,135 356,135" stroke="rgb(0, 0, 0)" stroke-linecap="square" stroke-width="2.0"/>
   <polyline fill="none" points="357,135 357,239" stroke="rgb(0, 0, 0)" stroke-linecap="square" stroke-width="2.0"/>
   <polyline fill="none" points="357,240 258,240" stroke="rgb(0, 0, 0)" stroke-linecap="square" stroke-width="2.0"/>
   <polyline fill="none" points="257,240 257,136" stroke="rgb(0, 0, 0)" stroke-linecap="square" stroke-width="2.0"/>
   <text fill="rgb(64, 64, 64)" font-family="SansSerif" font-size="10" x="262.0" y="169.0">SP_PC</text>
   <text fill="rgb(64, 64, 64)" font-family="SansSerif" font-size="10" x="262.0" y="179.0">A1</text>
   <text fill="rgb(64, 64, 64)" font-family="SansSerif" font-size="10" x="262.0" y="189.0">A2</text>
   <text fill="rgb(64, 64, 64)" font-family="SansSerif" font-size="10" x="262.0" y="199.0">A3</text>
   <text fill="rgb(64, 64, 64)" font-family="SansSerif" font-size="10" x="262.0" y="209.0">WE3</text>
   <text fill="rgb(64, 64, 64)" font-family="SansSerif" font-size="10" x="262.0" y="219.0">WD3</text>
   <text fill="rgb(64, 64, 64)" font-family="SansSerif" font-size="10" x="262.0" y="229.0">R15</text>
   <text fill="rgb(64, 64, 64)" font-family="SansSerif" font-size="10" x="332.0" y="169.0">RD1</text>
   <text fill="rgb(64, 64, 64)" font-family="SansSerif" font-size="10" x="332.0" y="179.0">RD2</text>
   <text fill="rgb(0, 0, 0)" font-family="SansSerif" font-size="12" x="273.0" y="153.0">RegisterFile</text>
   <ellipse cx="257.0" cy="165.0" fill="rgb(0, 0, 1)" rx="2.0" ry="2.0" stroke="none" stroke-width="1.0"/>
   <ellipse cx="257.0" cy="175.0" fill="rgb(0, 0, 1)" rx="2.0" ry="2.0" stroke="none" stroke-width="1.0"/>
   <ellipse cx="257.0" cy="185.0" fill="rgb(0, 0, 1)" rx="2.0" ry="2.0" stroke="none" stroke-width="1.0"/>
   <ellipse cx="257.0" cy="195.0" fill="rgb(0, 0, 1)" rx="2.0" ry="2.0" stroke="none" stroke-width="1.0"/>
   <ellipse cx="257.0" cy="205.0" fill="rgb(0, 211, 0)" rx="2.0" ry="2.0" stroke="none" stroke-width="1.0"/>
   <ellipse cx="257.0" cy="215.0" fill="rgb(0, 0, 1)" rx="2.0" ry="2.0" stroke="none" stroke-width="1.0"/>
   <ellipse cx="257.0" cy="225.0" fill="rgb(0, 0, 1)" rx="2.0" ry="2.0" stroke="none" stroke-width="1.0"/>
   <ellipse cx="357.0" cy="165.0" fill="rgb(0, 0, 1)" rx="2.0" ry="2.0" stroke="none" stroke-width="1.0"/>
   <ellipse cx="357.0" cy="175.0" fill="rgb(0, 0, 1)" rx="2.0" ry="2.0" stroke="none" stroke-width="1.0"/>
   <rect fill="rgb(255, 240, 153)" height="18" rx="10.0" ry="10.0" stroke="none" stroke-linecap="square" stroke-width="1.0" width="68" x="413" y="256"/>
   <rect fill="none" height="18" rx="10.0" ry="10.0" stroke="rgb(192, 192, 192)" stroke-linecap="square" stroke-width="1.0" width="68" x="413" y="256"/>
   <text fill="rgb(0, 0, 255)" font-family="SansSerif" font-size="12" x="429.0" y="250.0">Result</text>
   <text fill="rgb(64, 64, 64)" font-family="SansSerif" font-size="12" x="419.0" y="270.0">00000000</text>
   <ellipse cx="447.0" cy="275.0" fill="rgb(0, 0, 1)" rx="2.0" ry="2.0" stroke="none" stroke-width="1.0"/>
</svg>
