<?xml version="1.0" encoding="UTF-8" standalone="no"?>
<svg xmlns="http://www.w3.org/2000/svg" version="1.1" viewBox="0 0 1314 462">
   <polyline fill="none" points="495,326 545,326" stroke="rgb(0, 0, 1)" stroke-linecap="square" stroke-width="4.0"/>
   <polyline fill="none" points="205,396 215,396" stroke="rgb(0, 0, 1)" stroke-linecap="square" stroke-width="4.0"/>
   <polyline fill="none" points="495,216 545,216" stroke="rgb(0, 0, 1)" stroke-linecap="square" stroke-width="4.0"/>
   <polyline fill="none" points="495,256 545,256" stroke="rgb(0, 0, 1)" stroke-linecap="square" stroke-width="4.0"/>
   <polyline fill="none" points="935,256 935,266 975,266" stroke="rgb(0, 0, 1)" stroke-linecap="square" stroke-width="4.0"/>
   <polyline fill="none" points="855,276 845,276 845,356 845,386" stroke="rgb(0, 0, 1)" stroke-linecap="square" stroke-width="4.0"/>
   <polyline fill="none" points="435,256 465,256 475,256" stroke="rgb(0, 0, 1)" stroke-linecap="square" stroke-width="4.0"/>
   <polyline fill="none" points="575,206 595,206 595,196" stroke="rgb(0, 0, 1)" stroke-linecap="square" stroke-width="4.0"/>
   <polyline fill="none" points="815,356 845,356" stroke="rgb(0, 0, 1)" stroke-linecap="square" stroke-width="4.0"/>
   <polyline fill="none" points="715,366 465,366 465,346 475,346" stroke="rgb(0, 0, 1)" stroke-linecap="square" stroke-width="4.0"/>
   <polyline fill="none" points="495,346 545,346" stroke="rgb(0, 0, 1)" stroke-linecap="square" stroke-width="4.0"/>
   <polyline fill="none" points="595,206 645,206 645,226 715,226" stroke="rgb(0, 0, 1)" stroke-linecap="square" stroke-width="4.0"/>
   <polyline fill="none" points="635,96 675,96 675,256 715,256" stroke="rgb(0, 211, 0)" stroke-linecap="square" stroke-width="3.0"/>
   <polyline fill="none" points="1035,226 1095,226 1095,176 1155,176" stroke="rgb(0, 0, 1)" stroke-linecap="square" stroke-width="4.0"/>
   <polyline fill="none" points="465,216 465,196 465,46 505,46" stroke="rgb(0, 0, 1)" stroke-linecap="square" stroke-width="4.0"/>
   <polyline fill="none" points="575,336 595,336 595,326" stroke="rgb(0, 0, 1)" stroke-linecap="square" stroke-width="4.0"/>
   <polyline fill="none" points="625,136 655,136 655,106 635,106" stroke="rgb(0, 0, 1)" stroke-linecap="square" stroke-width="4.0"/>
   <polyline fill="none" points="635,86 685,86 685,356 715,356" stroke="rgb(0, 0, 1)" stroke-linecap="square" stroke-width="4.0"/>
   <polyline fill="none" points="55,256 75,256" stroke="rgb(0, 211, 0)" stroke-linecap="square" stroke-width="3.0"/>
   <polyline fill="none" points="135,216 155,216 155,376 215,376" stroke="rgb(0, 0, 1)" stroke-linecap="square" stroke-width="4.0"/>
   <polyline fill="none" points="465,196 475,196" stroke="rgb(0, 0, 1)" stroke-linecap="square" stroke-width="4.0"/>
   <polyline fill="none" points="475,216 465,216 465,256 465,276 475,276" stroke="rgb(0, 0, 1)" stroke-linecap="square" stroke-width="4.0"/>
   <polyline fill="none" points="625,156 705,156 705,216 715,216" stroke="rgb(0, 0, 1)" stroke-linecap="square" stroke-width="4.0"/>
   <polyline fill="none" points="995,126 1005,126 1005,196" stroke="rgb(0, 0, 1)" stroke-linecap="square" stroke-width="4.0"/>
   <polyline fill="none" points="885,266 935,266" stroke="rgb(0, 0, 1)" stroke-linecap="square" stroke-width="4.0"/>
   <polyline fill="none" points="905,446 905,456" stroke="rgb(0, 0, 1)" stroke-linecap="square" stroke-width="4.0"/>
   <polyline fill="none" points="935,196 935,206 835,206 835,216 815,216" stroke="rgb(0, 0, 1)" stroke-linecap="square" stroke-width="4.0"/>
   <polyline fill="none" points="495,196 545,196" stroke="rgb(0, 0, 1)" stroke-linecap="square" stroke-width="4.0"/>
   <polyline fill="none" points="495,276 545,276" stroke="rgb(0, 0, 1)" stroke-linecap="square" stroke-width="4.0"/>
   <polyline fill="none" points="595,336 645,336 645,246 715,246" stroke="rgb(0, 0, 1)" stroke-linecap="square" stroke-width="4.0"/>
   <polyline fill="none" points="465,276 465,326 465,346" stroke="rgb(0, 0, 1)" stroke-linecap="square" stroke-width="4.0"/>
   <polyline fill="none" points="935,206 975,206" stroke="rgb(0, 0, 1)" stroke-linecap="square" stroke-width="4.0"/>
   <polyline fill="none" points="815,226 835,226 835,256 855,256" stroke="rgb(0, 0, 1)" stroke-linecap="square" stroke-width="4.0"/>
   <polyline fill="none" points="75,316 105,316 105,276" stroke="rgb(0, 101, 0)" stroke-linecap="square" stroke-width="3.0"/>
   <polyline fill="none" points="575,266 595,266" stroke="rgb(0, 0, 1)" stroke-linecap="square" stroke-width="4.0"/>
   <polyline fill="none" points="1135,246 1055,246 1055,456 905,456 695,456 695,266 715,266" stroke="rgb(0, 0, 1)" stroke-linecap="square" stroke-width="4.0"/>
   <polyline fill="none" points="465,326 475,326" stroke="rgb(0, 0, 1)" stroke-linecap="square" stroke-width="4.0"/>
   <polyline fill="none" points="635,66 1005,66 1005,126" stroke="rgb(0, 0, 1)" stroke-linecap="square" stroke-width="4.0"/>
   <polyline fill="none" points="155,216 165,216" stroke="rgb(0, 0, 1)" stroke-linecap="square" stroke-width="4.0"/>
   <polyline fill="none" points="185,206 195,206" stroke="rgb(0, 0, 1)" stroke-linecap="square" stroke-width="4.0"/>
   <polyline fill="none" points="255,386 285,386 285,436 5,436 5,216 75,216" stroke="rgb(0, 0, 1)" stroke-linecap="square" stroke-width="4.0"/>
   <polyline fill="none" points="595,256 595,266 635,266 635,236 715,236" stroke="rgb(0, 0, 1)" stroke-linecap="square" stroke-width="4.0"/>
   <polyline fill="none" points="1035,246 1055,246" stroke="rgb(0, 0, 1)" stroke-linecap="square" stroke-width="4.0"/>
   <ellipse cx="155.0" cy="216.0" fill="rgb(0, 0, 1)" rx="6.0" ry="6.0" stroke="none" stroke-width="4.0"/>
   <ellipse cx="465.0" cy="346.0" fill="rgb(0, 0, 1)" rx="6.0" ry="6.0" stroke="none" stroke-width="4.0"/>
   <ellipse cx="1055.0" cy="246.0" fill="rgb(0, 0, 1)" rx="6.0" ry="6.0" stroke="none" stroke-width="4.0"/>
   <ellipse cx="845.0" cy="356.0" fill="rgb(0, 0, 1)" rx="6.0" ry="6.0" stroke="none" stroke-width="4.0"/>
   <ellipse cx="555.0" cy="156.0" fill="rgb(0, 101, 0)" rx="5.0" ry="5.0" stroke="none" stroke-width="4.0"/>
   <ellipse cx="595.0" cy="206.0" fill="rgb(0, 0, 1)" rx="6.0" ry="6.0" stroke="none" stroke-width="4.0"/>
   <ellipse cx="935.0" cy="206.0" fill="rgb(0, 0, 1)" rx="6.0" ry="6.0" stroke="none" stroke-width="4.0"/>
   <ellipse cx="465.0" cy="196.0" fill="rgb(0, 0, 1)" rx="6.0" ry="6.0" stroke="none" stroke-width="4.0"/>
   <ellipse cx="595.0" cy="266.0" fill="rgb(0, 0, 1)" rx="6.0" ry="6.0" stroke="none" stroke-width="4.0"/>
   <ellipse cx="465.0" cy="216.0" fill="rgb(0, 0, 1)" rx="6.0" ry="6.0" stroke="none" stroke-width="4.0"/>
   <ellipse cx="1005.0" cy="126.0" fill="rgb(0, 0, 1)" rx="6.0" ry="6.0" stroke="none" stroke-width="4.0"/>
   <ellipse cx="935.0" cy="266.0" fill="rgb(0, 0, 1)" rx="6.0" ry="6.0" stroke="none" stroke-width="4.0"/>
   <ellipse cx="515.0" cy="236.0" fill="rgb(0, 101, 0)" rx="5.0" ry="5.0" stroke="none" stroke-width="4.0"/>
   <ellipse cx="465.0" cy="256.0" fill="rgb(0, 0, 1)" rx="6.0" ry="6.0" stroke="none" stroke-width="4.0"/>
   <ellipse cx="595.0" cy="336.0" fill="rgb(0, 0, 1)" rx="6.0" ry="6.0" stroke="none" stroke-width="4.0"/>
   <ellipse cx="905.0" cy="456.0" fill="rgb(0, 0, 1)" rx="6.0" ry="6.0" stroke="none" stroke-width="4.0"/>
   <ellipse cx="465.0" cy="276.0" fill="rgb(0, 0, 1)" rx="6.0" ry="6.0" stroke="none" stroke-width="4.0"/>
   <ellipse cx="465.0" cy="326.0" fill="rgb(0, 0, 1)" rx="6.0" ry="6.0" stroke="none" stroke-width="4.0"/>
   <rect fill="rgb(230, 230, 230)" height="16" stroke="none" stroke-linecap="square" stroke-width="1.0" width="14" x="61" y="228"/>
   <text fill="rgb(0, 211, 0)" font-family="Monospaced" font-size="12" x="65.0" y="241.0">1</text>
   <ellipse cx="75.0" cy="236.0" fill="rgb(0, 211, 0)" rx="2.0" ry="2.0" stroke="none" stroke-width="1.0"/>
   <rect fill="rgb(255, 255, 255)" height="40" stroke="none" stroke-linecap="square" stroke-width="2.0" width="40" x="35" y="296"/>
   <polyline fill="none" points="35,296 74,296" stroke="rgb(0, 0, 0)" stroke-linecap="square" stroke-width="2.0"/>
   <polyline fill="none" points="75,296 75,335" stroke="rgb(0, 0, 0)" stroke-linecap="square" stroke-width="2.0"/>
   <polyline fill="none" points="75,336 36,336" stroke="rgb(0, 0, 0)" stroke-linecap="square" stroke-width="2.0"/>
   <polyline fill="none" points="35,336 35,297" stroke="rgb(0, 0, 0)" stroke-linecap="square" stroke-width="2.0"/>
   <polyline fill="none" points="38,332 71,332" stroke="rgb(0, 0, 255)" stroke-linecap="square" stroke-width="1.0"/>
   <polyline fill="none" points="39,309 39,333" stroke="rgb(0, 0, 255)" stroke-linecap="square" stroke-width="1.0"/>
   <polyline fill="none" points="39,311 55,311 55,331 71,331" stroke="rgb(255, 0, 0)" stroke-linecap="square" stroke-width="2.0"/>
   <text fill="rgb(0, 0, 0)" font-family="SansSerif" font-size="14" font-weight="bold" x="37.0" y="308.0">POR</text>
   <ellipse cx="75.0" cy="316.0" fill="rgb(0, 101, 0)" rx="2.0" ry="2.0" stroke="none" stroke-width="2.0"/>
   <polyline fill="none" points="1139,246 1138,246" stroke="rgb(0, 0, 1)" stroke-linecap="square" stroke-width="4.0"/>
   <polygon fill="none" points="1215,237 1225,246 1215,255 1141,255 1141,237" stroke="rgb(0, 0, 0)" stroke-linecap="square" stroke-width="2.0"/>
   <text fill="rgb(0, 0, 255)" font-family="Monospaced" font-size="12" x="1210.0" y="253.0">h</text>
   <text fill="rgb(0, 0, 0)" font-family="Monospaced" font-size="12" x="1203.0" y="251.0">a</text>
   <text fill="rgb(0, 0, 0)" font-family="Monospaced" font-size="12" x="1195.0" y="251.0">4</text>
   <text fill="rgb(0, 0, 0)" font-family="Monospaced" font-size="12" x="1187.0" y="251.0">0</text>
   <text fill="rgb(0, 0, 0)" font-family="Monospaced" font-size="12" x="1179.0" y="251.0">0</text>
   <text fill="rgb(0, 0, 0)" font-family="Monospaced" font-size="12" x="1171.0" y="251.0">0</text>
   <text fill="rgb(0, 0, 0)" font-family="Monospaced" font-size="12" x="1163.0" y="251.0">0</text>
   <text fill="rgb(0, 0, 0)" font-family="Monospaced" font-size="12" x="1155.0" y="251.0">0</text>
   <text fill="rgb(0, 0, 0)" font-family="Monospaced" font-size="12" x="1147.0" y="251.0">0</text>
   <text fill="rgb(0, 0, 255)" font-family="Monospaced" font-size="16" font-weight="bold" x="1227.0" y="254.0">ALUResult</text>
   <ellipse cx="1135.0" cy="246.0" fill="rgb(0, 0, 1)" rx="2.0" ry="2.0" stroke="none" stroke-width="2.0"/>
   <polyline fill="none" points="1159,176 1158,176" stroke="rgb(0, 0, 1)" stroke-linecap="square" stroke-width="4.0"/>
   <polygon fill="none" points="1215,167 1225,176 1215,185 1161,185 1161,167" stroke="rgb(0, 0, 0)" stroke-linecap="square" stroke-width="2.0"/>
   <text fill="rgb(0, 0, 255)" font-family="Monospaced" font-size="12" x="1210.0" y="183.0">b</text>
   <text fill="rgb(0, 0, 0)" font-family="Monospaced" font-size="12" x="1202.0" y="180.0">0</text>
   <text fill="rgb(0, 0, 0)" font-family="Monospaced" font-size="12" x="1192.0" y="180.0">0</text>
   <text fill="rgb(0, 0, 0)" font-family="Monospaced" font-size="12" x="1182.0" y="180.0">0</text>
   <text fill="rgb(0, 0, 0)" font-family="Monospaced" font-size="12" x="1172.0" y="180.0">0</text>
   <text fill="rgb(0, 0, 255)" font-family="Monospaced" font-size="16" font-weight="bold" x="1227.0" y="184.0">ALUFlags</text>
   <ellipse cx="1155.0" cy="176.0" fill="rgb(0, 0, 1)" rx="2.0" ry="2.0" stroke="none" stroke-width="2.0"/>
   <polyline fill="none" points="185,206 171,206" stroke="rgb(0, 0, 1)" stroke-linecap="square" stroke-width="3.0"/>
   <polyline fill="none" points="171,207 171,210 166,215" stroke="rgb(0, 0, 1)" stroke-linecap="square" stroke-width="5.0"/>
   <text fill="rgb(0, 0, 0)" font-family="SansSerif" font-size="7" x="174.0" y="214.0">16-1</text>
   <ellipse cx="165.0" cy="216.0" fill="rgb(0, 0, 1)" rx="2.0" ry="2.0" stroke="none" stroke-width="5.0"/>
   <ellipse cx="185.0" cy="206.0" fill="rgb(0, 0, 1)" rx="2.0" ry="2.0" stroke="none" stroke-width="5.0"/>
   <rect fill="rgb(230, 230, 230)" height="16" stroke="none" stroke-linecap="square" stroke-width="1.0" width="63" x="142" y="388"/>
   <text fill="rgb(0, 0, 0)" font-family="Monospaced" font-size="12" x="145.0" y="401.0">00000002</text>
   <ellipse cx="205.0" cy="396.0" fill="rgb(0, 0, 1)" rx="2.0" ry="2.0" stroke="none" stroke-width="1.0"/>
   <polyline fill="none" points="495,196 481,196" stroke="rgb(0, 0, 1)" stroke-linecap="square" stroke-width="3.0"/>
   <polyline fill="none" points="476,196 481,196" stroke="rgb(0, 0, 1)" stroke-linecap="square" stroke-width="5.0"/>
   <ellipse cx="481.0" cy="195.0" fill="rgb(0, 0, 1)" rx="3.5" ry="3.5" stroke="none" stroke-width="5.0"/>
   <text fill="rgb(0, 0, 0)" font-family="SansSerif" font-size="7" x="484.0" y="193.0">5-3</text>
   <ellipse cx="475.0" cy="196.0" fill="rgb(0, 0, 1)" rx="2.0" ry="2.0" stroke="none" stroke-width="5.0"/>
   <ellipse cx="495.0" cy="196.0" fill="rgb(0, 0, 1)" rx="2.0" ry="2.0" stroke="none" stroke-width="5.0"/>
   <polyline fill="none" points="495,216 481,216" stroke="rgb(0, 0, 1)" stroke-linecap="square" stroke-width="3.0"/>
   <polyline fill="none" points="476,216 481,216" stroke="rgb(0, 0, 1)" stroke-linecap="square" stroke-width="5.0"/>
   <ellipse cx="481.0" cy="215.0" fill="rgb(0, 0, 1)" rx="3.5" ry="3.5" stroke="none" stroke-width="5.0"/>
   <text fill="rgb(0, 0, 0)" font-family="SansSerif" font-size="7" x="484.0" y="213.0">10-8</text>
   <ellipse cx="475.0" cy="216.0" fill="rgb(0, 0, 1)" rx="2.0" ry="2.0" stroke="none" stroke-width="5.0"/>
   <ellipse cx="495.0" cy="216.0" fill="rgb(0, 0, 1)" rx="2.0" ry="2.0" stroke="none" stroke-width="5.0"/>
   <polyline fill="none" points="495,256 481,256" stroke="rgb(0, 0, 1)" stroke-linecap="square" stroke-width="3.0"/>
   <polyline fill="none" points="476,256 481,256" stroke="rgb(0, 0, 1)" stroke-linecap="square" stroke-width="5.0"/>
   <ellipse cx="481.0" cy="255.0" fill="rgb(0, 0, 1)" rx="3.5" ry="3.5" stroke="none" stroke-width="5.0"/>
   <text fill="rgb(0, 0, 0)" font-family="SansSerif" font-size="7" x="484.0" y="253.0">8-6</text>
   <ellipse cx="475.0" cy="256.0" fill="rgb(0, 0, 1)" rx="2.0" ry="2.0" stroke="none" stroke-width="5.0"/>
   <ellipse cx="495.0" cy="256.0" fill="rgb(0, 0, 1)" rx="2.0" ry="2.0" stroke="none" stroke-width="5.0"/>
   <polyline fill="none" points="495,276 481,276" stroke="rgb(0, 0, 1)" stroke-linecap="square" stroke-width="3.0"/>
   <polyline fill="none" points="476,276 481,276" stroke="rgb(0, 0, 1)" stroke-linecap="square" stroke-width="5.0"/>
   <ellipse cx="481.0" cy="275.0" fill="rgb(0, 0, 1)" rx="3.5" ry="3.5" stroke="none" stroke-width="5.0"/>
   <text fill="rgb(0, 0, 0)" font-family="SansSerif" font-size="7" x="484.0" y="273.0">10-8</text>
   <ellipse cx="475.0" cy="276.0" fill="rgb(0, 0, 1)" rx="2.0" ry="2.0" stroke="none" stroke-width="5.0"/>
   <ellipse cx="495.0" cy="276.0" fill="rgb(0, 0, 1)" rx="2.0" ry="2.0" stroke="none" stroke-width="5.0"/>
   <polyline fill="none" points="495,326 481,326" stroke="rgb(0, 0, 1)" stroke-linecap="square" stroke-width="3.0"/>
   <polyline fill="none" points="476,326 481,326" stroke="rgb(0, 0, 1)" stroke-linecap="square" stroke-width="5.0"/>
   <ellipse cx="481.0" cy="325.0" fill="rgb(0, 0, 1)" rx="3.5" ry="3.5" stroke="none" stroke-width="5.0"/>
   <text fill="rgb(0, 0, 0)" font-family="SansSerif" font-size="7" x="484.0" y="323.0">2-0</text>
   <ellipse cx="475.0" cy="326.0" fill="rgb(0, 0, 1)" rx="2.0" ry="2.0" stroke="none" stroke-width="5.0"/>
   <ellipse cx="495.0" cy="326.0" fill="rgb(0, 0, 1)" rx="2.0" ry="2.0" stroke="none" stroke-width="5.0"/>
   <polyline fill="none" points="495,346 481,346" stroke="rgb(0, 0, 1)" stroke-linecap="square" stroke-width="3.0"/>
   <polyline fill="none" points="476,346 481,346" stroke="rgb(0, 0, 1)" stroke-linecap="square" stroke-width="5.0"/>
   <ellipse cx="481.0" cy="345.0" fill="rgb(0, 0, 1)" rx="3.5" ry="3.5" stroke="none" stroke-width="5.0"/>
   <text fill="rgb(0, 0, 0)" font-family="SansSerif" font-size="7" x="484.0" y="343.0">10-8</text>
   <ellipse cx="475.0" cy="346.0" fill="rgb(0, 0, 1)" rx="2.0" ry="2.0" stroke="none" stroke-width="5.0"/>
   <ellipse cx="495.0" cy="346.0" fill="rgb(0, 0, 1)" rx="2.0" ry="2.0" stroke="none" stroke-width="5.0"/>
   <polyline fill="none" points="625,156 625,142" stroke="rgb(0, 0, 1)" stroke-linecap="square" stroke-width="3.0"/>
   <polyline fill="none" points="555,156 615,156 615,142" stroke="rgb(0, 101, 0)" stroke-linecap="square" stroke-width="3.0"/>
   <polyline fill="none" points="625,137 625,142" stroke="rgb(0, 0, 1)" stroke-linecap="square" stroke-width="5.0"/>
   <polyline fill="none" points="624,142 616,142" stroke="rgb(0, 0, 1)" stroke-linecap="square" stroke-width="5.0"/>
   <text fill="rgb(0, 0, 0)" font-family="SansSerif" font-size="7" transform="rotate(90.0,628.0,145.0)" x="628.0" y="145.0">1-0</text>
   <text fill="rgb(0, 0, 0)" font-family="SansSerif" font-size="7" transform="rotate(90.0,618.0,145.0)" x="618.0" y="145.0">2</text>
   <ellipse cx="625.0" cy="136.0" fill="rgb(0, 0, 1)" rx="2.0" ry="2.0" stroke="none" stroke-width="5.0"/>
   <ellipse cx="625.0" cy="156.0" fill="rgb(0, 0, 1)" rx="2.0" ry="2.0" stroke="none" stroke-width="5.0"/>
   <ellipse cx="615.0" cy="156.0" fill="rgb(0, 101, 0)" rx="2.0" ry="2.0" stroke="none" stroke-width="5.0"/>
   <polyline fill="none" points="35,246 54,246" stroke="rgb(0, 0, 0)" stroke-linecap="square" stroke-width="2.0"/>
   <polyline fill="none" points="55,246 55,265" stroke="rgb(0, 0, 0)" stroke-linecap="square" stroke-width="2.0"/>
   <polyline fill="none" points="55,266 36,266" stroke="rgb(0, 0, 0)" stroke-linecap="square" stroke-width="2.0"/>
   <polyline fill="none" points="35,266 35,247" stroke="rgb(0, 0, 0)" stroke-linecap="square" stroke-width="2.0"/>
   <polyline fill="none" points="39,256 39,252 45,252 45,260 51,260 51,256" stroke="rgb(0, 211, 0)" stroke-linecap="square" stroke-width="2.0"/>
   <ellipse cx="55.0" cy="256.0" fill="rgb(0, 211, 0)" rx="2.0" ry="2.0" stroke="none" stroke-width="2.0"/>
   <polyline fill="none" points="555,190 555,186 555,156 515,156 515,236" stroke="rgb(0, 101, 0)" stroke-linecap="square" stroke-width="3.0"/>
   <ellipse cx="555.0" cy="191.0" fill="rgb(192, 192, 192)" rx="3.0" ry="3.0" stroke="none" stroke-width="1.0"/>
   <text fill="rgb(128, 128, 128)" font-family="SansSerif" font-size="12" x="548.0" y="201.0">0</text>
   <polygon fill="none" points="545,186 575,196 575,216 545,226" stroke="rgb(0, 0, 0)" stroke-linecap="square" stroke-width="2.0"/>
   <text fill="rgb(0, 0, 0)" font-family="SansSerif" font-size="12" x="548.0" y="213.0">MUX</text>
   <ellipse cx="545.0" cy="196.0" fill="rgb(0, 0, 1)" rx="2.0" ry="2.0" stroke="none" stroke-width="2.0"/>
   <ellipse cx="545.0" cy="216.0" fill="rgb(0, 0, 1)" rx="2.0" ry="2.0" stroke="none" stroke-width="2.0"/>
   <ellipse cx="555.0" cy="186.0" fill="rgb(0, 101, 0)" rx="2.0" ry="2.0" stroke="none" stroke-width="2.0"/>
   <ellipse cx="575.0" cy="206.0" fill="rgb(0, 0, 1)" rx="2.0" ry="2.0" stroke="none" stroke-width="2.0"/>
   <ellipse cx="555.0" cy="251.0" fill="rgb(192, 192, 192)" rx="3.0" ry="3.0" stroke="none" stroke-width="1.0"/>
   <text fill="rgb(128, 128, 128)" font-family="SansSerif" font-size="12" x="548.0" y="261.0">0</text>
   <polygon fill="none" points="545,246 575,256 575,276 545,286" stroke="rgb(0, 0, 0)" stroke-linecap="square" stroke-width="2.0"/>
   <text fill="rgb(0, 0, 0)" font-family="SansSerif" font-size="12" x="548.0" y="273.0">MUX</text>
   <ellipse cx="545.0" cy="256.0" fill="rgb(0, 0, 1)" rx="2.0" ry="2.0" stroke="none" stroke-width="2.0"/>
   <ellipse cx="545.0" cy="276.0" fill="rgb(0, 0, 1)" rx="2.0" ry="2.0" stroke="none" stroke-width="2.0"/>
   <ellipse cx="555.0" cy="246.0" fill="rgb(0, 101, 0)" rx="2.0" ry="2.0" stroke="none" stroke-width="2.0"/>
   <ellipse cx="575.0" cy="266.0" fill="rgb(0, 0, 1)" rx="2.0" ry="2.0" stroke="none" stroke-width="2.0"/>
   <polyline fill="none" points="555,320 555,316 555,306 515,306 515,236 555,236 555,246 555,250" stroke="rgb(0, 101, 0)" stroke-linecap="square" stroke-width="3.0"/>
   <ellipse cx="555.0" cy="321.0" fill="rgb(192, 192, 192)" rx="3.0" ry="3.0" stroke="none" stroke-width="1.0"/>
   <text fill="rgb(128, 128, 128)" font-family="SansSerif" font-size="12" x="548.0" y="331.0">0</text>
   <polygon fill="none" points="545,316 575,326 575,346 545,356" stroke="rgb(0, 0, 0)" stroke-linecap="square" stroke-width="2.0"/>
   <text fill="rgb(0, 0, 0)" font-family="SansSerif" font-size="12" x="548.0" y="343.0">MUX</text>
   <ellipse cx="545.0" cy="326.0" fill="rgb(0, 0, 1)" rx="2.0" ry="2.0" stroke="none" stroke-width="2.0"/>
   <ellipse cx="545.0" cy="346.0" fill="rgb(0, 0, 1)" rx="2.0" ry="2.0" stroke="none" stroke-width="2.0"/>
   <ellipse cx="555.0" cy="316.0" fill="rgb(0, 101, 0)" rx="2.0" ry="2.0" stroke="none" stroke-width="2.0"/>
   <ellipse cx="575.0" cy="336.0" fill="rgb(0, 0, 1)" rx="2.0" ry="2.0" stroke="none" stroke-width="2.0"/>
   <polyline fill="none" points="865,250 865,246 865,76 635,76" stroke="rgb(0, 101, 0)" stroke-linecap="square" stroke-width="3.0"/>
   <ellipse cx="865.0" cy="251.0" fill="rgb(192, 192, 192)" rx="3.0" ry="3.0" stroke="none" stroke-width="1.0"/>
   <text fill="rgb(128, 128, 128)" font-family="SansSerif" font-size="12" x="858.0" y="261.0">0</text>
   <polygon fill="none" points="855,246 885,256 885,276 855,286" stroke="rgb(0, 0, 0)" stroke-linecap="square" stroke-width="2.0"/>
   <text fill="rgb(0, 0, 0)" font-family="SansSerif" font-size="12" x="858.0" y="273.0">MUX</text>
   <ellipse cx="855.0" cy="256.0" fill="rgb(0, 0, 1)" rx="2.0" ry="2.0" stroke="none" stroke-width="2.0"/>
   <ellipse cx="855.0" cy="276.0" fill="rgb(0, 0, 1)" rx="2.0" ry="2.0" stroke="none" stroke-width="2.0"/>
   <ellipse cx="865.0" cy="246.0" fill="rgb(0, 101, 0)" rx="2.0" ry="2.0" stroke="none" stroke-width="2.0"/>
   <ellipse cx="885.0" cy="266.0" fill="rgb(0, 0, 1)" rx="2.0" ry="2.0" stroke="none" stroke-width="2.0"/>
   <polyline fill="none" points="215,366 254,366" stroke="rgb(0, 0, 0)" stroke-linecap="square" stroke-width="2.0"/>
   <polyline fill="none" points="255,366 255,405" stroke="rgb(0, 0, 0)" stroke-linecap="square" stroke-width="2.0"/>
   <polyline fill="none" points="255,406 216,406" stroke="rgb(0, 0, 0)" stroke-linecap="square" stroke-width="2.0"/>
   <polyline fill="none" points="215,406 215,367" stroke="rgb(0, 0, 0)" stroke-linecap="square" stroke-width="2.0"/>
   <ellipse cx="215.0" cy="376.0" fill="rgb(0, 0, 1)" rx="2.0" ry="2.0" stroke="none" stroke-width="1.0"/>
   <ellipse cx="215.0" cy="396.0" fill="rgb(0, 0, 1)" rx="2.0" ry="2.0" stroke="none" stroke-width="1.0"/>
   <ellipse cx="255.0" cy="386.0" fill="rgb(0, 0, 1)" rx="2.0" ry="2.0" stroke="none" stroke-width="1.0"/>
   <ellipse cx="235.0" cy="366.0" fill="rgb(40, 39, 255)" rx="2.0" ry="2.0" stroke="none" stroke-width="1.0"/>
   <text fill="rgb(153, 153, 153)" font-family="SansSerif" font-size="12" x="226.0" y="382.0">c in</text>
   <ellipse cx="235.0" cy="406.0" fill="rgb(0, 101, 0)" rx="2.0" ry="2.0" stroke="none" stroke-width="1.0"/>
   <text fill="rgb(153, 153, 153)" font-family="SansSerif" font-size="12" x="222.0" y="403.0">c out</text>
   <polyline fill="none" points="240,386 250,386" stroke="rgb(0, 0, 0)" stroke-linecap="square" stroke-width="2.0"/>
   <polyline fill="none" points="245,381 245,391" stroke="rgb(0, 0, 0)" stroke-linecap="square" stroke-width="2.0"/>
   <rect fill="rgb(192, 192, 192)" height="16" stroke="none" stroke-linecap="square" stroke-width="1.0" width="66" x="72" y="187"/>
   <text fill="rgb(64, 64, 64)" font-family="SansSerif" font-size="12" x="77.0" y="201.0">00000004</text>
   <polyline fill="none" points="125,211 130,211 130,271 90,271 90,266" stroke="rgb(0, 0, 0)" stroke-linecap="square" stroke-width="2.0"/>
   <polyline fill="none" points="130,216 135,216 135,276 95,276 95,271" stroke="rgb(0, 0, 0)" stroke-linecap="square" stroke-width="2.0"/>
   <polyline fill="none" points="75,216 83,216" stroke="rgb(0, 0, 1)" stroke-linecap="square" stroke-width="5.0"/>
   <polyline fill="none" points="127,216 135,216" stroke="rgb(0, 0, 1)" stroke-linecap="square" stroke-width="5.0"/>
   <polyline fill="none" points="85,206 124,206" stroke="rgb(0, 0, 0)" stroke-linecap="square" stroke-width="2.0"/>
   <polyline fill="none" points="125,206 125,265" stroke="rgb(0, 0, 0)" stroke-linecap="square" stroke-width="2.0"/>
   <polyline fill="none" points="125,266 86,266" stroke="rgb(0, 0, 0)" stroke-linecap="square" stroke-width="2.0"/>
   <polyline fill="none" points="85,266 85,207" stroke="rgb(0, 0, 0)" stroke-linecap="square" stroke-width="2.0"/>
   <text fill="rgb(0, 0, 0)" font-family="SansSerif" font-size="12" x="89.0" y="221.0">D</text>
   <text fill="rgb(0, 0, 0)" font-family="SansSerif" font-size="12" x="112.0" y="221.0">Q</text>
   <polyline fill="none" points="105,267 105,276" stroke="rgb(0, 0, 0)" stroke-linecap="square" stroke-width="2.0"/>
   <text fill="rgb(153, 153, 153)" font-family="SansSerif" font-size="12" x="101.0" y="261.0">R</text>
   <text fill="rgb(0, 0, 0)" font-family="SansSerif" font-size="12" x="88.0" y="241.0">WE</text>
   <polyline fill="none" points="75,236 84,236" stroke="rgb(0, 0, 0)" stroke-linecap="square" stroke-width="2.0"/>
   <polyline fill="none" points="86,252 93,256 86,260" stroke="rgb(0, 0, 0)" stroke-linecap="square" stroke-width="2.0"/>
   <polyline fill="none" points="75,256 84,256" stroke="rgb(0, 0, 0)" stroke-linecap="square" stroke-width="2.0"/>
   <text fill="rgb(0, 0, 255)" font-family="SansSerif" font-size="16" font-weight="bold" x="94.0" y="180.0">PC</text>
   <ellipse cx="75.0" cy="216.0" fill="rgb(0, 0, 1)" rx="2.0" ry="2.0" stroke="none" stroke-width="1.0"/>
   <ellipse cx="135.0" cy="216.0" fill="rgb(0, 0, 1)" rx="2.0" ry="2.0" stroke="none" stroke-width="1.0"/>
   <ellipse cx="105.0" cy="276.0" fill="rgb(0, 101, 0)" rx="2.0" ry="2.0" stroke="none" stroke-width="1.0"/>
   <ellipse cx="75.0" cy="236.0" fill="rgb(0, 211, 0)" rx="2.0" ry="2.0" stroke="none" stroke-width="1.0"/>
   <ellipse cx="75.0" cy="256.0" fill="rgb(0, 211, 0)" rx="2.0" ry="2.0" stroke="none" stroke-width="1.0"/>
   <polyline fill="none" points="195,196 434,196" stroke="rgb(0, 0, 0)" stroke-linecap="square" stroke-width="2.0"/>
   <polyline fill="none" points="435,196 435,335" stroke="rgb(0, 0, 0)" stroke-linecap="square" stroke-width="2.0"/>
   <polyline fill="none" points="435,336 196,336" stroke="rgb(0, 0, 0)" stroke-linecap="square" stroke-width="2.0"/>
   <polyline fill="none" points="195,336 195,197" stroke="rgb(0, 0, 0)" stroke-linecap="square" stroke-width="2.0"/>
   <ellipse cx="435.0" cy="256.0" fill="rgb(0, 0, 1)" rx="2.0" ry="2.0" stroke="none" stroke-width="1.0"/>
   <text fill="rgb(0, 0, 0)" font-family="SansSerif" font-size="12" x="423.0" y="263.0">D</text>
   <ellipse cx="195.0" cy="206.0" fill="rgb(0, 0, 1)" rx="2.0" ry="2.0" stroke="none" stroke-width="1.0"/>
   <text fill="rgb(0, 0, 0)" font-family="SansSerif" font-size="12" x="198.0" y="213.0">A</text>
   <text fill="rgb(0, 0, 0)" font-family="SansSerif" font-size="12" x="277.0" y="209.0">ROM 64K x 16</text>
   <rect fill="rgb(192, 192, 192)" height="108" stroke="none" stroke-linecap="square" stroke-width="1.0" width="146" x="242" y="211"/>
   <polyline fill="none" points="272,211 387,211" stroke="rgb(64, 64, 64)" stroke-linecap="square" stroke-width="1.0"/>
   <polyline fill="none" points="388,211 388,318" stroke="rgb(64, 64, 64)" stroke-linecap="square" stroke-width="1.0"/>
   <polyline fill="none" points="388,319 273,319" stroke="rgb(64, 64, 64)" stroke-linecap="square" stroke-width="1.0"/>
   <polyline fill="none" points="272,319 272,212" stroke="rgb(64, 64, 64)" stroke-linecap="square" stroke-width="1.0"/>
   <text fill="rgb(0, 0, 0)" font-family="SansSerif" font-size="12" x="243.0" y="227.0">0000</text>
   <text fill="rgb(0, 0, 0)" font-family="SansSerif" font-size="12" x="272.0" y="227.0">2534</text>
   <text fill="rgb(0, 0, 0)" font-family="SansSerif" font-size="12" x="301.0" y="227.0">2316</text>
   <rect fill="rgb(64, 64, 64)" height="18" stroke="none" stroke-linecap="square" stroke-width="1.0" width="31" x="329" y="211"/>
   <text fill="rgb(255, 255, 255)" font-family="SansSerif" font-size="12" x="331.0" y="227.0">18ec</text>
   <text fill="rgb(0, 0, 0)" font-family="SansSerif" font-size="12" x="359.0" y="227.0">0000</text>
   <text fill="rgb(0, 0, 0)" font-family="SansSerif" font-size="12" x="243.0" y="245.0">0004</text>
   <text fill="rgb(0, 0, 0)" font-family="SansSerif" font-size="12" x="272.0" y="245.0">0000</text>
   <text fill="rgb(0, 0, 0)" font-family="SansSerif" font-size="12" x="301.0" y="245.0">0000</text>
   <text fill="rgb(0, 0, 0)" font-family="SansSerif" font-size="12" x="330.0" y="245.0">0000</text>
   <text fill="rgb(0, 0, 0)" font-family="SansSerif" font-size="12" x="359.0" y="245.0">0000</text>
   <text fill="rgb(0, 0, 0)" font-family="SansSerif" font-size="12" x="243.0" y="263.0">0008</text>
   <text fill="rgb(0, 0, 0)" font-family="SansSerif" font-size="12" x="272.0" y="263.0">0000</text>
   <text fill="rgb(0, 0, 0)" font-family="SansSerif" font-size="12" x="301.0" y="263.0">0000</text>
   <text fill="rgb(0, 0, 0)" font-family="SansSerif" font-size="12" x="330.0" y="263.0">0000</text>
   <text fill="rgb(0, 0, 0)" font-family="SansSerif" font-size="12" x="359.0" y="263.0">0000</text>
   <text fill="rgb(0, 0, 0)" font-family="SansSerif" font-size="12" x="244.0" y="281.0">000c</text>
   <text fill="rgb(0, 0, 0)" font-family="SansSerif" font-size="12" x="272.0" y="281.0">0000</text>
   <text fill="rgb(0, 0, 0)" font-family="SansSerif" font-size="12" x="301.0" y="281.0">0000</text>
   <text fill="rgb(0, 0, 0)" font-family="SansSerif" font-size="12" x="330.0" y="281.0">0000</text>
   <text fill="rgb(0, 0, 0)" font-family="SansSerif" font-size="12" x="359.0" y="281.0">0000</text>
   <text fill="rgb(0, 0, 0)" font-family="SansSerif" font-size="12" x="243.0" y="299.0">0010</text>
   <text fill="rgb(0, 0, 0)" font-family="SansSerif" font-size="12" x="272.0" y="299.0">0000</text>
   <text fill="rgb(0, 0, 0)" font-family="SansSerif" font-size="12" x="301.0" y="299.0">0000</text>
   <text fill="rgb(0, 0, 0)" font-family="SansSerif" font-size="12" x="330.0" y="299.0">0000</text>
   <text fill="rgb(0, 0, 0)" font-family="SansSerif" font-size="12" x="359.0" y="299.0">0000</text>
   <text fill="rgb(0, 0, 0)" font-family="SansSerif" font-size="12" x="243.0" y="317.0">0014</text>
   <text fill="rgb(0, 0, 0)" font-family="SansSerif" font-size="12" x="272.0" y="317.0">0000</text>
   <text fill="rgb(0, 0, 0)" font-family="SansSerif" font-size="12" x="301.0" y="317.0">0000</text>
   <text fill="rgb(0, 0, 0)" font-family="SansSerif" font-size="12" x="330.0" y="317.0">0000</text>
   <text fill="rgb(0, 0, 0)" font-family="SansSerif" font-size="12" x="359.0" y="317.0">0000</text>
   <text fill="rgb(0, 0, 0)" font-family="SansSerif" font-size="12" x="980.0" y="216.0">A</text>
   <text fill="rgb(0, 0, 0)" font-family="SansSerif" font-size="12" x="980.0" y="266.0">B</text>
   <text fill="rgb(0, 0, 0)" font-family="SansSerif" font-size="12" x="994.0" y="250.0">Result</text>
   <text fill="rgb(0, 0, 0)" font-family="SansSerif" font-size="12" x="998.0" y="229.0">Flags</text>
   <text fill="rgb(0, 0, 0)" font-family="SansSerif" font-size="12" x="997.0" y="210.0">ctrl</text>
   <polyline fill="none" points="975,187 975,226" stroke="rgb(0, 0, 0)" stroke-linecap="square" stroke-width="1.0"/>
   <polyline fill="none" points="976,226 985,236" stroke="rgb(0, 0, 0)" stroke-linecap="square" stroke-width="1.0"/>
   <polyline fill="none" points="975,186 1035,205 1035,266" stroke="rgb(0, 0, 0)" stroke-linecap="square" stroke-width="1.0"/>
   <polyline fill="none" points="986,236 975,246 975,286 1035,267" stroke="rgb(0, 0, 0)" stroke-linecap="square" stroke-width="1.0"/>
   <ellipse cx="975.0" cy="206.0" fill="rgb(0, 0, 1)" rx="2.0" ry="2.0" stroke="none" stroke-width="1.0"/>
   <ellipse cx="975.0" cy="266.0" fill="rgb(0, 0, 1)" rx="2.0" ry="2.0" stroke="none" stroke-width="1.0"/>
   <ellipse cx="1005.0" cy="196.0" fill="rgb(0, 0, 1)" rx="2.0" ry="2.0" stroke="none" stroke-width="1.0"/>
   <ellipse cx="1035.0" cy="226.0" fill="rgb(0, 0, 1)" rx="2.0" ry="2.0" stroke="none" stroke-width="1.0"/>
   <ellipse cx="1035.0" cy="246.0" fill="rgb(0, 0, 1)" rx="2.0" ry="2.0" stroke="none" stroke-width="1.0"/>
   <polyline fill="none" points="505,6 634,6" stroke="rgb(0, 0, 0)" stroke-linecap="square" stroke-width="2.0"/>
   <polyline fill="none" points="635,6 635,120" stroke="rgb(0, 0, 0)" stroke-linecap="square" stroke-width="2.0"/>
   <polyline fill="none" points="635,121 506,121" stroke="rgb(0, 0, 0)" stroke-linecap="square" stroke-width="2.0"/>
   <polyline fill="none" points="505,121 505,7" stroke="rgb(0, 0, 0)" stroke-linecap="square" stroke-width="2.0"/>
   <text fill="rgb(64, 64, 64)" font-family="SansSerif" font-size="10" x="510.0" y="40.0">ALUFlags</text>
   <text fill="rgb(64, 64, 64)" font-family="SansSerif" font-size="10" x="510.0" y="50.0">Instr</text>
   <text fill="rgb(64, 64, 64)" font-family="SansSerif" font-size="10" x="600.0" y="40.0">PCSrc</text>
   <text fill="rgb(64, 64, 64)" font-family="SansSerif" font-size="10" x="574.0" y="50.0">MemToReg</text>
   <text fill="rgb(64, 64, 64)" font-family="SansSerif" font-size="10" x="582.0" y="60.0">MemWrite</text>
   <text fill="rgb(64, 64, 64)" font-family="SansSerif" font-size="10" x="576.0" y="70.0">ALUControl</text>
   <text fill="rgb(64, 64, 64)" font-family="SansSerif" font-size="10" x="594.0" y="80.0">ALUSrc</text>
   <text fill="rgb(64, 64, 64)" font-family="SansSerif" font-size="10" x="593.0" y="90.0">ImmSrc</text>
   <text fill="rgb(64, 64, 64)" font-family="SansSerif" font-size="10" x="587.0" y="100.0">RegWrite</text>
   <text fill="rgb(64, 64, 64)" font-family="SansSerif" font-size="10" x="595.0" y="110.0">RegSrc</text>
   <text fill="rgb(0, 0, 0)" font-family="SansSerif" font-size="12" x="535.0" y="24.0">Control_Unit</text>
   <ellipse cx="505.0" cy="36.0" fill="rgb(0, 0, 1)" rx="2.0" ry="2.0" stroke="none" stroke-width="1.0"/>
   <ellipse cx="505.0" cy="46.0" fill="rgb(0, 0, 1)" rx="2.0" ry="2.0" stroke="none" stroke-width="1.0"/>
   <ellipse cx="635.0" cy="36.0" fill="rgb(0, 101, 0)" rx="2.0" ry="2.0" stroke="none" stroke-width="1.0"/>
   <ellipse cx="635.0" cy="46.0" fill="rgb(0, 101, 0)" rx="2.0" ry="2.0" stroke="none" stroke-width="1.0"/>
   <ellipse cx="635.0" cy="56.0" fill="rgb(0, 101, 0)" rx="2.0" ry="2.0" stroke="none" stroke-width="1.0"/>
   <ellipse cx="635.0" cy="66.0" fill="rgb(0, 0, 1)" rx="2.0" ry="2.0" stroke="none" stroke-width="1.0"/>
   <ellipse cx="635.0" cy="76.0" fill="rgb(0, 101, 0)" rx="2.0" ry="2.0" stroke="none" stroke-width="1.0"/>
   <ellipse cx="635.0" cy="86.0" fill="rgb(0, 0, 1)" rx="2.0" ry="2.0" stroke="none" stroke-width="1.0"/>
   <ellipse cx="635.0" cy="96.0" fill="rgb(0, 211, 0)" rx="2.0" ry="2.0" stroke="none" stroke-width="1.0"/>
   <ellipse cx="635.0" cy="106.0" fill="rgb(0, 0, 1)" rx="2.0" ry="2.0" stroke="none" stroke-width="1.0"/>
   <polyline fill="none" points="715,186 814,186" stroke="rgb(0, 0, 0)" stroke-linecap="square" stroke-width="2.0"/>
   <polyline fill="none" points="815,186 815,290" stroke="rgb(0, 0, 0)" stroke-linecap="square" stroke-width="2.0"/>
   <polyline fill="none" points="815,291 716,291" stroke="rgb(0, 0, 0)" stroke-linecap="square" stroke-width="2.0"/>
   <polyline fill="none" points="715,291 715,187" stroke="rgb(0, 0, 0)" stroke-linecap="square" stroke-width="2.0"/>
   <text fill="rgb(64, 64, 64)" font-family="SansSerif" font-size="10" x="720.0" y="220.0">SP_PC</text>
   <text fill="rgb(64, 64, 64)" font-family="SansSerif" font-size="10" x="720.0" y="230.0">A1</text>
   <text fill="rgb(64, 64, 64)" font-family="SansSerif" font-size="10" x="720.0" y="240.0">A2</text>
   <text fill="rgb(64, 64, 64)" font-family="SansSerif" font-size="10" x="720.0" y="250.0">A3</text>
   <text fill="rgb(64, 64, 64)" font-family="SansSerif" font-size="10" x="720.0" y="260.0">WE3</text>
   <text fill="rgb(64, 64, 64)" font-family="SansSerif" font-size="10" x="720.0" y="270.0">WD3</text>
   <text fill="rgb(64, 64, 64)" font-family="SansSerif" font-size="10" x="720.0" y="280.0">R15</text>
   <text fill="rgb(64, 64, 64)" font-family="SansSerif" font-size="10" x="790.0" y="220.0">RD1</text>
   <text fill="rgb(64, 64, 64)" font-family="SansSerif" font-size="10" x="790.0" y="230.0">RD2</text>
   <text fill="rgb(0, 0, 0)" font-family="SansSerif" font-size="12" x="731.0" y="204.0">RegisterFile</text>
   <ellipse cx="715.0" cy="216.0" fill="rgb(0, 0, 1)" rx="2.0" ry="2.0" stroke="none" stroke-width="1.0"/>
   <ellipse cx="715.0" cy="226.0" fill="rgb(0, 0, 1)" rx="2.0" ry="2.0" stroke="none" stroke-width="1.0"/>
   <ellipse cx="715.0" cy="236.0" fill="rgb(0, 0, 1)" rx="2.0" ry="2.0" stroke="none" stroke-width="1.0"/>
   <ellipse cx="715.0" cy="246.0" fill="rgb(0, 0, 1)" rx="2.0" ry="2.0" stroke="none" stroke-width="1.0"/>
   <ellipse cx="715.0" cy="256.0" fill="rgb(0, 211, 0)" rx="2.0" ry="2.0" stroke="none" stroke-width="1.0"/>
   <ellipse cx="715.0" cy="266.0" fill="rgb(0, 0, 1)" rx="2.0" ry="2.0" stroke="none" stroke-width="1.0"/>
   <ellipse cx="715.0" cy="276.0" fill="rgb(0, 0, 1)" rx="2.0" ry="2.0" stroke="none" stroke-width="1.0"/>
   <ellipse cx="815.0" cy="216.0" fill="rgb(0, 0, 1)" rx="2.0" ry="2.0" stroke="none" stroke-width="1.0"/>
   <ellipse cx="815.0" cy="226.0" fill="rgb(0, 0, 1)" rx="2.0" ry="2.0" stroke="none" stroke-width="1.0"/>
   <polyline fill="none" points="715,326 814,326" stroke="rgb(0, 0, 0)" stroke-linecap="square" stroke-width="2.0"/>
   <polyline fill="none" points="815,326 815,380" stroke="rgb(0, 0, 0)" stroke-linecap="square" stroke-width="2.0"/>
   <polyline fill="none" points="815,381 716,381" stroke="rgb(0, 0, 0)" stroke-linecap="square" stroke-width="2.0"/>
   <polyline fill="none" points="715,381 715,327" stroke="rgb(0, 0, 0)" stroke-linecap="square" stroke-width="2.0"/>
   <text fill="rgb(64, 64, 64)" font-family="SansSerif" font-size="10" x="720.0" y="360.0">ImmSrc</text>
   <text fill="rgb(64, 64, 64)" font-family="SansSerif" font-size="10" x="720.0" y="370.0">Instr</text>
   <text fill="rgb(64, 64, 64)" font-family="SansSerif" font-size="10" x="777.0" y="360.0">Imm32</text>
   <text fill="rgb(0, 0, 0)" font-family="SansSerif" font-size="12" x="735.0" y="344.0">Immediate</text>
   <ellipse cx="715.0" cy="356.0" fill="rgb(0, 0, 1)" rx="2.0" ry="2.0" stroke="none" stroke-width="1.0"/>
   <ellipse cx="715.0" cy="366.0" fill="rgb(0, 0, 1)" rx="2.0" ry="2.0" stroke="none" stroke-width="1.0"/>
   <ellipse cx="815.0" cy="356.0" fill="rgb(0, 0, 1)" rx="2.0" ry="2.0" stroke="none" stroke-width="1.0"/>
   <rect fill="rgb(255, 240, 153)" height="18" rx="10.0" ry="10.0" stroke="none" stroke-linecap="square" stroke-width="1.0" width="18" x="586" y="237"/>
   <rect fill="none" height="18" rx="10.0" ry="10.0" stroke="rgb(192, 192, 192)" stroke-linecap="square" stroke-width="1.0" width="18" x="586" y="237"/>
   <text fill="rgb(0, 0, 255)" font-family="SansSerif" font-size="12" x="584.0" y="231.0">RA2</text>
   <text fill="rgb(64, 64, 64)" font-family="SansSerif" font-size="12" x="592.0" y="251.0">3</text>
   <ellipse cx="595.0" cy="256.0" fill="rgb(0, 0, 1)" rx="2.0" ry="2.0" stroke="none" stroke-width="1.0"/>
   <rect fill="rgb(255, 240, 153)" height="18" rx="10.0" ry="10.0" stroke="none" stroke-linecap="square" stroke-width="1.0" width="28" x="966" y="117"/>
   <rect fill="none" height="18" rx="10.0" ry="10.0" stroke="rgb(192, 192, 192)" stroke-linecap="square" stroke-width="1.0" width="28" x="966" y="117"/>
   <text fill="rgb(0, 0, 255)" font-family="SansSerif" font-size="12" x="900.0" y="132.0">ALUControl</text>
   <text fill="rgb(64, 64, 64)" font-family="SansSerif" font-size="12" x="987.0" y="133.0">0</text>
   <text fill="rgb(64, 64, 64)" font-family="SansSerif" font-size="12" x="977.0" y="133.0">0</text>
   <text fill="rgb(64, 64, 64)" font-family="SansSerif" font-size="12" x="967.0" y="133.0">1</text>
   <ellipse cx="995.0" cy="126.0" fill="rgb(0, 0, 1)" rx="2.0" ry="2.0" stroke="none" stroke-width="1.0"/>
   <rect fill="rgb(255, 240, 153)" height="18" rx="10.0" ry="10.0" stroke="none" stroke-linecap="square" stroke-width="1.0" width="18" x="586" y="177"/>
   <rect fill="none" height="18" rx="10.0" ry="10.0" stroke="rgb(192, 192, 192)" stroke-linecap="square" stroke-width="1.0" width="18" x="586" y="177"/>
   <text fill="rgb(0, 0, 255)" font-family="SansSerif" font-size="12" x="584.0" y="171.0">RA1</text>
   <text fill="rgb(64, 64, 64)" font-family="SansSerif" font-size="12" x="592.0" y="191.0">5</text>
   <ellipse cx="595.0" cy="196.0" fill="rgb(0, 0, 1)" rx="2.0" ry="2.0" stroke="none" stroke-width="1.0"/>
   <rect fill="rgb(255, 240, 153)" height="18" rx="10.0" ry="10.0" stroke="none" stroke-linecap="square" stroke-width="1.0" width="18" x="586" y="307"/>
   <rect fill="none" height="18" rx="10.0" ry="10.0" stroke="rgb(192, 192, 192)" stroke-linecap="square" stroke-width="1.0" width="18" x="586" y="307"/>
   <text fill="rgb(0, 0, 255)" font-family="SansSerif" font-size="12" x="584.0" y="301.0">RA3</text>
   <text fill="rgb(64, 64, 64)" font-family="SansSerif" font-size="12" x="592.0" y="321.0">4</text>
   <ellipse cx="595.0" cy="326.0" fill="rgb(0, 0, 1)" rx="2.0" ry="2.0" stroke="none" stroke-width="1.0"/>
   <rect fill="rgb(255, 240, 153)" height="18" rx="10.0" ry="10.0" stroke="none" stroke-linecap="square" stroke-width="1.0" width="68" x="871" y="427"/>
   <rect fill="none" height="18" rx="10.0" ry="10.0" stroke="rgb(192, 192, 192)" stroke-linecap="square" stroke-width="1.0" width="68" x="871" y="427"/>
   <text fill="rgb(0, 0, 255)" font-family="SansSerif" font-size="12" x="887.0" y="421.0">Result</text>
   <text fill="rgb(64, 64, 64)" font-family="SansSerif" font-size="12" x="877.0" y="441.0">0000004a</text>
   <ellipse cx="905.0" cy="446.0" fill="rgb(0, 0, 1)" rx="2.0" ry="2.0" stroke="none" stroke-width="1.0"/>
   <rect fill="rgb(255, 240, 153)" height="18" rx="10.0" ry="10.0" stroke="none" stroke-linecap="square" stroke-width="1.0" width="68" x="811" y="387"/>
   <rect fill="none" height="18" rx="10.0" ry="10.0" stroke="rgb(192, 192, 192)" stroke-linecap="square" stroke-width="1.0" width="68" x="811" y="387"/>
   <text fill="rgb(0, 0, 255)" font-family="SansSerif" font-size="12" x="825.0" y="421.0">ExtImm</text>
   <text fill="rgb(64, 64, 64)" font-family="SansSerif" font-size="12" x="818.0" y="401.0">000000ec</text>
   <ellipse cx="845.0" cy="386.0" fill="rgb(0, 0, 1)" rx="2.0" ry="2.0" stroke="none" stroke-width="1.0"/>
   <rect fill="rgb(255, 240, 153)" height="18" rx="10.0" ry="10.0" stroke="none" stroke-linecap="square" stroke-width="1.0" width="68" x="901" y="177"/>
   <rect fill="none" height="18" rx="10.0" ry="10.0" stroke="rgb(192, 192, 192)" stroke-linecap="square" stroke-width="1.0" width="68" x="901" y="177"/>
   <text fill="rgb(0, 0, 255)" font-family="SansSerif" font-size="12" x="923.0" y="171.0">SrcA</text>
   <text fill="rgb(64, 64, 64)" font-family="SansSerif" font-size="12" x="907.0" y="191.0">00000034</text>
   <ellipse cx="935.0" cy="196.0" fill="rgb(0, 0, 1)" rx="2.0" ry="2.0" stroke="none" stroke-width="1.0"/>
   <rect fill="rgb(255, 240, 153)" height="18" rx="10.0" ry="10.0" stroke="none" stroke-linecap="square" stroke-width="1.0" width="68" x="901" y="237"/>
   <rect fill="none" height="18" rx="10.0" ry="10.0" stroke="rgb(192, 192, 192)" stroke-linecap="square" stroke-width="1.0" width="68" x="901" y="237"/>
   <text fill="rgb(0, 0, 255)" font-family="SansSerif" font-size="12" x="922.0" y="231.0">SrcB</text>
   <text fill="rgb(64, 64, 64)" font-family="SansSerif" font-size="12" x="907.0" y="251.0">00000016</text>
   <ellipse cx="935.0" cy="256.0" fill="rgb(0, 0, 1)" rx="2.0" ry="2.0" stroke="none" stroke-width="1.0"/>
</svg>
