<?xml version="1.0" encoding="UTF-8" standalone="no"?>
<svg xmlns="http://www.w3.org/2000/svg" version="1.1" viewBox="0 0 1568 554">
   <polyline fill="none" points="515,335 565,335" stroke="rgb(0, 0, 0)" stroke-linecap="square" stroke-width="4.0"/>
   <polyline fill="none" points="75,65 115,65" stroke="rgb(0, 0, 0)" stroke-linecap="square" stroke-width="3.0"/>
   <polyline fill="none" points="225,405 235,405" stroke="rgb(0, 0, 0)" stroke-linecap="square" stroke-width="4.0"/>
   <polyline fill="none" points="515,225 565,225" stroke="rgb(0, 0, 0)" stroke-linecap="square" stroke-width="4.0"/>
   <polyline fill="none" points="515,265 565,265" stroke="rgb(0, 0, 0)" stroke-linecap="square" stroke-width="4.0"/>
   <polyline fill="none" points="455,265 485,265 495,265" stroke="rgb(0, 0, 0)" stroke-linecap="square" stroke-width="4.0"/>
   <polyline fill="none" points="835,365 865,365 865,285 875,285" stroke="rgb(0, 0, 0)" stroke-linecap="square" stroke-width="4.0"/>
   <polyline fill="none" points="735,375 485,375 485,355 495,355" stroke="rgb(0, 0, 0)" stroke-linecap="square" stroke-width="4.0"/>
   <polyline fill="none" points="595,215 665,215 665,235 735,235" stroke="rgb(0, 0, 0)" stroke-linecap="square" stroke-width="4.0"/>
   <polyline fill="none" points="515,355 565,355" stroke="rgb(0, 0, 0)" stroke-linecap="square" stroke-width="4.0"/>
   <polyline fill="none" points="655,105 695,105 695,265 735,265" stroke="rgb(0, 0, 0)" stroke-linecap="square" stroke-width="3.0"/>
   <polyline fill="none" points="1055,235 1115,235 1115,185 1175,185" stroke="rgb(0, 0, 0)" stroke-linecap="square" stroke-width="4.0"/>
   <polyline fill="none" points="485,225 485,205 485,55 525,55" stroke="rgb(0, 0, 0)" stroke-linecap="square" stroke-width="4.0"/>
   <polyline fill="none" points="835,225 855,225 855,215 995,215" stroke="rgb(0, 0, 0)" stroke-linecap="square" stroke-width="4.0"/>
   <polyline fill="none" points="645,145 675,145 675,115 655,115" stroke="rgb(0, 0, 0)" stroke-linecap="square" stroke-width="4.0"/>
   <polyline fill="none" points="905,275 995,275" stroke="rgb(0, 0, 0)" stroke-linecap="square" stroke-width="4.0"/>
   <polyline fill="none" points="655,95 705,95 705,365 735,365" stroke="rgb(0, 0, 0)" stroke-linecap="square" stroke-width="4.0"/>
   <polyline fill="none" points="505,445 535,445" stroke="rgb(0, 0, 0)" stroke-linecap="square" stroke-width="4.0"/>
   <polyline fill="none" points="75,225 95,225" stroke="rgb(0, 0, 0)" stroke-linecap="square" stroke-width="4.0"/>
   <polyline fill="none" points="75,265 95,265" stroke="rgb(0, 0, 0)" stroke-linecap="square" stroke-width="3.0"/>
   <polyline fill="none" points="155,225 175,225 175,385 235,385" stroke="rgb(0, 0, 0)" stroke-linecap="square" stroke-width="4.0"/>
   <polyline fill="none" points="485,205 495,205" stroke="rgb(0, 0, 0)" stroke-linecap="square" stroke-width="4.0"/>
   <polyline fill="none" points="495,225 485,225 485,265 485,285 495,285" stroke="rgb(0, 0, 0)" stroke-linecap="square" stroke-width="4.0"/>
   <polyline fill="none" points="595,345 665,345 665,255 735,255" stroke="rgb(0, 0, 0)" stroke-linecap="square" stroke-width="4.0"/>
   <polyline fill="none" points="645,165 725,165 725,225 735,225" stroke="rgb(0, 0, 0)" stroke-linecap="square" stroke-width="4.0"/>
   <polyline fill="none" points="655,75 1025,75 1025,205" stroke="rgb(0, 0, 0)" stroke-linecap="square" stroke-width="4.0"/>
   <polyline fill="none" points="515,205 565,205" stroke="rgb(0, 0, 0)" stroke-linecap="square" stroke-width="4.0"/>
   <polyline fill="none" points="515,285 565,285" stroke="rgb(0, 0, 0)" stroke-linecap="square" stroke-width="4.0"/>
   <polyline fill="none" points="485,285 485,335 485,355" stroke="rgb(0, 0, 0)" stroke-linecap="square" stroke-width="4.0"/>
   <polyline fill="none" points="275,395 305,395 305,425" stroke="rgb(0, 0, 0)" stroke-linecap="square" stroke-width="4.0"/>
   <polyline fill="none" points="735,285 695,285 695,435 575,435" stroke="rgb(0, 0, 0)" stroke-linecap="square" stroke-width="4.0"/>
   <polyline fill="none" points="835,235 855,235 855,265 875,265" stroke="rgb(0, 0, 0)" stroke-linecap="square" stroke-width="4.0"/>
   <polyline fill="none" points="95,325 125,325 125,285" stroke="rgb(0, 0, 0)" stroke-linecap="square" stroke-width="3.0"/>
   <polyline fill="none" points="45,215 25,215 25,445 305,445 305,425 535,425" stroke="rgb(0, 0, 0)" stroke-linecap="square" stroke-width="4.0"/>
   <polyline fill="none" points="485,335 495,335" stroke="rgb(0, 0, 0)" stroke-linecap="square" stroke-width="4.0"/>
   <polyline fill="none" points="175,225 185,225" stroke="rgb(0, 0, 0)" stroke-linecap="square" stroke-width="4.0"/>
   <polyline fill="none" points="205,215 215,215" stroke="rgb(0, 0, 0)" stroke-linecap="square" stroke-width="4.0"/>
   <polyline fill="none" points="45,235 5,235 5,465 715,465" stroke="rgb(0, 0, 0)" stroke-linecap="square" stroke-width="4.0"/>
   <polyline fill="none" points="595,275 655,275 655,245 735,245" stroke="rgb(0, 0, 0)" stroke-linecap="square" stroke-width="4.0"/>
   <polyline fill="none" points="1055,255 1075,255 1075,465 715,465 715,275 735,275" stroke="rgb(0, 0, 0)" stroke-linecap="square" stroke-width="4.0"/>
   <ellipse cx="175.0" cy="225.0" fill="rgb(0, 0, 0)" rx="6.0" ry="6.0" stroke="none" stroke-width="4.0"/>
   <ellipse cx="485.0" cy="355.0" fill="rgb(0, 0, 0)" rx="6.0" ry="6.0" stroke="none" stroke-width="4.0"/>
   <ellipse cx="575.0" cy="165.0" fill="rgb(0, 0, 0)" rx="5.0" ry="5.0" stroke="none" stroke-width="4.0"/>
   <ellipse cx="715.0" cy="465.0" fill="rgb(0, 0, 0)" rx="6.0" ry="6.0" stroke="none" stroke-width="4.0"/>
   <ellipse cx="485.0" cy="205.0" fill="rgb(0, 0, 0)" rx="6.0" ry="6.0" stroke="none" stroke-width="4.0"/>
   <ellipse cx="305.0" cy="425.0" fill="rgb(0, 0, 0)" rx="6.0" ry="6.0" stroke="none" stroke-width="4.0"/>
   <ellipse cx="485.0" cy="225.0" fill="rgb(0, 0, 0)" rx="6.0" ry="6.0" stroke="none" stroke-width="4.0"/>
   <ellipse cx="535.0" cy="245.0" fill="rgb(0, 0, 0)" rx="5.0" ry="5.0" stroke="none" stroke-width="4.0"/>
   <ellipse cx="485.0" cy="265.0" fill="rgb(0, 0, 0)" rx="6.0" ry="6.0" stroke="none" stroke-width="4.0"/>
   <ellipse cx="485.0" cy="285.0" fill="rgb(0, 0, 0)" rx="6.0" ry="6.0" stroke="none" stroke-width="4.0"/>
   <ellipse cx="485.0" cy="335.0" fill="rgb(0, 0, 0)" rx="6.0" ry="6.0" stroke="none" stroke-width="4.0"/>
   <text fill="rgb(0, 0, 0)" font-family="Monospaced" font-size="12" x="85.0" y="250.0">1</text>
   <ellipse cx="95.0" cy="245.0" fill="rgb(0, 0, 0)" rx="2.0" ry="2.0" stroke="none" stroke-width="1.0"/>
   <rect fill="rgb(255, 255, 255)" height="40" stroke="none" stroke-linecap="square" stroke-width="2.0" width="40" x="55" y="305"/>
   <polyline fill="none" points="55,305 94,305" stroke="rgb(0, 0, 0)" stroke-linecap="square" stroke-width="2.0"/>
   <polyline fill="none" points="95,305 95,344" stroke="rgb(0, 0, 0)" stroke-linecap="square" stroke-width="2.0"/>
   <polyline fill="none" points="95,345 56,345" stroke="rgb(0, 0, 0)" stroke-linecap="square" stroke-width="2.0"/>
   <polyline fill="none" points="55,345 55,306" stroke="rgb(0, 0, 0)" stroke-linecap="square" stroke-width="2.0"/>
   <polyline fill="none" points="58,341 91,341" stroke="rgb(0, 0, 255)" stroke-linecap="square" stroke-width="1.0"/>
   <polyline fill="none" points="59,318 59,342" stroke="rgb(0, 0, 255)" stroke-linecap="square" stroke-width="1.0"/>
   <polyline fill="none" points="59,320 75,320 75,340 91,340" stroke="rgb(255, 0, 0)" stroke-linecap="square" stroke-width="2.0"/>
   <text fill="rgb(0, 0, 0)" font-family="SansSerif" font-size="14" font-weight="bold" x="57.0" y="317.0">POR</text>
   <ellipse cx="95.0" cy="325.0" fill="rgb(0, 0, 0)" rx="2.0" ry="2.0" stroke="none" stroke-width="2.0"/>
   <polyline fill="none" points="1179,185 1178,185" stroke="rgb(0, 0, 1)" stroke-linecap="square" stroke-width="4.0"/>
   <polygon fill="none" points="1235,176 1245,185 1235,194 1181,194 1181,176" stroke="rgb(0, 0, 0)" stroke-linecap="square" stroke-width="2.0"/>
   <text fill="rgb(0, 0, 0)" font-family="Monospaced" font-size="12" x="1196.0" y="192.0">x4</text>
   <text fill="rgb(0, 0, 0)" font-family="Monospaced" font-size="16" font-weight="bold" x="1247.0" y="193.0">ALUFlags</text>
   <ellipse cx="1175.0" cy="185.0" fill="rgb(0, 0, 0)" rx="2.0" ry="2.0" stroke="none" stroke-width="2.0"/>
   <polyline fill="none" points="205,215 191,215" stroke="rgb(0, 0, 0)" stroke-linecap="square" stroke-width="3.0"/>
   <polyline fill="none" points="191,216 191,219 186,224" stroke="rgb(0, 0, 1)" stroke-linecap="square" stroke-width="5.0"/>
   <text fill="rgb(0, 0, 0)" font-family="SansSerif" font-size="7" x="194.0" y="223.0">16-1</text>
   <ellipse cx="185.0" cy="225.0" fill="rgb(0, 0, 0)" rx="2.0" ry="2.0" stroke="none" stroke-width="5.0"/>
   <ellipse cx="205.0" cy="215.0" fill="rgb(0, 0, 0)" rx="2.0" ry="2.0" stroke="none" stroke-width="5.0"/>
   <text fill="rgb(0, 0, 0)" font-family="Monospaced" font-size="12" x="165.0" y="410.0">00000002</text>
   <ellipse cx="225.0" cy="405.0" fill="rgb(0, 0, 0)" rx="2.0" ry="2.0" stroke="none" stroke-width="1.0"/>
   <polyline fill="none" points="515,205 501,205" stroke="rgb(0, 0, 0)" stroke-linecap="square" stroke-width="3.0"/>
   <polyline fill="none" points="496,205 501,205" stroke="rgb(0, 0, 1)" stroke-linecap="square" stroke-width="5.0"/>
   <ellipse cx="501.0" cy="204.0" fill="rgb(0, 0, 1)" rx="3.5" ry="3.5" stroke="none" stroke-width="5.0"/>
   <text fill="rgb(0, 0, 0)" font-family="SansSerif" font-size="7" x="504.0" y="202.0">5-3</text>
   <ellipse cx="495.0" cy="205.0" fill="rgb(0, 0, 0)" rx="2.0" ry="2.0" stroke="none" stroke-width="5.0"/>
   <ellipse cx="515.0" cy="205.0" fill="rgb(0, 0, 0)" rx="2.0" ry="2.0" stroke="none" stroke-width="5.0"/>
   <polyline fill="none" points="515,225 501,225" stroke="rgb(0, 0, 0)" stroke-linecap="square" stroke-width="3.0"/>
   <polyline fill="none" points="496,225 501,225" stroke="rgb(0, 0, 1)" stroke-linecap="square" stroke-width="5.0"/>
   <ellipse cx="501.0" cy="224.0" fill="rgb(0, 0, 1)" rx="3.5" ry="3.5" stroke="none" stroke-width="5.0"/>
   <text fill="rgb(0, 0, 0)" font-family="SansSerif" font-size="7" x="504.0" y="222.0">10-8</text>
   <ellipse cx="495.0" cy="225.0" fill="rgb(0, 0, 0)" rx="2.0" ry="2.0" stroke="none" stroke-width="5.0"/>
   <ellipse cx="515.0" cy="225.0" fill="rgb(0, 0, 0)" rx="2.0" ry="2.0" stroke="none" stroke-width="5.0"/>
   <polyline fill="none" points="515,265 501,265" stroke="rgb(0, 0, 0)" stroke-linecap="square" stroke-width="3.0"/>
   <polyline fill="none" points="496,265 501,265" stroke="rgb(0, 0, 1)" stroke-linecap="square" stroke-width="5.0"/>
   <ellipse cx="501.0" cy="264.0" fill="rgb(0, 0, 1)" rx="3.5" ry="3.5" stroke="none" stroke-width="5.0"/>
   <text fill="rgb(0, 0, 0)" font-family="SansSerif" font-size="7" x="504.0" y="262.0">8-6</text>
   <ellipse cx="495.0" cy="265.0" fill="rgb(0, 0, 0)" rx="2.0" ry="2.0" stroke="none" stroke-width="5.0"/>
   <ellipse cx="515.0" cy="265.0" fill="rgb(0, 0, 0)" rx="2.0" ry="2.0" stroke="none" stroke-width="5.0"/>
   <polyline fill="none" points="515,285 501,285" stroke="rgb(0, 0, 0)" stroke-linecap="square" stroke-width="3.0"/>
   <polyline fill="none" points="496,285 501,285" stroke="rgb(0, 0, 1)" stroke-linecap="square" stroke-width="5.0"/>
   <ellipse cx="501.0" cy="284.0" fill="rgb(0, 0, 1)" rx="3.5" ry="3.5" stroke="none" stroke-width="5.0"/>
   <text fill="rgb(0, 0, 0)" font-family="SansSerif" font-size="7" x="504.0" y="282.0">10-8</text>
   <ellipse cx="495.0" cy="285.0" fill="rgb(0, 0, 0)" rx="2.0" ry="2.0" stroke="none" stroke-width="5.0"/>
   <ellipse cx="515.0" cy="285.0" fill="rgb(0, 0, 0)" rx="2.0" ry="2.0" stroke="none" stroke-width="5.0"/>
   <polyline fill="none" points="515,335 501,335" stroke="rgb(0, 0, 0)" stroke-linecap="square" stroke-width="3.0"/>
   <polyline fill="none" points="496,335 501,335" stroke="rgb(0, 0, 1)" stroke-linecap="square" stroke-width="5.0"/>
   <ellipse cx="501.0" cy="334.0" fill="rgb(0, 0, 1)" rx="3.5" ry="3.5" stroke="none" stroke-width="5.0"/>
   <text fill="rgb(0, 0, 0)" font-family="SansSerif" font-size="7" x="504.0" y="332.0">2-0</text>
   <ellipse cx="495.0" cy="335.0" fill="rgb(0, 0, 0)" rx="2.0" ry="2.0" stroke="none" stroke-width="5.0"/>
   <ellipse cx="515.0" cy="335.0" fill="rgb(0, 0, 0)" rx="2.0" ry="2.0" stroke="none" stroke-width="5.0"/>
   <polyline fill="none" points="515,355 501,355" stroke="rgb(0, 0, 0)" stroke-linecap="square" stroke-width="3.0"/>
   <polyline fill="none" points="496,355 501,355" stroke="rgb(0, 0, 1)" stroke-linecap="square" stroke-width="5.0"/>
   <ellipse cx="501.0" cy="354.0" fill="rgb(0, 0, 1)" rx="3.5" ry="3.5" stroke="none" stroke-width="5.0"/>
   <text fill="rgb(0, 0, 0)" font-family="SansSerif" font-size="7" x="504.0" y="352.0">10-8</text>
   <ellipse cx="495.0" cy="355.0" fill="rgb(0, 0, 0)" rx="2.0" ry="2.0" stroke="none" stroke-width="5.0"/>
   <ellipse cx="515.0" cy="355.0" fill="rgb(0, 0, 0)" rx="2.0" ry="2.0" stroke="none" stroke-width="5.0"/>
   <text fill="rgb(0, 0, 0)" font-family="Monospaced" font-size="12" x="445.0" y="450.0">00000002</text>
   <ellipse cx="505.0" cy="445.0" fill="rgb(0, 0, 0)" rx="2.0" ry="2.0" stroke="none" stroke-width="1.0"/>
   <polyline fill="none" points="645,165 645,151" stroke="rgb(0, 0, 0)" stroke-linecap="square" stroke-width="3.0"/>
   <polyline fill="none" points="575,165 635,165 635,151" stroke="rgb(0, 0, 0)" stroke-linecap="square" stroke-width="3.0"/>
   <polyline fill="none" points="645,146 645,151" stroke="rgb(0, 0, 1)" stroke-linecap="square" stroke-width="5.0"/>
   <polyline fill="none" points="644,151 636,151" stroke="rgb(0, 0, 1)" stroke-linecap="square" stroke-width="5.0"/>
   <text fill="rgb(0, 0, 0)" font-family="SansSerif" font-size="7" transform="rotate(90.0,648.0,154.0)" x="648.0" y="154.0">1-0</text>
   <text fill="rgb(0, 0, 0)" font-family="SansSerif" font-size="7" transform="rotate(90.0,638.0,154.0)" x="638.0" y="154.0">2</text>
   <ellipse cx="645.0" cy="145.0" fill="rgb(0, 0, 0)" rx="2.0" ry="2.0" stroke="none" stroke-width="5.0"/>
   <ellipse cx="645.0" cy="165.0" fill="rgb(0, 0, 0)" rx="2.0" ry="2.0" stroke="none" stroke-width="5.0"/>
   <ellipse cx="635.0" cy="165.0" fill="rgb(0, 0, 0)" rx="2.0" ry="2.0" stroke="none" stroke-width="5.0"/>
   <polyline fill="none" points="55,55 74,55" stroke="rgb(0, 0, 0)" stroke-linecap="square" stroke-width="2.0"/>
   <polyline fill="none" points="75,55 75,74" stroke="rgb(0, 0, 0)" stroke-linecap="square" stroke-width="2.0"/>
   <polyline fill="none" points="75,75 56,75" stroke="rgb(0, 0, 0)" stroke-linecap="square" stroke-width="2.0"/>
   <polyline fill="none" points="55,75 55,56" stroke="rgb(0, 0, 0)" stroke-linecap="square" stroke-width="2.0"/>
   <text fill="rgb(0, 0, 0)" font-family="SansSerif" font-size="16" font-weight="bold" x="31.0" y="73.0">clk</text>
   <polyline fill="none" points="59,65 59,61 65,61 65,69 71,69 71,65" stroke="rgb(0, 0, 0)" stroke-linecap="square" stroke-width="2.0"/>
   <ellipse cx="75.0" cy="65.0" fill="rgb(0, 0, 0)" rx="2.0" ry="2.0" stroke="none" stroke-width="2.0"/>
   <polyline fill="none" points="55,255 74,255" stroke="rgb(0, 0, 0)" stroke-linecap="square" stroke-width="2.0"/>
   <polyline fill="none" points="75,255 75,274" stroke="rgb(0, 0, 0)" stroke-linecap="square" stroke-width="2.0"/>
   <polyline fill="none" points="75,275 56,275" stroke="rgb(0, 0, 0)" stroke-linecap="square" stroke-width="2.0"/>
   <polyline fill="none" points="55,275 55,256" stroke="rgb(0, 0, 0)" stroke-linecap="square" stroke-width="2.0"/>
   <polyline fill="none" points="59,265 59,261 65,261 65,269 71,269 71,265" stroke="rgb(0, 0, 0)" stroke-linecap="square" stroke-width="2.0"/>
   <ellipse cx="75.0" cy="265.0" fill="rgb(0, 0, 0)" rx="2.0" ry="2.0" stroke="none" stroke-width="2.0"/>
   <polyline fill="none" points="575,199 575,195 575,165 535,165 535,245" stroke="rgb(0, 0, 0)" stroke-linecap="square" stroke-width="3.0"/>
   <ellipse cx="575.0" cy="200.0" fill="rgb(192, 192, 192)" rx="3.0" ry="3.0" stroke="none" stroke-width="1.0"/>
   <text fill="rgb(128, 128, 128)" font-family="SansSerif" font-size="12" x="568.0" y="210.0">0</text>
   <polygon fill="none" points="565,195 595,205 595,225 565,235" stroke="rgb(0, 0, 0)" stroke-linecap="square" stroke-width="2.0"/>
   <text fill="rgb(0, 0, 0)" font-family="SansSerif" font-size="12" x="568.0" y="222.0">MUX</text>
   <ellipse cx="565.0" cy="205.0" fill="rgb(0, 0, 0)" rx="2.0" ry="2.0" stroke="none" stroke-width="2.0"/>
   <ellipse cx="565.0" cy="225.0" fill="rgb(0, 0, 0)" rx="2.0" ry="2.0" stroke="none" stroke-width="2.0"/>
   <ellipse cx="575.0" cy="195.0" fill="rgb(0, 0, 0)" rx="2.0" ry="2.0" stroke="none" stroke-width="2.0"/>
   <ellipse cx="595.0" cy="215.0" fill="rgb(0, 0, 0)" rx="2.0" ry="2.0" stroke="none" stroke-width="2.0"/>
   <ellipse cx="575.0" cy="260.0" fill="rgb(192, 192, 192)" rx="3.0" ry="3.0" stroke="none" stroke-width="1.0"/>
   <text fill="rgb(128, 128, 128)" font-family="SansSerif" font-size="12" x="568.0" y="270.0">0</text>
   <polygon fill="none" points="565,255 595,265 595,285 565,295" stroke="rgb(0, 0, 0)" stroke-linecap="square" stroke-width="2.0"/>
   <text fill="rgb(0, 0, 0)" font-family="SansSerif" font-size="12" x="568.0" y="282.0">MUX</text>
   <ellipse cx="565.0" cy="265.0" fill="rgb(0, 0, 0)" rx="2.0" ry="2.0" stroke="none" stroke-width="2.0"/>
   <ellipse cx="565.0" cy="285.0" fill="rgb(0, 0, 0)" rx="2.0" ry="2.0" stroke="none" stroke-width="2.0"/>
   <ellipse cx="575.0" cy="255.0" fill="rgb(0, 0, 0)" rx="2.0" ry="2.0" stroke="none" stroke-width="2.0"/>
   <ellipse cx="595.0" cy="275.0" fill="rgb(0, 0, 0)" rx="2.0" ry="2.0" stroke="none" stroke-width="2.0"/>
   <polyline fill="none" points="575,329 575,325 575,315 535,315 535,245 575,245 575,255 575,259" stroke="rgb(0, 0, 0)" stroke-linecap="square" stroke-width="3.0"/>
   <ellipse cx="575.0" cy="330.0" fill="rgb(192, 192, 192)" rx="3.0" ry="3.0" stroke="none" stroke-width="1.0"/>
   <text fill="rgb(128, 128, 128)" font-family="SansSerif" font-size="12" x="568.0" y="340.0">0</text>
   <polygon fill="none" points="565,325 595,335 595,355 565,365" stroke="rgb(0, 0, 0)" stroke-linecap="square" stroke-width="2.0"/>
   <text fill="rgb(0, 0, 0)" font-family="SansSerif" font-size="12" x="568.0" y="352.0">MUX</text>
   <ellipse cx="565.0" cy="335.0" fill="rgb(0, 0, 0)" rx="2.0" ry="2.0" stroke="none" stroke-width="2.0"/>
   <ellipse cx="565.0" cy="355.0" fill="rgb(0, 0, 0)" rx="2.0" ry="2.0" stroke="none" stroke-width="2.0"/>
   <ellipse cx="575.0" cy="325.0" fill="rgb(0, 0, 0)" rx="2.0" ry="2.0" stroke="none" stroke-width="2.0"/>
   <ellipse cx="595.0" cy="345.0" fill="rgb(0, 0, 0)" rx="2.0" ry="2.0" stroke="none" stroke-width="2.0"/>
   <polyline fill="none" points="55,209 55,205 55,155 325,155 325,5 675,5 675,45 655,45" stroke="rgb(0, 0, 0)" stroke-linecap="square" stroke-width="3.0"/>
   <ellipse cx="55.0" cy="210.0" fill="rgb(192, 192, 192)" rx="3.0" ry="3.0" stroke="none" stroke-width="1.0"/>
   <text fill="rgb(128, 128, 128)" font-family="SansSerif" font-size="12" x="48.0" y="220.0">0</text>
   <polygon fill="none" points="45,205 75,215 75,235 45,245" stroke="rgb(0, 0, 0)" stroke-linecap="square" stroke-width="2.0"/>
   <text fill="rgb(0, 0, 0)" font-family="SansSerif" font-size="12" x="48.0" y="232.0">MUX</text>
   <ellipse cx="45.0" cy="215.0" fill="rgb(0, 0, 0)" rx="2.0" ry="2.0" stroke="none" stroke-width="2.0"/>
   <ellipse cx="45.0" cy="235.0" fill="rgb(0, 0, 0)" rx="2.0" ry="2.0" stroke="none" stroke-width="2.0"/>
   <ellipse cx="55.0" cy="205.0" fill="rgb(0, 0, 0)" rx="2.0" ry="2.0" stroke="none" stroke-width="2.0"/>
   <ellipse cx="75.0" cy="225.0" fill="rgb(0, 0, 0)" rx="2.0" ry="2.0" stroke="none" stroke-width="2.0"/>
   <polyline fill="none" points="885,259 885,255 885,85 655,85" stroke="rgb(0, 0, 0)" stroke-linecap="square" stroke-width="3.0"/>
   <ellipse cx="885.0" cy="260.0" fill="rgb(192, 192, 192)" rx="3.0" ry="3.0" stroke="none" stroke-width="1.0"/>
   <text fill="rgb(128, 128, 128)" font-family="SansSerif" font-size="12" x="878.0" y="270.0">0</text>
   <polygon fill="none" points="875,255 905,265 905,285 875,295" stroke="rgb(0, 0, 0)" stroke-linecap="square" stroke-width="2.0"/>
   <text fill="rgb(0, 0, 0)" font-family="SansSerif" font-size="12" x="878.0" y="282.0">MUX</text>
   <ellipse cx="875.0" cy="265.0" fill="rgb(0, 0, 0)" rx="2.0" ry="2.0" stroke="none" stroke-width="2.0"/>
   <ellipse cx="875.0" cy="285.0" fill="rgb(0, 0, 0)" rx="2.0" ry="2.0" stroke="none" stroke-width="2.0"/>
   <ellipse cx="885.0" cy="255.0" fill="rgb(0, 0, 0)" rx="2.0" ry="2.0" stroke="none" stroke-width="2.0"/>
   <ellipse cx="905.0" cy="275.0" fill="rgb(0, 0, 0)" rx="2.0" ry="2.0" stroke="none" stroke-width="2.0"/>
   <polyline fill="none" points="235,375 274,375" stroke="rgb(0, 0, 0)" stroke-linecap="square" stroke-width="2.0"/>
   <polyline fill="none" points="275,375 275,414" stroke="rgb(0, 0, 0)" stroke-linecap="square" stroke-width="2.0"/>
   <polyline fill="none" points="275,415 236,415" stroke="rgb(0, 0, 0)" stroke-linecap="square" stroke-width="2.0"/>
   <polyline fill="none" points="235,415 235,376" stroke="rgb(0, 0, 0)" stroke-linecap="square" stroke-width="2.0"/>
   <ellipse cx="235.0" cy="385.0" fill="rgb(0, 0, 0)" rx="2.0" ry="2.0" stroke="none" stroke-width="1.0"/>
   <ellipse cx="235.0" cy="405.0" fill="rgb(0, 0, 0)" rx="2.0" ry="2.0" stroke="none" stroke-width="1.0"/>
   <ellipse cx="275.0" cy="395.0" fill="rgb(0, 0, 0)" rx="2.0" ry="2.0" stroke="none" stroke-width="1.0"/>
   <ellipse cx="255.0" cy="375.0" fill="rgb(0, 0, 0)" rx="2.0" ry="2.0" stroke="none" stroke-width="1.0"/>
   <text fill="rgb(153, 153, 153)" font-family="SansSerif" font-size="12" x="246.0" y="391.0">c in</text>
   <ellipse cx="255.0" cy="415.0" fill="rgb(0, 0, 0)" rx="2.0" ry="2.0" stroke="none" stroke-width="1.0"/>
   <text fill="rgb(153, 153, 153)" font-family="SansSerif" font-size="12" x="242.0" y="412.0">c out</text>
   <polyline fill="none" points="260,395 270,395" stroke="rgb(0, 0, 0)" stroke-linecap="square" stroke-width="2.0"/>
   <polyline fill="none" points="265,390 265,400" stroke="rgb(0, 0, 0)" stroke-linecap="square" stroke-width="2.0"/>
   <polyline fill="none" points="535,415 574,415" stroke="rgb(0, 0, 0)" stroke-linecap="square" stroke-width="2.0"/>
   <polyline fill="none" points="575,415 575,454" stroke="rgb(0, 0, 0)" stroke-linecap="square" stroke-width="2.0"/>
   <polyline fill="none" points="575,455 536,455" stroke="rgb(0, 0, 0)" stroke-linecap="square" stroke-width="2.0"/>
   <polyline fill="none" points="535,455 535,416" stroke="rgb(0, 0, 0)" stroke-linecap="square" stroke-width="2.0"/>
   <ellipse cx="535.0" cy="425.0" fill="rgb(0, 0, 0)" rx="2.0" ry="2.0" stroke="none" stroke-width="1.0"/>
   <ellipse cx="535.0" cy="445.0" fill="rgb(0, 0, 0)" rx="2.0" ry="2.0" stroke="none" stroke-width="1.0"/>
   <ellipse cx="575.0" cy="435.0" fill="rgb(0, 0, 0)" rx="2.0" ry="2.0" stroke="none" stroke-width="1.0"/>
   <ellipse cx="555.0" cy="415.0" fill="rgb(0, 0, 0)" rx="2.0" ry="2.0" stroke="none" stroke-width="1.0"/>
   <text fill="rgb(153, 153, 153)" font-family="SansSerif" font-size="12" x="546.0" y="431.0">c in</text>
   <ellipse cx="555.0" cy="455.0" fill="rgb(0, 0, 0)" rx="2.0" ry="2.0" stroke="none" stroke-width="1.0"/>
   <text fill="rgb(153, 153, 153)" font-family="SansSerif" font-size="12" x="542.0" y="452.0">c out</text>
   <polyline fill="none" points="560,435 570,435" stroke="rgb(0, 0, 0)" stroke-linecap="square" stroke-width="2.0"/>
   <polyline fill="none" points="565,430 565,440" stroke="rgb(0, 0, 0)" stroke-linecap="square" stroke-width="2.0"/>
   <polyline fill="none" points="145,220 150,220 150,280 110,280 110,275" stroke="rgb(0, 0, 0)" stroke-linecap="square" stroke-width="2.0"/>
   <polyline fill="none" points="150,225 155,225 155,285 115,285 115,280" stroke="rgb(0, 0, 0)" stroke-linecap="square" stroke-width="2.0"/>
   <polyline fill="none" points="95,225 103,225" stroke="rgb(0, 0, 1)" stroke-linecap="square" stroke-width="5.0"/>
   <polyline fill="none" points="147,225 155,225" stroke="rgb(0, 0, 1)" stroke-linecap="square" stroke-width="5.0"/>
   <polyline fill="none" points="105,215 144,215" stroke="rgb(0, 0, 0)" stroke-linecap="square" stroke-width="2.0"/>
   <polyline fill="none" points="145,215 145,274" stroke="rgb(0, 0, 0)" stroke-linecap="square" stroke-width="2.0"/>
   <polyline fill="none" points="145,275 106,275" stroke="rgb(0, 0, 0)" stroke-linecap="square" stroke-width="2.0"/>
   <polyline fill="none" points="105,275 105,216" stroke="rgb(0, 0, 0)" stroke-linecap="square" stroke-width="2.0"/>
   <text fill="rgb(0, 0, 0)" font-family="SansSerif" font-size="12" x="109.0" y="230.0">D</text>
   <text fill="rgb(0, 0, 0)" font-family="SansSerif" font-size="12" x="132.0" y="230.0">Q</text>
   <polyline fill="none" points="125,276 125,285" stroke="rgb(0, 0, 0)" stroke-linecap="square" stroke-width="2.0"/>
   <text fill="rgb(153, 153, 153)" font-family="SansSerif" font-size="12" x="121.0" y="270.0">R</text>
   <text fill="rgb(0, 0, 0)" font-family="SansSerif" font-size="12" x="108.0" y="250.0">WE</text>
   <polyline fill="none" points="95,245 104,245" stroke="rgb(0, 0, 0)" stroke-linecap="square" stroke-width="2.0"/>
   <polyline fill="none" points="106,261 113,265 106,269" stroke="rgb(0, 0, 0)" stroke-linecap="square" stroke-width="2.0"/>
   <polyline fill="none" points="95,265 104,265" stroke="rgb(0, 0, 0)" stroke-linecap="square" stroke-width="2.0"/>
   <text fill="rgb(0, 0, 0)" font-family="SansSerif" font-size="16" font-weight="bold" x="114.0" y="189.0">PC</text>
   <ellipse cx="95.0" cy="225.0" fill="rgb(0, 0, 0)" rx="2.0" ry="2.0" stroke="none" stroke-width="1.0"/>
   <ellipse cx="155.0" cy="225.0" fill="rgb(0, 0, 0)" rx="2.0" ry="2.0" stroke="none" stroke-width="1.0"/>
   <ellipse cx="125.0" cy="285.0" fill="rgb(0, 0, 0)" rx="2.0" ry="2.0" stroke="none" stroke-width="1.0"/>
   <ellipse cx="95.0" cy="245.0" fill="rgb(0, 0, 0)" rx="2.0" ry="2.0" stroke="none" stroke-width="1.0"/>
   <ellipse cx="95.0" cy="265.0" fill="rgb(0, 0, 0)" rx="2.0" ry="2.0" stroke="none" stroke-width="1.0"/>
   <polyline fill="none" points="215,205 454,205" stroke="rgb(0, 0, 0)" stroke-linecap="square" stroke-width="2.0"/>
   <polyline fill="none" points="455,205 455,344" stroke="rgb(0, 0, 0)" stroke-linecap="square" stroke-width="2.0"/>
   <polyline fill="none" points="455,345 216,345" stroke="rgb(0, 0, 0)" stroke-linecap="square" stroke-width="2.0"/>
   <polyline fill="none" points="215,345 215,206" stroke="rgb(0, 0, 0)" stroke-linecap="square" stroke-width="2.0"/>
   <ellipse cx="455.0" cy="265.0" fill="rgb(0, 0, 0)" rx="2.0" ry="2.0" stroke="none" stroke-width="1.0"/>
   <text fill="rgb(0, 0, 0)" font-family="SansSerif" font-size="12" x="443.0" y="272.0">D</text>
   <ellipse cx="215.0" cy="215.0" fill="rgb(0, 0, 0)" rx="2.0" ry="2.0" stroke="none" stroke-width="1.0"/>
   <text fill="rgb(0, 0, 0)" font-family="SansSerif" font-size="12" x="218.0" y="222.0">A</text>
   <text fill="rgb(0, 0, 0)" font-family="SansSerif" font-size="12" x="297.0" y="218.0">ROM 64K x 16</text>
   <ellipse cx="125.0" cy="65.0" fill="none" rx="9.0" ry="9.0" stroke="rgb(0, 0, 0)" stroke-width="2.0"/>
   <ellipse cx="115.0" cy="65.0" fill="rgb(0, 0, 0)" rx="2.0" ry="2.0" stroke="none" stroke-width="1.0"/>
   <text fill="rgb(0, 0, 0)" font-family="SansSerif" font-size="16" font-weight="bold" x="130.0" y="540.0">RegisterFile</text>
   <text fill="rgb(0, 0, 0)" font-family="SansSerif" font-size="16" font-weight="bold" x="271.0" y="540.0">Immediate</text>
   <text fill="rgb(0, 0, 0)" font-family="SansSerif" font-size="16" font-weight="bold" x="396.0" y="540.0">Instruction Memory (ROM)</text>
   <text fill="rgb(0, 0, 0)" font-family="SansSerif" font-size="16" font-weight="bold" x="34.0" y="540.0">ALU</text>
   <text fill="rgb(0, 0, 0)" font-family="SansSerif" font-size="16" font-weight="bold" x="642.0" y="540.0">Branch</text>
   <text fill="rgb(0, 0, 0)" font-family="SansSerif" font-size="12" x="1000.0" y="225.0">A</text>
   <text fill="rgb(0, 0, 0)" font-family="SansSerif" font-size="12" x="1000.0" y="275.0">B</text>
   <text fill="rgb(0, 0, 0)" font-family="SansSerif" font-size="12" x="1014.0" y="259.0">Result</text>
   <text fill="rgb(0, 0, 0)" font-family="SansSerif" font-size="12" x="1018.0" y="238.0">Flags</text>
   <text fill="rgb(0, 0, 0)" font-family="SansSerif" font-size="12" x="1017.0" y="219.0">ctrl</text>
   <polyline fill="none" points="995,196 995,235" stroke="rgb(0, 0, 0)" stroke-linecap="square" stroke-width="1.0"/>
   <polyline fill="none" points="996,235 1005,245" stroke="rgb(0, 0, 0)" stroke-linecap="square" stroke-width="1.0"/>
   <polyline fill="none" points="995,195 1055,214 1055,275" stroke="rgb(0, 0, 0)" stroke-linecap="square" stroke-width="1.0"/>
   <polyline fill="none" points="1006,245 995,255 995,295 1055,276" stroke="rgb(0, 0, 0)" stroke-linecap="square" stroke-width="1.0"/>
   <ellipse cx="995.0" cy="215.0" fill="rgb(0, 0, 0)" rx="2.0" ry="2.0" stroke="none" stroke-width="1.0"/>
   <ellipse cx="995.0" cy="275.0" fill="rgb(0, 0, 0)" rx="2.0" ry="2.0" stroke="none" stroke-width="1.0"/>
   <ellipse cx="1025.0" cy="205.0" fill="rgb(0, 0, 0)" rx="2.0" ry="2.0" stroke="none" stroke-width="1.0"/>
   <ellipse cx="1055.0" cy="235.0" fill="rgb(0, 0, 0)" rx="2.0" ry="2.0" stroke="none" stroke-width="1.0"/>
   <ellipse cx="1055.0" cy="255.0" fill="rgb(0, 0, 0)" rx="2.0" ry="2.0" stroke="none" stroke-width="1.0"/>
   <polyline fill="none" points="525,15 654,15" stroke="rgb(0, 0, 0)" stroke-linecap="square" stroke-width="2.0"/>
   <polyline fill="none" points="655,15 655,129" stroke="rgb(0, 0, 0)" stroke-linecap="square" stroke-width="2.0"/>
   <polyline fill="none" points="655,130 526,130" stroke="rgb(0, 0, 0)" stroke-linecap="square" stroke-width="2.0"/>
   <polyline fill="none" points="525,130 525,16" stroke="rgb(0, 0, 0)" stroke-linecap="square" stroke-width="2.0"/>
   <text fill="rgb(64, 64, 64)" font-family="SansSerif" font-size="10" x="530.0" y="49.0">ALUFlags</text>
   <text fill="rgb(64, 64, 64)" font-family="SansSerif" font-size="10" x="530.0" y="59.0">Instr</text>
   <text fill="rgb(64, 64, 64)" font-family="SansSerif" font-size="10" x="620.0" y="49.0">PCSrc</text>
   <text fill="rgb(64, 64, 64)" font-family="SansSerif" font-size="10" x="594.0" y="59.0">MemToReg</text>
   <text fill="rgb(64, 64, 64)" font-family="SansSerif" font-size="10" x="602.0" y="69.0">MemWrite</text>
   <text fill="rgb(64, 64, 64)" font-family="SansSerif" font-size="10" x="596.0" y="79.0">ALUControl</text>
   <text fill="rgb(64, 64, 64)" font-family="SansSerif" font-size="10" x="614.0" y="89.0">ALUSrc</text>
   <text fill="rgb(64, 64, 64)" font-family="SansSerif" font-size="10" x="613.0" y="99.0">ImmSrc</text>
   <text fill="rgb(64, 64, 64)" font-family="SansSerif" font-size="10" x="607.0" y="109.0">RegWrite</text>
   <text fill="rgb(64, 64, 64)" font-family="SansSerif" font-size="10" x="615.0" y="119.0">RegSrc</text>
   <text fill="rgb(0, 0, 0)" font-family="SansSerif" font-size="12" x="555.0" y="33.0">Control_Unit</text>
   <ellipse cx="525.0" cy="45.0" fill="rgb(0, 0, 0)" rx="2.0" ry="2.0" stroke="none" stroke-width="1.0"/>
   <ellipse cx="525.0" cy="55.0" fill="rgb(0, 0, 0)" rx="2.0" ry="2.0" stroke="none" stroke-width="1.0"/>
   <ellipse cx="655.0" cy="45.0" fill="rgb(0, 0, 0)" rx="2.0" ry="2.0" stroke="none" stroke-width="1.0"/>
   <ellipse cx="655.0" cy="55.0" fill="rgb(0, 0, 0)" rx="2.0" ry="2.0" stroke="none" stroke-width="1.0"/>
   <ellipse cx="655.0" cy="65.0" fill="rgb(0, 0, 0)" rx="2.0" ry="2.0" stroke="none" stroke-width="1.0"/>
   <ellipse cx="655.0" cy="75.0" fill="rgb(0, 0, 0)" rx="2.0" ry="2.0" stroke="none" stroke-width="1.0"/>
   <ellipse cx="655.0" cy="85.0" fill="rgb(0, 0, 0)" rx="2.0" ry="2.0" stroke="none" stroke-width="1.0"/>
   <ellipse cx="655.0" cy="95.0" fill="rgb(0, 0, 0)" rx="2.0" ry="2.0" stroke="none" stroke-width="1.0"/>
   <ellipse cx="655.0" cy="105.0" fill="rgb(0, 0, 0)" rx="2.0" ry="2.0" stroke="none" stroke-width="1.0"/>
   <ellipse cx="655.0" cy="115.0" fill="rgb(0, 0, 0)" rx="2.0" ry="2.0" stroke="none" stroke-width="1.0"/>
   <polyline fill="none" points="735,195 834,195" stroke="rgb(0, 0, 0)" stroke-linecap="square" stroke-width="2.0"/>
   <polyline fill="none" points="835,195 835,299" stroke="rgb(0, 0, 0)" stroke-linecap="square" stroke-width="2.0"/>
   <polyline fill="none" points="835,300 736,300" stroke="rgb(0, 0, 0)" stroke-linecap="square" stroke-width="2.0"/>
   <polyline fill="none" points="735,300 735,196" stroke="rgb(0, 0, 0)" stroke-linecap="square" stroke-width="2.0"/>
   <text fill="rgb(64, 64, 64)" font-family="SansSerif" font-size="10" x="740.0" y="229.0">SP_PC</text>
   <text fill="rgb(64, 64, 64)" font-family="SansSerif" font-size="10" x="740.0" y="239.0">A1</text>
   <text fill="rgb(64, 64, 64)" font-family="SansSerif" font-size="10" x="740.0" y="249.0">A2</text>
   <text fill="rgb(64, 64, 64)" font-family="SansSerif" font-size="10" x="740.0" y="259.0">A3</text>
   <text fill="rgb(64, 64, 64)" font-family="SansSerif" font-size="10" x="740.0" y="269.0">WE3</text>
   <text fill="rgb(64, 64, 64)" font-family="SansSerif" font-size="10" x="740.0" y="279.0">WD3</text>
   <text fill="rgb(64, 64, 64)" font-family="SansSerif" font-size="10" x="740.0" y="289.0">R15</text>
   <text fill="rgb(64, 64, 64)" font-family="SansSerif" font-size="10" x="810.0" y="229.0">RD1</text>
   <text fill="rgb(64, 64, 64)" font-family="SansSerif" font-size="10" x="810.0" y="239.0">RD2</text>
   <text fill="rgb(0, 0, 0)" font-family="SansSerif" font-size="12" x="751.0" y="213.0">RegisterFile</text>
   <ellipse cx="735.0" cy="225.0" fill="rgb(0, 0, 0)" rx="2.0" ry="2.0" stroke="none" stroke-width="1.0"/>
   <ellipse cx="735.0" cy="235.0" fill="rgb(0, 0, 0)" rx="2.0" ry="2.0" stroke="none" stroke-width="1.0"/>
   <ellipse cx="735.0" cy="245.0" fill="rgb(0, 0, 0)" rx="2.0" ry="2.0" stroke="none" stroke-width="1.0"/>
   <ellipse cx="735.0" cy="255.0" fill="rgb(0, 0, 0)" rx="2.0" ry="2.0" stroke="none" stroke-width="1.0"/>
   <ellipse cx="735.0" cy="265.0" fill="rgb(0, 0, 0)" rx="2.0" ry="2.0" stroke="none" stroke-width="1.0"/>
   <ellipse cx="735.0" cy="275.0" fill="rgb(0, 0, 0)" rx="2.0" ry="2.0" stroke="none" stroke-width="1.0"/>
   <ellipse cx="735.0" cy="285.0" fill="rgb(0, 0, 0)" rx="2.0" ry="2.0" stroke="none" stroke-width="1.0"/>
   <ellipse cx="835.0" cy="225.0" fill="rgb(0, 0, 0)" rx="2.0" ry="2.0" stroke="none" stroke-width="1.0"/>
   <ellipse cx="835.0" cy="235.0" fill="rgb(0, 0, 0)" rx="2.0" ry="2.0" stroke="none" stroke-width="1.0"/>
   <polyline fill="none" points="735,335 834,335" stroke="rgb(0, 0, 0)" stroke-linecap="square" stroke-width="2.0"/>
   <polyline fill="none" points="835,335 835,389" stroke="rgb(0, 0, 0)" stroke-linecap="square" stroke-width="2.0"/>
   <polyline fill="none" points="835,390 736,390" stroke="rgb(0, 0, 0)" stroke-linecap="square" stroke-width="2.0"/>
   <polyline fill="none" points="735,390 735,336" stroke="rgb(0, 0, 0)" stroke-linecap="square" stroke-width="2.0"/>
   <text fill="rgb(64, 64, 64)" font-family="SansSerif" font-size="10" x="740.0" y="369.0">ImmSrc</text>
   <text fill="rgb(64, 64, 64)" font-family="SansSerif" font-size="10" x="740.0" y="379.0">Instr</text>
   <text fill="rgb(64, 64, 64)" font-family="SansSerif" font-size="10" x="797.0" y="369.0">Imm32</text>
   <text fill="rgb(0, 0, 0)" font-family="SansSerif" font-size="12" x="755.0" y="353.0">Immediate</text>
   <ellipse cx="735.0" cy="365.0" fill="rgb(0, 0, 0)" rx="2.0" ry="2.0" stroke="none" stroke-width="1.0"/>
   <ellipse cx="735.0" cy="375.0" fill="rgb(0, 0, 0)" rx="2.0" ry="2.0" stroke="none" stroke-width="1.0"/>
   <ellipse cx="835.0" cy="365.0" fill="rgb(0, 0, 0)" rx="2.0" ry="2.0" stroke="none" stroke-width="1.0"/>
   <polyline fill="none" points="1555,525 1555,530" stroke="rgb(0, 0, 0)" stroke-linecap="square" stroke-width="3.0"/>
   <polyline fill="none" points="1563,531 1547,531" stroke="rgb(0, 0, 0)" stroke-linecap="square" stroke-width="1.0"/>
   <polyline fill="none" points="1560,534 1550,534" stroke="rgb(0, 0, 0)" stroke-linecap="square" stroke-width="1.0"/>
   <polyline fill="none" points="1557,537 1553,537" stroke="rgb(0, 0, 0)" stroke-linecap="square" stroke-width="1.0"/>
   <ellipse cx="1555.0" cy="525.0" fill="rgb(0, 0, 0)" rx="2.0" ry="2.0" stroke="none" stroke-width="1.0"/>
</svg>
