<?xml version="1.0" encoding="UTF-8" standalone="no"?>
<svg xmlns="http://www.w3.org/2000/svg" version="1.1" viewBox="0 0 1548 545">
   <polyline fill="none" points="495,326 545,326" stroke="rgb(0, 0, 0)" stroke-linecap="square" stroke-width="4.0"/>
   <polyline fill="none" points="495,346 545,346" stroke="rgb(0, 0, 0)" stroke-linecap="square" stroke-width="4.0"/>
   <polyline fill="none" points="55,56 95,56" stroke="rgb(0, 0, 0)" stroke-linecap="square" stroke-width="3.0"/>
   <polyline fill="none" points="885,266 975,266" stroke="rgb(0, 0, 0)" stroke-linecap="square" stroke-width="4.0"/>
   <polyline fill="none" points="55,256 75,256" stroke="rgb(0, 0, 0)" stroke-linecap="square" stroke-width="3.0"/>
   <polyline fill="none" points="465,216 475,216" stroke="rgb(0, 0, 0)" stroke-linecap="square" stroke-width="4.0"/>
   <polyline fill="none" points="475,196 465,196 465,216 465,256 465,276 475,276" stroke="rgb(0, 0, 0)" stroke-linecap="square" stroke-width="4.0"/>
   <polyline fill="none" points="575,336 645,336 645,246 715,246" stroke="rgb(0, 0, 0)" stroke-linecap="square" stroke-width="4.0"/>
   <polyline fill="none" points="205,396 215,396" stroke="rgb(0, 0, 0)" stroke-linecap="square" stroke-width="4.0"/>
   <polyline fill="none" points="625,156 705,156 705,216 715,216" stroke="rgb(0, 0, 0)" stroke-linecap="square" stroke-width="4.0"/>
   <polyline fill="none" points="635,86 685,86 685,356 715,356" stroke="rgb(0, 0, 0)" stroke-linecap="square" stroke-width="4.0"/>
   <polyline fill="none" points="495,196 545,196" stroke="rgb(0, 0, 0)" stroke-linecap="square" stroke-width="4.0"/>
   <polyline fill="none" points="495,216 545,216" stroke="rgb(0, 0, 0)" stroke-linecap="square" stroke-width="4.0"/>
   <polyline fill="none" points="495,256 545,256" stroke="rgb(0, 0, 0)" stroke-linecap="square" stroke-width="4.0"/>
   <polyline fill="none" points="495,276 545,276" stroke="rgb(0, 0, 0)" stroke-linecap="square" stroke-width="4.0"/>
   <polyline fill="none" points="635,66 1005,66 1005,196" stroke="rgb(0, 0, 0)" stroke-linecap="square" stroke-width="4.0"/>
   <polyline fill="none" points="505,46 465,46 465,196" stroke="rgb(0, 0, 0)" stroke-linecap="square" stroke-width="4.0"/>
   <polyline fill="none" points="465,276 465,326 465,346 465,366 715,366" stroke="rgb(0, 0, 0)" stroke-linecap="square" stroke-width="4.0"/>
   <polyline fill="none" points="815,226 835,226 835,256 855,256" stroke="rgb(0, 0, 0)" stroke-linecap="square" stroke-width="4.0"/>
   <polyline fill="none" points="75,316 105,316 105,276" stroke="rgb(0, 0, 0)" stroke-linecap="square" stroke-width="3.0"/>
   <polyline fill="none" points="1155,176 1095,176 1095,226 1035,226" stroke="rgb(0, 0, 0)" stroke-linecap="square" stroke-width="4.0"/>
   <polyline fill="none" points="135,216 155,216 155,376 215,376" stroke="rgb(0, 0, 0)" stroke-linecap="square" stroke-width="4.0"/>
   <polyline fill="none" points="435,256 465,256 475,256" stroke="rgb(0, 0, 0)" stroke-linecap="square" stroke-width="4.0"/>
   <polyline fill="none" points="635,106 655,106 655,136 625,136" stroke="rgb(0, 0, 0)" stroke-linecap="square" stroke-width="4.0"/>
   <polyline fill="none" points="635,96 675,96 675,256 715,256" stroke="rgb(0, 0, 0)" stroke-linecap="square" stroke-width="3.0"/>
   <polyline fill="none" points="815,356 845,356 845,276 855,276" stroke="rgb(0, 0, 0)" stroke-linecap="square" stroke-width="4.0"/>
   <polyline fill="none" points="465,326 475,326" stroke="rgb(0, 0, 0)" stroke-linecap="square" stroke-width="4.0"/>
   <polyline fill="none" points="465,346 475,346" stroke="rgb(0, 0, 0)" stroke-linecap="square" stroke-width="4.0"/>
   <polyline fill="none" points="575,206 645,206 645,226 715,226" stroke="rgb(0, 0, 0)" stroke-linecap="square" stroke-width="4.0"/>
   <polyline fill="none" points="155,216 165,216" stroke="rgb(0, 0, 0)" stroke-linecap="square" stroke-width="4.0"/>
   <polyline fill="none" points="185,206 195,206" stroke="rgb(0, 0, 0)" stroke-linecap="square" stroke-width="4.0"/>
   <polyline fill="none" points="815,216 835,216 835,206 975,206" stroke="rgb(0, 0, 0)" stroke-linecap="square" stroke-width="4.0"/>
   <polyline fill="none" points="255,386 285,386 285,436 5,436 5,216 75,216" stroke="rgb(0, 0, 0)" stroke-linecap="square" stroke-width="4.0"/>
   <polyline fill="none" points="575,266 635,266 635,236 715,236" stroke="rgb(0, 0, 0)" stroke-linecap="square" stroke-width="4.0"/>
   <polyline fill="none" points="1035,246 1055,246 1055,456 695,456 695,266 715,266" stroke="rgb(0, 0, 0)" stroke-linecap="square" stroke-width="4.0"/>
   <ellipse cx="155.0" cy="216.0" fill="rgb(0, 0, 0)" rx="6.0" ry="6.0" stroke="none" stroke-width="4.0"/>
   <ellipse cx="465.0" cy="346.0" fill="rgb(0, 0, 0)" rx="6.0" ry="6.0" stroke="none" stroke-width="4.0"/>
   <ellipse cx="555.0" cy="156.0" fill="rgb(0, 0, 0)" rx="5.0" ry="5.0" stroke="none" stroke-width="4.0"/>
   <ellipse cx="465.0" cy="196.0" fill="rgb(0, 0, 0)" rx="6.0" ry="6.0" stroke="none" stroke-width="4.0"/>
   <ellipse cx="465.0" cy="216.0" fill="rgb(0, 0, 0)" rx="6.0" ry="6.0" stroke="none" stroke-width="4.0"/>
   <ellipse cx="515.0" cy="236.0" fill="rgb(0, 0, 0)" rx="5.0" ry="5.0" stroke="none" stroke-width="4.0"/>
   <ellipse cx="465.0" cy="256.0" fill="rgb(0, 0, 0)" rx="6.0" ry="6.0" stroke="none" stroke-width="4.0"/>
   <ellipse cx="465.0" cy="276.0" fill="rgb(0, 0, 0)" rx="6.0" ry="6.0" stroke="none" stroke-width="4.0"/>
   <ellipse cx="465.0" cy="326.0" fill="rgb(0, 0, 0)" rx="6.0" ry="6.0" stroke="none" stroke-width="4.0"/>
   <text fill="rgb(0, 0, 0)" font-family="Monospaced" font-size="12" x="65.0" y="241.0">1</text>
   <ellipse cx="75.0" cy="236.0" fill="rgb(0, 0, 0)" rx="2.0" ry="2.0" stroke="none" stroke-width="1.0"/>
   <rect fill="rgb(255, 255, 255)" height="40" stroke="none" stroke-linecap="square" stroke-width="2.0" width="40" x="35" y="296"/>
   <polyline fill="none" points="35,296 74,296" stroke="rgb(0, 0, 0)" stroke-linecap="square" stroke-width="2.0"/>
   <polyline fill="none" points="75,296 75,335" stroke="rgb(0, 0, 0)" stroke-linecap="square" stroke-width="2.0"/>
   <polyline fill="none" points="75,336 36,336" stroke="rgb(0, 0, 0)" stroke-linecap="square" stroke-width="2.0"/>
   <polyline fill="none" points="35,336 35,297" stroke="rgb(0, 0, 0)" stroke-linecap="square" stroke-width="2.0"/>
   <polyline fill="none" points="38,332 71,332" stroke="rgb(0, 0, 255)" stroke-linecap="square" stroke-width="1.0"/>
   <polyline fill="none" points="39,309 39,333" stroke="rgb(0, 0, 255)" stroke-linecap="square" stroke-width="1.0"/>
   <polyline fill="none" points="39,311 55,311 55,331 71,331" stroke="rgb(255, 0, 0)" stroke-linecap="square" stroke-width="2.0"/>
   <text fill="rgb(0, 0, 0)" font-family="SansSerif" font-size="14" font-weight="bold" x="37.0" y="308.0">POR</text>
   <ellipse cx="75.0" cy="316.0" fill="rgb(0, 0, 0)" rx="2.0" ry="2.0" stroke="none" stroke-width="2.0"/>
   <polyline fill="none" points="1159,176 1158,176" stroke="rgb(0, 0, 1)" stroke-linecap="square" stroke-width="4.0"/>
   <polygon fill="none" points="1215,167 1225,176 1215,185 1161,185 1161,167" stroke="rgb(0, 0, 0)" stroke-linecap="square" stroke-width="2.0"/>
   <text fill="rgb(0, 0, 0)" font-family="Monospaced" font-size="12" x="1176.0" y="183.0">x4</text>
   <text fill="rgb(0, 0, 0)" font-family="Monospaced" font-size="16" font-weight="bold" x="1227.0" y="184.0">ALUFlags</text>
   <ellipse cx="1155.0" cy="176.0" fill="rgb(0, 0, 0)" rx="2.0" ry="2.0" stroke="none" stroke-width="2.0"/>
   <polyline fill="none" points="185,206 171,206" stroke="rgb(0, 0, 0)" stroke-linecap="square" stroke-width="3.0"/>
   <polyline fill="none" points="171,207 171,210 166,215" stroke="rgb(0, 0, 1)" stroke-linecap="square" stroke-width="5.0"/>
   <text fill="rgb(0, 0, 0)" font-family="SansSerif" font-size="7" x="174.0" y="214.0">16-1</text>
   <ellipse cx="165.0" cy="216.0" fill="rgb(0, 0, 0)" rx="2.0" ry="2.0" stroke="none" stroke-width="5.0"/>
   <ellipse cx="185.0" cy="206.0" fill="rgb(0, 0, 0)" rx="2.0" ry="2.0" stroke="none" stroke-width="5.0"/>
   <text fill="rgb(0, 0, 0)" font-family="Monospaced" font-size="12" x="145.0" y="401.0">00000002</text>
   <ellipse cx="205.0" cy="396.0" fill="rgb(0, 0, 0)" rx="2.0" ry="2.0" stroke="none" stroke-width="1.0"/>
   <polyline fill="none" points="495,196 481,196" stroke="rgb(0, 0, 0)" stroke-linecap="square" stroke-width="3.0"/>
   <polyline fill="none" points="476,196 481,196" stroke="rgb(0, 0, 1)" stroke-linecap="square" stroke-width="5.0"/>
   <ellipse cx="481.0" cy="195.0" fill="rgb(0, 0, 1)" rx="3.5" ry="3.5" stroke="none" stroke-width="5.0"/>
   <text fill="rgb(0, 0, 0)" font-family="SansSerif" font-size="7" x="484.0" y="193.0">5-3</text>
   <ellipse cx="475.0" cy="196.0" fill="rgb(0, 0, 0)" rx="2.0" ry="2.0" stroke="none" stroke-width="5.0"/>
   <ellipse cx="495.0" cy="196.0" fill="rgb(0, 0, 0)" rx="2.0" ry="2.0" stroke="none" stroke-width="5.0"/>
   <polyline fill="none" points="495,216 481,216" stroke="rgb(0, 0, 0)" stroke-linecap="square" stroke-width="3.0"/>
   <polyline fill="none" points="476,216 481,216" stroke="rgb(0, 0, 1)" stroke-linecap="square" stroke-width="5.0"/>
   <ellipse cx="481.0" cy="215.0" fill="rgb(0, 0, 1)" rx="3.5" ry="3.5" stroke="none" stroke-width="5.0"/>
   <text fill="rgb(0, 0, 0)" font-family="SansSerif" font-size="7" x="484.0" y="213.0">10-8</text>
   <ellipse cx="475.0" cy="216.0" fill="rgb(0, 0, 0)" rx="2.0" ry="2.0" stroke="none" stroke-width="5.0"/>
   <ellipse cx="495.0" cy="216.0" fill="rgb(0, 0, 0)" rx="2.0" ry="2.0" stroke="none" stroke-width="5.0"/>
   <polyline fill="none" points="495,256 481,256" stroke="rgb(0, 0, 0)" stroke-linecap="square" stroke-width="3.0"/>
   <polyline fill="none" points="476,256 481,256" stroke="rgb(0, 0, 1)" stroke-linecap="square" stroke-width="5.0"/>
   <ellipse cx="481.0" cy="255.0" fill="rgb(0, 0, 1)" rx="3.5" ry="3.5" stroke="none" stroke-width="5.0"/>
   <text fill="rgb(0, 0, 0)" font-family="SansSerif" font-size="7" x="484.0" y="253.0">8-6</text>
   <ellipse cx="475.0" cy="256.0" fill="rgb(0, 0, 0)" rx="2.0" ry="2.0" stroke="none" stroke-width="5.0"/>
   <ellipse cx="495.0" cy="256.0" fill="rgb(0, 0, 0)" rx="2.0" ry="2.0" stroke="none" stroke-width="5.0"/>
   <polyline fill="none" points="495,276 481,276" stroke="rgb(0, 0, 0)" stroke-linecap="square" stroke-width="3.0"/>
   <polyline fill="none" points="476,276 481,276" stroke="rgb(0, 0, 1)" stroke-linecap="square" stroke-width="5.0"/>
   <ellipse cx="481.0" cy="275.0" fill="rgb(0, 0, 1)" rx="3.5" ry="3.5" stroke="none" stroke-width="5.0"/>
   <text fill="rgb(0, 0, 0)" font-family="SansSerif" font-size="7" x="484.0" y="273.0">10-8</text>
   <ellipse cx="475.0" cy="276.0" fill="rgb(0, 0, 0)" rx="2.0" ry="2.0" stroke="none" stroke-width="5.0"/>
   <ellipse cx="495.0" cy="276.0" fill="rgb(0, 0, 0)" rx="2.0" ry="2.0" stroke="none" stroke-width="5.0"/>
   <polyline fill="none" points="495,326 481,326" stroke="rgb(0, 0, 0)" stroke-linecap="square" stroke-width="3.0"/>
   <polyline fill="none" points="476,326 481,326" stroke="rgb(0, 0, 1)" stroke-linecap="square" stroke-width="5.0"/>
   <ellipse cx="481.0" cy="325.0" fill="rgb(0, 0, 1)" rx="3.5" ry="3.5" stroke="none" stroke-width="5.0"/>
   <text fill="rgb(0, 0, 0)" font-family="SansSerif" font-size="7" x="484.0" y="323.0">2-0</text>
   <ellipse cx="475.0" cy="326.0" fill="rgb(0, 0, 0)" rx="2.0" ry="2.0" stroke="none" stroke-width="5.0"/>
   <ellipse cx="495.0" cy="326.0" fill="rgb(0, 0, 0)" rx="2.0" ry="2.0" stroke="none" stroke-width="5.0"/>
   <polyline fill="none" points="495,346 481,346" stroke="rgb(0, 0, 0)" stroke-linecap="square" stroke-width="3.0"/>
   <polyline fill="none" points="476,346 481,346" stroke="rgb(0, 0, 1)" stroke-linecap="square" stroke-width="5.0"/>
   <ellipse cx="481.0" cy="345.0" fill="rgb(0, 0, 1)" rx="3.5" ry="3.5" stroke="none" stroke-width="5.0"/>
   <text fill="rgb(0, 0, 0)" font-family="SansSerif" font-size="7" x="484.0" y="343.0">10-8</text>
   <ellipse cx="475.0" cy="346.0" fill="rgb(0, 0, 0)" rx="2.0" ry="2.0" stroke="none" stroke-width="5.0"/>
   <ellipse cx="495.0" cy="346.0" fill="rgb(0, 0, 0)" rx="2.0" ry="2.0" stroke="none" stroke-width="5.0"/>
   <polyline fill="none" points="625,156 625,142" stroke="rgb(0, 0, 0)" stroke-linecap="square" stroke-width="3.0"/>
   <polyline fill="none" points="515,236 515,156 555,156 615,156 615,142" stroke="rgb(0, 0, 0)" stroke-linecap="square" stroke-width="3.0"/>
   <polyline fill="none" points="625,137 625,142" stroke="rgb(0, 0, 1)" stroke-linecap="square" stroke-width="5.0"/>
   <polyline fill="none" points="624,142 616,142" stroke="rgb(0, 0, 1)" stroke-linecap="square" stroke-width="5.0"/>
   <text fill="rgb(0, 0, 0)" font-family="SansSerif" font-size="7" transform="rotate(90.0,628.0,145.0)" x="628.0" y="145.0">1-0</text>
   <text fill="rgb(0, 0, 0)" font-family="SansSerif" font-size="7" transform="rotate(90.0,618.0,145.0)" x="618.0" y="145.0">2</text>
   <ellipse cx="625.0" cy="136.0" fill="rgb(0, 0, 0)" rx="2.0" ry="2.0" stroke="none" stroke-width="5.0"/>
   <ellipse cx="625.0" cy="156.0" fill="rgb(0, 0, 0)" rx="2.0" ry="2.0" stroke="none" stroke-width="5.0"/>
   <ellipse cx="615.0" cy="156.0" fill="rgb(0, 0, 0)" rx="2.0" ry="2.0" stroke="none" stroke-width="5.0"/>
   <polyline fill="none" points="35,46 54,46" stroke="rgb(0, 0, 0)" stroke-linecap="square" stroke-width="2.0"/>
   <polyline fill="none" points="55,46 55,65" stroke="rgb(0, 0, 0)" stroke-linecap="square" stroke-width="2.0"/>
   <polyline fill="none" points="55,66 36,66" stroke="rgb(0, 0, 0)" stroke-linecap="square" stroke-width="2.0"/>
   <polyline fill="none" points="35,66 35,47" stroke="rgb(0, 0, 0)" stroke-linecap="square" stroke-width="2.0"/>
   <text fill="rgb(0, 0, 0)" font-family="SansSerif" font-size="16" font-weight="bold" x="11.0" y="64.0">clk</text>
   <polyline fill="none" points="39,56 39,52 45,52 45,60 51,60 51,56" stroke="rgb(0, 0, 0)" stroke-linecap="square" stroke-width="2.0"/>
   <ellipse cx="55.0" cy="56.0" fill="rgb(0, 0, 0)" rx="2.0" ry="2.0" stroke="none" stroke-width="2.0"/>
   <polyline fill="none" points="35,246 54,246" stroke="rgb(0, 0, 0)" stroke-linecap="square" stroke-width="2.0"/>
   <polyline fill="none" points="55,246 55,265" stroke="rgb(0, 0, 0)" stroke-linecap="square" stroke-width="2.0"/>
   <polyline fill="none" points="55,266 36,266" stroke="rgb(0, 0, 0)" stroke-linecap="square" stroke-width="2.0"/>
   <polyline fill="none" points="35,266 35,247" stroke="rgb(0, 0, 0)" stroke-linecap="square" stroke-width="2.0"/>
   <polyline fill="none" points="39,256 39,252 45,252 45,260 51,260 51,256" stroke="rgb(0, 0, 0)" stroke-linecap="square" stroke-width="2.0"/>
   <ellipse cx="55.0" cy="256.0" fill="rgb(0, 0, 0)" rx="2.0" ry="2.0" stroke="none" stroke-width="2.0"/>
   <polyline fill="none" points="555,190 555,186 555,156" stroke="rgb(0, 0, 0)" stroke-linecap="square" stroke-width="3.0"/>
   <ellipse cx="555.0" cy="191.0" fill="rgb(192, 192, 192)" rx="3.0" ry="3.0" stroke="none" stroke-width="1.0"/>
   <text fill="rgb(128, 128, 128)" font-family="SansSerif" font-size="12" x="548.0" y="201.0">0</text>
   <polygon fill="none" points="545,186 575,196 575,216 545,226" stroke="rgb(0, 0, 0)" stroke-linecap="square" stroke-width="2.0"/>
   <text fill="rgb(0, 0, 0)" font-family="SansSerif" font-size="12" x="548.0" y="213.0">MUX</text>
   <ellipse cx="545.0" cy="196.0" fill="rgb(0, 0, 0)" rx="2.0" ry="2.0" stroke="none" stroke-width="2.0"/>
   <ellipse cx="545.0" cy="216.0" fill="rgb(0, 0, 0)" rx="2.0" ry="2.0" stroke="none" stroke-width="2.0"/>
   <ellipse cx="555.0" cy="186.0" fill="rgb(0, 0, 0)" rx="2.0" ry="2.0" stroke="none" stroke-width="2.0"/>
   <ellipse cx="575.0" cy="206.0" fill="rgb(0, 0, 0)" rx="2.0" ry="2.0" stroke="none" stroke-width="2.0"/>
   <ellipse cx="555.0" cy="251.0" fill="rgb(192, 192, 192)" rx="3.0" ry="3.0" stroke="none" stroke-width="1.0"/>
   <text fill="rgb(128, 128, 128)" font-family="SansSerif" font-size="12" x="548.0" y="261.0">0</text>
   <polygon fill="none" points="545,246 575,256 575,276 545,286" stroke="rgb(0, 0, 0)" stroke-linecap="square" stroke-width="2.0"/>
   <text fill="rgb(0, 0, 0)" font-family="SansSerif" font-size="12" x="548.0" y="273.0">MUX</text>
   <ellipse cx="545.0" cy="256.0" fill="rgb(0, 0, 0)" rx="2.0" ry="2.0" stroke="none" stroke-width="2.0"/>
   <ellipse cx="545.0" cy="276.0" fill="rgb(0, 0, 0)" rx="2.0" ry="2.0" stroke="none" stroke-width="2.0"/>
   <ellipse cx="555.0" cy="246.0" fill="rgb(0, 0, 0)" rx="2.0" ry="2.0" stroke="none" stroke-width="2.0"/>
   <ellipse cx="575.0" cy="266.0" fill="rgb(0, 0, 0)" rx="2.0" ry="2.0" stroke="none" stroke-width="2.0"/>
   <polyline fill="none" points="555,320 555,316 555,306 515,306 515,236 555,236 555,246 555,250" stroke="rgb(0, 0, 0)" stroke-linecap="square" stroke-width="3.0"/>
   <ellipse cx="555.0" cy="321.0" fill="rgb(192, 192, 192)" rx="3.0" ry="3.0" stroke="none" stroke-width="1.0"/>
   <text fill="rgb(128, 128, 128)" font-family="SansSerif" font-size="12" x="548.0" y="331.0">0</text>
   <polygon fill="none" points="545,316 575,326 575,346 545,356" stroke="rgb(0, 0, 0)" stroke-linecap="square" stroke-width="2.0"/>
   <text fill="rgb(0, 0, 0)" font-family="SansSerif" font-size="12" x="548.0" y="343.0">MUX</text>
   <ellipse cx="545.0" cy="326.0" fill="rgb(0, 0, 0)" rx="2.0" ry="2.0" stroke="none" stroke-width="2.0"/>
   <ellipse cx="545.0" cy="346.0" fill="rgb(0, 0, 0)" rx="2.0" ry="2.0" stroke="none" stroke-width="2.0"/>
   <ellipse cx="555.0" cy="316.0" fill="rgb(0, 0, 0)" rx="2.0" ry="2.0" stroke="none" stroke-width="2.0"/>
   <ellipse cx="575.0" cy="336.0" fill="rgb(0, 0, 0)" rx="2.0" ry="2.0" stroke="none" stroke-width="2.0"/>
   <polyline fill="none" points="865,250 865,246 865,76 635,76" stroke="rgb(0, 0, 0)" stroke-linecap="square" stroke-width="3.0"/>
   <ellipse cx="865.0" cy="251.0" fill="rgb(192, 192, 192)" rx="3.0" ry="3.0" stroke="none" stroke-width="1.0"/>
   <text fill="rgb(128, 128, 128)" font-family="SansSerif" font-size="12" x="858.0" y="261.0">0</text>
   <polygon fill="none" points="855,246 885,256 885,276 855,286" stroke="rgb(0, 0, 0)" stroke-linecap="square" stroke-width="2.0"/>
   <text fill="rgb(0, 0, 0)" font-family="SansSerif" font-size="12" x="858.0" y="273.0">MUX</text>
   <ellipse cx="855.0" cy="256.0" fill="rgb(0, 0, 0)" rx="2.0" ry="2.0" stroke="none" stroke-width="2.0"/>
   <ellipse cx="855.0" cy="276.0" fill="rgb(0, 0, 0)" rx="2.0" ry="2.0" stroke="none" stroke-width="2.0"/>
   <ellipse cx="865.0" cy="246.0" fill="rgb(0, 0, 0)" rx="2.0" ry="2.0" stroke="none" stroke-width="2.0"/>
   <ellipse cx="885.0" cy="266.0" fill="rgb(0, 0, 0)" rx="2.0" ry="2.0" stroke="none" stroke-width="2.0"/>
   <polyline fill="none" points="215,366 254,366" stroke="rgb(0, 0, 0)" stroke-linecap="square" stroke-width="2.0"/>
   <polyline fill="none" points="255,366 255,405" stroke="rgb(0, 0, 0)" stroke-linecap="square" stroke-width="2.0"/>
   <polyline fill="none" points="255,406 216,406" stroke="rgb(0, 0, 0)" stroke-linecap="square" stroke-width="2.0"/>
   <polyline fill="none" points="215,406 215,367" stroke="rgb(0, 0, 0)" stroke-linecap="square" stroke-width="2.0"/>
   <ellipse cx="215.0" cy="376.0" fill="rgb(0, 0, 0)" rx="2.0" ry="2.0" stroke="none" stroke-width="1.0"/>
   <ellipse cx="215.0" cy="396.0" fill="rgb(0, 0, 0)" rx="2.0" ry="2.0" stroke="none" stroke-width="1.0"/>
   <ellipse cx="255.0" cy="386.0" fill="rgb(0, 0, 0)" rx="2.0" ry="2.0" stroke="none" stroke-width="1.0"/>
   <ellipse cx="235.0" cy="366.0" fill="rgb(0, 0, 0)" rx="2.0" ry="2.0" stroke="none" stroke-width="1.0"/>
   <text fill="rgb(153, 153, 153)" font-family="SansSerif" font-size="12" x="226.0" y="382.0">c in</text>
   <ellipse cx="235.0" cy="406.0" fill="rgb(0, 0, 0)" rx="2.0" ry="2.0" stroke="none" stroke-width="1.0"/>
   <text fill="rgb(153, 153, 153)" font-family="SansSerif" font-size="12" x="222.0" y="403.0">c out</text>
   <polyline fill="none" points="240,386 250,386" stroke="rgb(0, 0, 0)" stroke-linecap="square" stroke-width="2.0"/>
   <polyline fill="none" points="245,381 245,391" stroke="rgb(0, 0, 0)" stroke-linecap="square" stroke-width="2.0"/>
   <polyline fill="none" points="125,211 130,211 130,271 90,271 90,266" stroke="rgb(0, 0, 0)" stroke-linecap="square" stroke-width="2.0"/>
   <polyline fill="none" points="130,216 135,216 135,276 95,276 95,271" stroke="rgb(0, 0, 0)" stroke-linecap="square" stroke-width="2.0"/>
   <polyline fill="none" points="75,216 83,216" stroke="rgb(0, 0, 1)" stroke-linecap="square" stroke-width="5.0"/>
   <polyline fill="none" points="127,216 135,216" stroke="rgb(0, 0, 1)" stroke-linecap="square" stroke-width="5.0"/>
   <polyline fill="none" points="85,206 124,206" stroke="rgb(0, 0, 0)" stroke-linecap="square" stroke-width="2.0"/>
   <polyline fill="none" points="125,206 125,265" stroke="rgb(0, 0, 0)" stroke-linecap="square" stroke-width="2.0"/>
   <polyline fill="none" points="125,266 86,266" stroke="rgb(0, 0, 0)" stroke-linecap="square" stroke-width="2.0"/>
   <polyline fill="none" points="85,266 85,207" stroke="rgb(0, 0, 0)" stroke-linecap="square" stroke-width="2.0"/>
   <text fill="rgb(0, 0, 0)" font-family="SansSerif" font-size="12" x="89.0" y="221.0">D</text>
   <text fill="rgb(0, 0, 0)" font-family="SansSerif" font-size="12" x="112.0" y="221.0">Q</text>
   <polyline fill="none" points="105,267 105,276" stroke="rgb(0, 0, 0)" stroke-linecap="square" stroke-width="2.0"/>
   <text fill="rgb(153, 153, 153)" font-family="SansSerif" font-size="12" x="101.0" y="261.0">R</text>
   <text fill="rgb(0, 0, 0)" font-family="SansSerif" font-size="12" x="88.0" y="241.0">WE</text>
   <polyline fill="none" points="75,236 84,236" stroke="rgb(0, 0, 0)" stroke-linecap="square" stroke-width="2.0"/>
   <polyline fill="none" points="86,252 93,256 86,260" stroke="rgb(0, 0, 0)" stroke-linecap="square" stroke-width="2.0"/>
   <polyline fill="none" points="75,256 84,256" stroke="rgb(0, 0, 0)" stroke-linecap="square" stroke-width="2.0"/>
   <text fill="rgb(0, 0, 0)" font-family="SansSerif" font-size="16" font-weight="bold" x="94.0" y="180.0">PC</text>
   <ellipse cx="75.0" cy="216.0" fill="rgb(0, 0, 0)" rx="2.0" ry="2.0" stroke="none" stroke-width="1.0"/>
   <ellipse cx="135.0" cy="216.0" fill="rgb(0, 0, 0)" rx="2.0" ry="2.0" stroke="none" stroke-width="1.0"/>
   <ellipse cx="105.0" cy="276.0" fill="rgb(0, 0, 0)" rx="2.0" ry="2.0" stroke="none" stroke-width="1.0"/>
   <ellipse cx="75.0" cy="236.0" fill="rgb(0, 0, 0)" rx="2.0" ry="2.0" stroke="none" stroke-width="1.0"/>
   <ellipse cx="75.0" cy="256.0" fill="rgb(0, 0, 0)" rx="2.0" ry="2.0" stroke="none" stroke-width="1.0"/>
   <polyline fill="none" points="195,196 434,196" stroke="rgb(0, 0, 0)" stroke-linecap="square" stroke-width="2.0"/>
   <polyline fill="none" points="435,196 435,335" stroke="rgb(0, 0, 0)" stroke-linecap="square" stroke-width="2.0"/>
   <polyline fill="none" points="435,336 196,336" stroke="rgb(0, 0, 0)" stroke-linecap="square" stroke-width="2.0"/>
   <polyline fill="none" points="195,336 195,197" stroke="rgb(0, 0, 0)" stroke-linecap="square" stroke-width="2.0"/>
   <ellipse cx="435.0" cy="256.0" fill="rgb(0, 0, 0)" rx="2.0" ry="2.0" stroke="none" stroke-width="1.0"/>
   <text fill="rgb(0, 0, 0)" font-family="SansSerif" font-size="12" x="423.0" y="263.0">D</text>
   <ellipse cx="195.0" cy="206.0" fill="rgb(0, 0, 0)" rx="2.0" ry="2.0" stroke="none" stroke-width="1.0"/>
   <text fill="rgb(0, 0, 0)" font-family="SansSerif" font-size="12" x="198.0" y="213.0">A</text>
   <text fill="rgb(0, 0, 0)" font-family="SansSerif" font-size="12" x="277.0" y="209.0">ROM 64K x 16</text>
   <ellipse cx="105.0" cy="56.0" fill="none" rx="9.0" ry="9.0" stroke="rgb(0, 0, 0)" stroke-width="2.0"/>
   <ellipse cx="95.0" cy="56.0" fill="rgb(0, 0, 0)" rx="2.0" ry="2.0" stroke="none" stroke-width="1.0"/>
   <text fill="rgb(0, 0, 0)" font-family="SansSerif" font-size="16" font-weight="bold" x="110.0" y="531.0">RegisterFile</text>
   <text fill="rgb(0, 0, 0)" font-family="SansSerif" font-size="16" font-weight="bold" x="251.0" y="531.0">Immediate</text>
   <text fill="rgb(0, 0, 0)" font-family="SansSerif" font-size="16" font-weight="bold" x="376.0" y="531.0">Instruction Memory (ROM)</text>
   <text fill="rgb(0, 0, 0)" font-family="SansSerif" font-size="16" font-weight="bold" x="14.0" y="531.0">ALU</text>
   <text fill="rgb(0, 0, 0)" font-family="SansSerif" font-size="12" x="980.0" y="216.0">A</text>
   <text fill="rgb(0, 0, 0)" font-family="SansSerif" font-size="12" x="980.0" y="266.0">B</text>
   <text fill="rgb(0, 0, 0)" font-family="SansSerif" font-size="12" x="994.0" y="250.0">Result</text>
   <text fill="rgb(0, 0, 0)" font-family="SansSerif" font-size="12" x="998.0" y="229.0">Flags</text>
   <text fill="rgb(0, 0, 0)" font-family="SansSerif" font-size="12" x="997.0" y="210.0">ctrl</text>
   <polyline fill="none" points="975,187 975,226" stroke="rgb(0, 0, 0)" stroke-linecap="square" stroke-width="1.0"/>
   <polyline fill="none" points="976,226 985,236" stroke="rgb(0, 0, 0)" stroke-linecap="square" stroke-width="1.0"/>
   <polyline fill="none" points="975,186 1035,205 1035,266" stroke="rgb(0, 0, 0)" stroke-linecap="square" stroke-width="1.0"/>
   <polyline fill="none" points="986,236 975,246 975,286 1035,267" stroke="rgb(0, 0, 0)" stroke-linecap="square" stroke-width="1.0"/>
   <ellipse cx="975.0" cy="206.0" fill="rgb(0, 0, 0)" rx="2.0" ry="2.0" stroke="none" stroke-width="1.0"/>
   <ellipse cx="975.0" cy="266.0" fill="rgb(0, 0, 0)" rx="2.0" ry="2.0" stroke="none" stroke-width="1.0"/>
   <ellipse cx="1005.0" cy="196.0" fill="rgb(0, 0, 0)" rx="2.0" ry="2.0" stroke="none" stroke-width="1.0"/>
   <ellipse cx="1035.0" cy="226.0" fill="rgb(0, 0, 0)" rx="2.0" ry="2.0" stroke="none" stroke-width="1.0"/>
   <ellipse cx="1035.0" cy="246.0" fill="rgb(0, 0, 0)" rx="2.0" ry="2.0" stroke="none" stroke-width="1.0"/>
   <polyline fill="none" points="505,6 634,6" stroke="rgb(0, 0, 0)" stroke-linecap="square" stroke-width="2.0"/>
   <polyline fill="none" points="635,6 635,120" stroke="rgb(0, 0, 0)" stroke-linecap="square" stroke-width="2.0"/>
   <polyline fill="none" points="635,121 506,121" stroke="rgb(0, 0, 0)" stroke-linecap="square" stroke-width="2.0"/>
   <polyline fill="none" points="505,121 505,7" stroke="rgb(0, 0, 0)" stroke-linecap="square" stroke-width="2.0"/>
   <text fill="rgb(64, 64, 64)" font-family="SansSerif" font-size="10" x="510.0" y="40.0">ALUFlags</text>
   <text fill="rgb(64, 64, 64)" font-family="SansSerif" font-size="10" x="510.0" y="50.0">Instr</text>
   <text fill="rgb(64, 64, 64)" font-family="SansSerif" font-size="10" x="600.0" y="40.0">PCSrc</text>
   <text fill="rgb(64, 64, 64)" font-family="SansSerif" font-size="10" x="574.0" y="50.0">MemToReg</text>
   <text fill="rgb(64, 64, 64)" font-family="SansSerif" font-size="10" x="582.0" y="60.0">MemWrite</text>
   <text fill="rgb(64, 64, 64)" font-family="SansSerif" font-size="10" x="576.0" y="70.0">ALUControl</text>
   <text fill="rgb(64, 64, 64)" font-family="SansSerif" font-size="10" x="594.0" y="80.0">ALUSrc</text>
   <text fill="rgb(64, 64, 64)" font-family="SansSerif" font-size="10" x="593.0" y="90.0">ImmSrc</text>
   <text fill="rgb(64, 64, 64)" font-family="SansSerif" font-size="10" x="587.0" y="100.0">RegWrite</text>
   <text fill="rgb(64, 64, 64)" font-family="SansSerif" font-size="10" x="595.0" y="110.0">RegSrc</text>
   <text fill="rgb(0, 0, 0)" font-family="SansSerif" font-size="12" x="535.0" y="24.0">Control_Unit</text>
   <ellipse cx="505.0" cy="36.0" fill="rgb(0, 0, 0)" rx="2.0" ry="2.0" stroke="none" stroke-width="1.0"/>
   <ellipse cx="505.0" cy="46.0" fill="rgb(0, 0, 0)" rx="2.0" ry="2.0" stroke="none" stroke-width="1.0"/>
   <ellipse cx="635.0" cy="36.0" fill="rgb(0, 0, 0)" rx="2.0" ry="2.0" stroke="none" stroke-width="1.0"/>
   <ellipse cx="635.0" cy="46.0" fill="rgb(0, 0, 0)" rx="2.0" ry="2.0" stroke="none" stroke-width="1.0"/>
   <ellipse cx="635.0" cy="56.0" fill="rgb(0, 0, 0)" rx="2.0" ry="2.0" stroke="none" stroke-width="1.0"/>
   <ellipse cx="635.0" cy="66.0" fill="rgb(0, 0, 0)" rx="2.0" ry="2.0" stroke="none" stroke-width="1.0"/>
   <ellipse cx="635.0" cy="76.0" fill="rgb(0, 0, 0)" rx="2.0" ry="2.0" stroke="none" stroke-width="1.0"/>
   <ellipse cx="635.0" cy="86.0" fill="rgb(0, 0, 0)" rx="2.0" ry="2.0" stroke="none" stroke-width="1.0"/>
   <ellipse cx="635.0" cy="96.0" fill="rgb(0, 0, 0)" rx="2.0" ry="2.0" stroke="none" stroke-width="1.0"/>
   <ellipse cx="635.0" cy="106.0" fill="rgb(0, 0, 0)" rx="2.0" ry="2.0" stroke="none" stroke-width="1.0"/>
   <polyline fill="none" points="715,186 814,186" stroke="rgb(0, 0, 0)" stroke-linecap="square" stroke-width="2.0"/>
   <polyline fill="none" points="815,186 815,290" stroke="rgb(0, 0, 0)" stroke-linecap="square" stroke-width="2.0"/>
   <polyline fill="none" points="815,291 716,291" stroke="rgb(0, 0, 0)" stroke-linecap="square" stroke-width="2.0"/>
   <polyline fill="none" points="715,291 715,187" stroke="rgb(0, 0, 0)" stroke-linecap="square" stroke-width="2.0"/>
   <text fill="rgb(64, 64, 64)" font-family="SansSerif" font-size="10" x="720.0" y="220.0">SP_PC</text>
   <text fill="rgb(64, 64, 64)" font-family="SansSerif" font-size="10" x="720.0" y="230.0">A1</text>
   <text fill="rgb(64, 64, 64)" font-family="SansSerif" font-size="10" x="720.0" y="240.0">A2</text>
   <text fill="rgb(64, 64, 64)" font-family="SansSerif" font-size="10" x="720.0" y="250.0">A3</text>
   <text fill="rgb(64, 64, 64)" font-family="SansSerif" font-size="10" x="720.0" y="260.0">WE3</text>
   <text fill="rgb(64, 64, 64)" font-family="SansSerif" font-size="10" x="720.0" y="270.0">WD3</text>
   <text fill="rgb(64, 64, 64)" font-family="SansSerif" font-size="10" x="720.0" y="280.0">R15</text>
   <text fill="rgb(64, 64, 64)" font-family="SansSerif" font-size="10" x="790.0" y="220.0">RD1</text>
   <text fill="rgb(64, 64, 64)" font-family="SansSerif" font-size="10" x="790.0" y="230.0">RD2</text>
   <text fill="rgb(0, 0, 0)" font-family="SansSerif" font-size="12" x="731.0" y="204.0">RegisterFile</text>
   <ellipse cx="715.0" cy="216.0" fill="rgb(0, 0, 0)" rx="2.0" ry="2.0" stroke="none" stroke-width="1.0"/>
   <ellipse cx="715.0" cy="226.0" fill="rgb(0, 0, 0)" rx="2.0" ry="2.0" stroke="none" stroke-width="1.0"/>
   <ellipse cx="715.0" cy="236.0" fill="rgb(0, 0, 0)" rx="2.0" ry="2.0" stroke="none" stroke-width="1.0"/>
   <ellipse cx="715.0" cy="246.0" fill="rgb(0, 0, 0)" rx="2.0" ry="2.0" stroke="none" stroke-width="1.0"/>
   <ellipse cx="715.0" cy="256.0" fill="rgb(0, 0, 0)" rx="2.0" ry="2.0" stroke="none" stroke-width="1.0"/>
   <ellipse cx="715.0" cy="266.0" fill="rgb(0, 0, 0)" rx="2.0" ry="2.0" stroke="none" stroke-width="1.0"/>
   <ellipse cx="715.0" cy="276.0" fill="rgb(0, 0, 0)" rx="2.0" ry="2.0" stroke="none" stroke-width="1.0"/>
   <ellipse cx="815.0" cy="216.0" fill="rgb(0, 0, 0)" rx="2.0" ry="2.0" stroke="none" stroke-width="1.0"/>
   <ellipse cx="815.0" cy="226.0" fill="rgb(0, 0, 0)" rx="2.0" ry="2.0" stroke="none" stroke-width="1.0"/>
   <polyline fill="none" points="715,326 814,326" stroke="rgb(0, 0, 0)" stroke-linecap="square" stroke-width="2.0"/>
   <polyline fill="none" points="815,326 815,380" stroke="rgb(0, 0, 0)" stroke-linecap="square" stroke-width="2.0"/>
   <polyline fill="none" points="815,381 716,381" stroke="rgb(0, 0, 0)" stroke-linecap="square" stroke-width="2.0"/>
   <polyline fill="none" points="715,381 715,327" stroke="rgb(0, 0, 0)" stroke-linecap="square" stroke-width="2.0"/>
   <text fill="rgb(64, 64, 64)" font-family="SansSerif" font-size="10" x="720.0" y="360.0">ImmSrc</text>
   <text fill="rgb(64, 64, 64)" font-family="SansSerif" font-size="10" x="720.0" y="370.0">Instr</text>
   <text fill="rgb(64, 64, 64)" font-family="SansSerif" font-size="10" x="777.0" y="360.0">Imm32</text>
   <text fill="rgb(0, 0, 0)" font-family="SansSerif" font-size="12" x="735.0" y="344.0">Immediate</text>
   <ellipse cx="715.0" cy="356.0" fill="rgb(0, 0, 0)" rx="2.0" ry="2.0" stroke="none" stroke-width="1.0"/>
   <ellipse cx="715.0" cy="366.0" fill="rgb(0, 0, 0)" rx="2.0" ry="2.0" stroke="none" stroke-width="1.0"/>
   <ellipse cx="815.0" cy="356.0" fill="rgb(0, 0, 0)" rx="2.0" ry="2.0" stroke="none" stroke-width="1.0"/>
   <polyline fill="none" points="1535,516 1535,521" stroke="rgb(0, 0, 0)" stroke-linecap="square" stroke-width="3.0"/>
   <polyline fill="none" points="1543,522 1527,522" stroke="rgb(0, 0, 0)" stroke-linecap="square" stroke-width="1.0"/>
   <polyline fill="none" points="1540,525 1530,525" stroke="rgb(0, 0, 0)" stroke-linecap="square" stroke-width="1.0"/>
   <polyline fill="none" points="1537,528 1533,528" stroke="rgb(0, 0, 0)" stroke-linecap="square" stroke-width="1.0"/>
   <ellipse cx="1535.0" cy="516.0" fill="rgb(0, 0, 0)" rx="2.0" ry="2.0" stroke="none" stroke-width="1.0"/>
</svg>
